%TF.GenerationSoftware,KiCad,Pcbnew,(5.99.0-2407-g46ade4960)*%
%TF.CreationDate,2020-08-08T20:05:25+03:00*%
%TF.ProjectId,gateway-expansion-a1,67617465-7761-4792-9d65-7870616e7369,rev?*%
%TF.SameCoordinates,Original*%
%TF.FileFunction,Copper,L2,Bot*%
%TF.FilePolarity,Positive*%
%FSLAX46Y46*%
G04 Gerber Fmt 4.6, Leading zero omitted, Abs format (unit mm)*
G04 Created by KiCad (PCBNEW (5.99.0-2407-g46ade4960)) date 2020-08-08 20:05:25*
%MOMM*%
%LPD*%
G01*
G04 APERTURE LIST*
%TA.AperFunction,ViaPad*%
%ADD10C,0.800000*%
%TD*%
%TA.AperFunction,Conductor*%
%ADD11C,0.200000*%
%TD*%
G04 APERTURE END LIST*
D10*
%TO.N,GND*%
X190000000Y-75000000D03*
X190000000Y-125000000D03*
X110000000Y-125000000D03*
X110000000Y-75000000D03*
X130000000Y-140000000D03*
X170000000Y-140000000D03*
X170000000Y-60000000D03*
X130000000Y-60000000D03*
%TD*%
%TO.N,GND*%
D11*
X174901000Y-64908141D02*
X174898738Y-64921586D01*
X174898055Y-64929161D01*
X174896612Y-65039463D01*
X174896645Y-65042055D01*
X174909126Y-65359690D01*
X174909576Y-65364683D01*
X174911003Y-65374774D01*
X174916818Y-65451225D01*
X174917083Y-65453803D01*
X174968455Y-65852079D01*
X174969348Y-65857015D01*
X174970408Y-65861550D01*
X174986767Y-65953856D01*
X174987286Y-65956396D01*
X175077962Y-66347598D01*
X175079340Y-66352418D01*
X175080844Y-66356825D01*
X175106292Y-66447056D01*
X175107060Y-66449531D01*
X175236142Y-66829792D01*
X175237991Y-66834449D01*
X175239927Y-66838688D01*
X175274209Y-66925939D01*
X175275220Y-66928325D01*
X175441430Y-67293888D01*
X175443734Y-67298342D01*
X175446079Y-67302362D01*
X175488860Y-67385783D01*
X175490102Y-67388058D01*
X175691797Y-67735301D01*
X175694527Y-67739497D01*
X175697262Y-67743269D01*
X175748121Y-67822034D01*
X175749583Y-67824174D01*
X175984770Y-68149668D01*
X175987904Y-68153573D01*
X175991002Y-68157057D01*
X176049426Y-68230373D01*
X176051093Y-68232356D01*
X176317444Y-68532884D01*
X176320951Y-68536460D01*
X176324386Y-68539625D01*
X176389800Y-68606772D01*
X176391656Y-68608580D01*
X176686538Y-68881167D01*
X176690382Y-68884376D01*
X176694117Y-68887187D01*
X176765874Y-68947502D01*
X176767900Y-68949117D01*
X177088399Y-69191070D01*
X177092549Y-69193885D01*
X177096525Y-69196298D01*
X177173930Y-69249198D01*
X177176107Y-69250604D01*
X177519051Y-69459527D01*
X177523455Y-69461913D01*
X177527662Y-69463925D01*
X177609932Y-69508872D01*
X177612238Y-69510055D01*
X177974235Y-69683884D01*
X177978854Y-69685821D01*
X177983248Y-69687408D01*
X178069568Y-69723959D01*
X178071980Y-69724907D01*
X178449454Y-69861924D01*
X178454245Y-69863393D01*
X178458767Y-69864534D01*
X178548295Y-69892332D01*
X178550790Y-69893036D01*
X178940006Y-69991885D01*
X178944920Y-69992871D01*
X178949535Y-69993556D01*
X179041381Y-70012326D01*
X179043933Y-70012778D01*
X179441042Y-70072480D01*
X179446027Y-70072973D01*
X179450687Y-70073198D01*
X179543942Y-70082753D01*
X179546526Y-70082949D01*
X179947602Y-70102916D01*
X179952614Y-70102912D01*
X180028529Y-70099000D01*
X193021981Y-70098998D01*
X193602805Y-70946431D01*
X194348423Y-72097818D01*
X195063612Y-73268274D01*
X195747946Y-74457099D01*
X196400882Y-75663349D01*
X197022047Y-76886335D01*
X197610981Y-78125154D01*
X198167279Y-79378952D01*
X198690572Y-80646898D01*
X199180497Y-81928115D01*
X199636708Y-83221696D01*
X200058915Y-84526815D01*
X200446802Y-85842506D01*
X200800101Y-87167842D01*
X201118595Y-88502016D01*
X201402073Y-89844149D01*
X201650303Y-91193146D01*
X201863139Y-92548212D01*
X202040434Y-93908409D01*
X202182059Y-95272739D01*
X202287925Y-96640346D01*
X202357952Y-98010203D01*
X202392198Y-99385483D01*
X202395800Y-99995960D01*
X202377793Y-101371572D01*
X202323941Y-102742187D01*
X202234230Y-104110925D01*
X202108720Y-105476835D01*
X201947491Y-106839049D01*
X201750673Y-108196474D01*
X201518376Y-109548371D01*
X201250773Y-110893702D01*
X200948049Y-112231548D01*
X200610414Y-113560993D01*
X200238073Y-114881212D01*
X199831312Y-116191198D01*
X199390419Y-117490025D01*
X198915639Y-118776971D01*
X198407366Y-120050973D01*
X197865901Y-121311262D01*
X197291638Y-122556937D01*
X196684952Y-123787177D01*
X196046269Y-125001113D01*
X195376063Y-126197852D01*
X194674732Y-127376683D01*
X193942776Y-128536762D01*
X193178504Y-129680576D01*
X193025088Y-129901000D01*
X180091876Y-129901002D01*
X180078414Y-129898737D01*
X180070838Y-129898054D01*
X179960535Y-129896611D01*
X179957943Y-129896644D01*
X179640310Y-129909125D01*
X179635319Y-129909574D01*
X179625224Y-129911002D01*
X179548771Y-129916817D01*
X179546192Y-129917082D01*
X179147920Y-129968455D01*
X179142987Y-129969347D01*
X179138446Y-129970408D01*
X179046143Y-129986767D01*
X179043604Y-129987286D01*
X178652403Y-130077961D01*
X178647586Y-130079338D01*
X178643175Y-130080843D01*
X178552947Y-130106291D01*
X178550472Y-130107059D01*
X178170209Y-130236141D01*
X178165550Y-130237990D01*
X178161309Y-130239927D01*
X178074059Y-130274209D01*
X178071673Y-130275220D01*
X177706111Y-130441430D01*
X177701659Y-130443734D01*
X177697639Y-130446078D01*
X177614215Y-130488860D01*
X177611940Y-130490103D01*
X177264697Y-130691799D01*
X177260496Y-130694532D01*
X177256716Y-130697273D01*
X177177970Y-130748119D01*
X177175831Y-130749581D01*
X176850332Y-130984769D01*
X176846420Y-130987909D01*
X176842942Y-130991003D01*
X176769625Y-131049428D01*
X176767641Y-131051095D01*
X176467112Y-131317448D01*
X176463531Y-131320961D01*
X176460370Y-131324393D01*
X176393229Y-131389800D01*
X176391421Y-131391656D01*
X176118834Y-131686539D01*
X176115624Y-131690385D01*
X176112827Y-131694102D01*
X176052498Y-131765875D01*
X176050883Y-131767901D01*
X175808931Y-132088399D01*
X175806120Y-132092543D01*
X175803707Y-132096520D01*
X175750804Y-132173929D01*
X175749399Y-132176106D01*
X175540474Y-132519052D01*
X175538085Y-132523462D01*
X175536079Y-132527660D01*
X175491130Y-132609932D01*
X175489947Y-132612239D01*
X175316117Y-132974238D01*
X175314180Y-132978859D01*
X175312604Y-132983224D01*
X175276042Y-133069570D01*
X175275094Y-133071982D01*
X175138078Y-133449458D01*
X175136608Y-133454251D01*
X175135467Y-133458777D01*
X175107671Y-133548295D01*
X175106967Y-133550790D01*
X175008118Y-133940005D01*
X175007132Y-133944919D01*
X175006447Y-133949534D01*
X174987677Y-134041380D01*
X174987225Y-134043932D01*
X174927523Y-134441041D01*
X174927029Y-134446027D01*
X174926805Y-134450693D01*
X174917250Y-134543941D01*
X174917054Y-134546525D01*
X174897087Y-134947601D01*
X174897091Y-134952613D01*
X174901000Y-135028469D01*
X174901001Y-141901000D01*
X153599000Y-141901000D01*
X153599000Y-129571157D01*
X153603431Y-129537042D01*
X153603829Y-129529445D01*
X153601133Y-129419168D01*
X153601002Y-129416579D01*
X153588938Y-129259803D01*
X153588301Y-129254832D01*
X153582456Y-129222351D01*
X153580780Y-129188074D01*
X153579827Y-129180528D01*
X153557645Y-129072470D01*
X153557058Y-129069945D01*
X153505154Y-128870680D01*
X153503646Y-128865900D01*
X153487444Y-128822333D01*
X153475559Y-128776044D01*
X153473108Y-128768843D01*
X153429651Y-128667452D01*
X153428568Y-128665098D01*
X153337655Y-128480339D01*
X153335217Y-128475960D01*
X153310586Y-128436543D01*
X153289640Y-128393594D01*
X153285790Y-128387032D01*
X153222834Y-128296451D01*
X153221300Y-128294362D01*
X153095094Y-128131657D01*
X153091825Y-128127857D01*
X153059767Y-128094194D01*
X153030609Y-128056331D01*
X153025519Y-128050677D01*
X152949564Y-127978347D01*
X152948996Y-127977708D01*
X152941681Y-127970977D01*
X152940284Y-127969929D01*
X152787367Y-127838864D01*
X152783401Y-127835799D01*
X152745230Y-127809270D01*
X152709058Y-127778047D01*
X152702936Y-127773533D01*
X152609386Y-127715076D01*
X152607153Y-127713761D01*
X152427055Y-127613932D01*
X152422554Y-127611727D01*
X152379826Y-127593414D01*
X152338117Y-127570103D01*
X152331212Y-127566913D01*
X152305279Y-127557268D01*
X152305741Y-127554420D01*
X152225403Y-127527641D01*
X152224552Y-127527366D01*
X152028875Y-127466045D01*
X152024023Y-127464790D01*
X151978491Y-127455443D01*
X151932940Y-127440994D01*
X151925535Y-127439257D01*
X151816522Y-127422381D01*
X151813951Y-127422052D01*
X151609091Y-127401243D01*
X151604085Y-127400989D01*
X151393371Y-127400988D01*
X151393254Y-127401000D01*
X136571157Y-127401000D01*
X136537042Y-127396569D01*
X136529445Y-127396171D01*
X136419168Y-127398867D01*
X136416579Y-127398998D01*
X136259803Y-127411062D01*
X136254832Y-127411699D01*
X136222351Y-127417544D01*
X136188074Y-127419220D01*
X136180528Y-127420173D01*
X136072470Y-127442355D01*
X136069945Y-127442942D01*
X135870680Y-127494846D01*
X135865900Y-127496354D01*
X135822333Y-127512556D01*
X135776044Y-127524441D01*
X135768843Y-127526892D01*
X135667452Y-127570349D01*
X135665098Y-127571432D01*
X135480339Y-127662345D01*
X135475960Y-127664783D01*
X135436543Y-127689414D01*
X135393594Y-127710360D01*
X135387032Y-127714210D01*
X135296451Y-127777166D01*
X135294362Y-127778700D01*
X135131657Y-127904906D01*
X135127857Y-127908175D01*
X135094194Y-127940233D01*
X135056331Y-127969391D01*
X135050677Y-127974481D01*
X134978350Y-128050433D01*
X134976678Y-128051919D01*
X134973500Y-128055571D01*
X134973261Y-128055829D01*
X134972319Y-128056928D01*
X134968343Y-128061497D01*
X134968133Y-128061811D01*
X134838864Y-128212633D01*
X134835799Y-128216599D01*
X134809270Y-128254770D01*
X134778047Y-128290942D01*
X134773533Y-128297064D01*
X134715076Y-128390614D01*
X134713761Y-128392847D01*
X134613932Y-128572945D01*
X134611727Y-128577446D01*
X134593414Y-128620174D01*
X134570103Y-128661883D01*
X134566913Y-128668788D01*
X134527956Y-128773539D01*
X134527234Y-128775870D01*
X134466045Y-128971125D01*
X134464790Y-128975977D01*
X134455443Y-129021509D01*
X134440994Y-129067060D01*
X134439257Y-129074465D01*
X134422381Y-129183478D01*
X134422052Y-129186049D01*
X134401243Y-129390909D01*
X134400989Y-129395915D01*
X134400988Y-129606616D01*
X134401001Y-129606743D01*
X134401000Y-141901000D01*
X125099000Y-141901000D01*
X125099000Y-135091852D01*
X125101261Y-135078414D01*
X125101944Y-135070838D01*
X125103387Y-134960535D01*
X125103354Y-134957943D01*
X125090873Y-134640308D01*
X125090423Y-134635315D01*
X125088995Y-134625224D01*
X125083181Y-134548774D01*
X125082916Y-134546196D01*
X125031544Y-134147921D01*
X125030651Y-134142987D01*
X125029593Y-134138459D01*
X125013232Y-134046143D01*
X125012713Y-134043604D01*
X124922038Y-133652403D01*
X124920661Y-133647586D01*
X124919156Y-133643175D01*
X124893708Y-133552947D01*
X124892940Y-133550472D01*
X124763858Y-133170209D01*
X124762009Y-133165550D01*
X124760072Y-133161309D01*
X124725790Y-133074059D01*
X124724779Y-133071673D01*
X124558568Y-132706110D01*
X124556264Y-132701656D01*
X124553923Y-132697644D01*
X124511139Y-132614217D01*
X124509897Y-132611942D01*
X124308200Y-132264697D01*
X124305467Y-132260497D01*
X124302734Y-132256727D01*
X124251879Y-132177968D01*
X124250417Y-132175829D01*
X124015230Y-131850333D01*
X124012094Y-131846425D01*
X124008996Y-131842942D01*
X123950574Y-131769626D01*
X123948906Y-131767642D01*
X123682554Y-131467115D01*
X123679047Y-131463539D01*
X123675612Y-131460374D01*
X123610199Y-131393228D01*
X123608343Y-131391420D01*
X123313459Y-131118832D01*
X123309612Y-131115621D01*
X123305894Y-131112824D01*
X123234126Y-131052497D01*
X123232099Y-131050882D01*
X122911600Y-130808930D01*
X122907451Y-130806115D01*
X122903456Y-130803691D01*
X122826069Y-130750803D01*
X122823892Y-130749397D01*
X122480949Y-130540474D01*
X122476546Y-130538088D01*
X122472335Y-130536075D01*
X122390068Y-130491129D01*
X122387762Y-130489946D01*
X122025760Y-130316115D01*
X122021134Y-130314175D01*
X122016758Y-130312596D01*
X121930433Y-130276042D01*
X121928020Y-130275094D01*
X121550547Y-130138077D01*
X121545758Y-130136609D01*
X121541225Y-130135465D01*
X121451705Y-130107669D01*
X121449210Y-130106965D01*
X121059995Y-130008116D01*
X121055081Y-130007130D01*
X121050466Y-130006445D01*
X120958620Y-129987675D01*
X120956068Y-129987223D01*
X120558959Y-129927521D01*
X120553973Y-129927027D01*
X120549307Y-129926803D01*
X120456059Y-129917248D01*
X120453475Y-129917052D01*
X120052399Y-129897085D01*
X120047387Y-129897089D01*
X119971453Y-129901002D01*
X106978018Y-129901000D01*
X106397196Y-129053569D01*
X105651577Y-127902182D01*
X104936371Y-126731698D01*
X104252045Y-125542884D01*
X103599110Y-124336636D01*
X102977961Y-123113680D01*
X102389025Y-121874859D01*
X101832721Y-120621048D01*
X101309421Y-119353083D01*
X100819508Y-118071898D01*
X100363288Y-116778293D01*
X99941088Y-115473195D01*
X99553208Y-114157529D01*
X99199897Y-112832148D01*
X98881405Y-111497984D01*
X98597926Y-110155843D01*
X98349697Y-108806854D01*
X98136861Y-107451787D01*
X97959569Y-106091623D01*
X97817941Y-104727265D01*
X97712075Y-103359659D01*
X97642048Y-101989797D01*
X97607802Y-100614517D01*
X97604200Y-100004040D01*
X97606743Y-99809698D01*
X105398532Y-99809698D01*
X105401496Y-100092754D01*
X105404075Y-100338982D01*
X105404253Y-100342693D01*
X105449465Y-100870071D01*
X105449922Y-100873758D01*
X105534549Y-101396262D01*
X105535280Y-101399905D01*
X105658845Y-101914592D01*
X105659847Y-101918170D01*
X105821656Y-102422145D01*
X105822924Y-102425637D01*
X106022064Y-102916060D01*
X106023590Y-102919448D01*
X106258941Y-103393559D01*
X106260716Y-103396822D01*
X106530953Y-103851953D01*
X106532968Y-103855074D01*
X106836571Y-104288662D01*
X106838814Y-104291623D01*
X107174070Y-104701227D01*
X107176530Y-104704012D01*
X107541554Y-105087325D01*
X107544215Y-105089917D01*
X107936952Y-105444783D01*
X107939800Y-105447169D01*
X108358040Y-105771588D01*
X108361059Y-105773753D01*
X108802445Y-106065901D01*
X108805618Y-106067834D01*
X109267667Y-106326064D01*
X109270976Y-106327753D01*
X109751085Y-106550613D01*
X109754512Y-106552049D01*
X110249980Y-106738283D01*
X110253504Y-106739459D01*
X110761541Y-106888020D01*
X110765144Y-106888928D01*
X111282890Y-106998979D01*
X111286550Y-106999614D01*
X111811090Y-107070535D01*
X111814788Y-107070895D01*
X112343169Y-107102286D01*
X112346884Y-107102367D01*
X112876132Y-107094053D01*
X112879842Y-107093855D01*
X113406976Y-107045882D01*
X113410661Y-107045407D01*
X113932714Y-106958045D01*
X113936353Y-106957294D01*
X114450386Y-106831036D01*
X114453958Y-106830015D01*
X114957079Y-106665570D01*
X114960564Y-106664284D01*
X115449938Y-106462579D01*
X115453318Y-106461035D01*
X115926190Y-106223205D01*
X115929444Y-106221412D01*
X116383154Y-105948796D01*
X116386265Y-105946764D01*
X116818257Y-105640897D01*
X116821207Y-105638638D01*
X117229048Y-105301242D01*
X117231820Y-105298768D01*
X117613217Y-104931740D01*
X117615796Y-104929066D01*
X117968600Y-104534476D01*
X117970971Y-104531615D01*
X118293196Y-104111684D01*
X118295345Y-104108653D01*
X118585178Y-103665743D01*
X118587094Y-103662560D01*
X118842902Y-103199166D01*
X118844574Y-103195848D01*
X119064917Y-102714578D01*
X119066336Y-102711144D01*
X119249973Y-102214707D01*
X119251130Y-102211177D01*
X119397028Y-101702369D01*
X119397917Y-101698762D01*
X119505256Y-101180447D01*
X119505872Y-101176783D01*
X119574131Y-100651214D01*
X119574525Y-100646175D01*
X119597160Y-99809698D01*
X180398532Y-99809698D01*
X180401496Y-100092754D01*
X180404075Y-100338982D01*
X180404253Y-100342693D01*
X180449465Y-100870071D01*
X180449922Y-100873758D01*
X180534549Y-101396262D01*
X180535280Y-101399905D01*
X180658845Y-101914592D01*
X180659847Y-101918170D01*
X180821656Y-102422145D01*
X180822924Y-102425637D01*
X181022064Y-102916060D01*
X181023590Y-102919448D01*
X181258941Y-103393559D01*
X181260716Y-103396822D01*
X181530953Y-103851953D01*
X181532968Y-103855074D01*
X181836571Y-104288662D01*
X181838814Y-104291623D01*
X182174070Y-104701227D01*
X182176530Y-104704012D01*
X182541554Y-105087325D01*
X182544215Y-105089917D01*
X182936952Y-105444783D01*
X182939800Y-105447169D01*
X183358040Y-105771588D01*
X183361059Y-105773753D01*
X183802445Y-106065901D01*
X183805618Y-106067834D01*
X184267667Y-106326064D01*
X184270976Y-106327753D01*
X184751085Y-106550613D01*
X184754512Y-106552049D01*
X185249980Y-106738283D01*
X185253504Y-106739459D01*
X185761541Y-106888020D01*
X185765144Y-106888928D01*
X186282890Y-106998979D01*
X186286550Y-106999614D01*
X186811090Y-107070535D01*
X186814788Y-107070895D01*
X187343169Y-107102286D01*
X187346884Y-107102367D01*
X187876132Y-107094053D01*
X187879842Y-107093855D01*
X188406976Y-107045882D01*
X188410661Y-107045407D01*
X188932714Y-106958045D01*
X188936353Y-106957294D01*
X189450386Y-106831036D01*
X189453958Y-106830015D01*
X189957079Y-106665570D01*
X189960564Y-106664284D01*
X190449938Y-106462579D01*
X190453318Y-106461035D01*
X190926190Y-106223205D01*
X190929444Y-106221412D01*
X191383154Y-105948796D01*
X191386265Y-105946764D01*
X191818257Y-105640897D01*
X191821207Y-105638638D01*
X192229048Y-105301242D01*
X192231820Y-105298768D01*
X192613217Y-104931740D01*
X192615796Y-104929066D01*
X192968600Y-104534476D01*
X192970971Y-104531615D01*
X193293196Y-104111684D01*
X193295345Y-104108653D01*
X193585178Y-103665743D01*
X193587094Y-103662560D01*
X193842902Y-103199166D01*
X193844574Y-103195848D01*
X194064917Y-102714578D01*
X194066336Y-102711144D01*
X194249973Y-102214707D01*
X194251130Y-102211177D01*
X194397028Y-101702369D01*
X194397917Y-101698762D01*
X194505256Y-101180447D01*
X194505872Y-101176783D01*
X194574131Y-100651214D01*
X194574525Y-100646175D01*
X194599118Y-99737352D01*
X194598997Y-99732299D01*
X194559259Y-99203809D01*
X194558842Y-99200117D01*
X194479691Y-98676755D01*
X194478998Y-98673105D01*
X194360829Y-98157151D01*
X194359864Y-98153564D01*
X194203342Y-97647922D01*
X194202111Y-97644417D01*
X194008117Y-97151936D01*
X194006627Y-97148533D01*
X193776253Y-96671982D01*
X193774512Y-96668700D01*
X193509056Y-96210764D01*
X193507074Y-96207622D01*
X193208030Y-95770879D01*
X193205817Y-95767895D01*
X192874868Y-95354803D01*
X192872438Y-95351993D01*
X192511447Y-94964878D01*
X192508813Y-94962257D01*
X192119814Y-94603299D01*
X192116990Y-94600883D01*
X191702172Y-94272102D01*
X191699176Y-94269905D01*
X191260873Y-93973153D01*
X191257721Y-93971186D01*
X190798401Y-93708131D01*
X190795110Y-93706407D01*
X190317360Y-93478532D01*
X190313949Y-93477060D01*
X189820459Y-93285647D01*
X189816947Y-93284434D01*
X189310493Y-93130562D01*
X189306900Y-93129616D01*
X188790335Y-93014150D01*
X188786681Y-93013476D01*
X188262913Y-92937067D01*
X188259219Y-92936669D01*
X187731196Y-92899746D01*
X187727482Y-92899626D01*
X187198177Y-92902397D01*
X187194465Y-92902556D01*
X186666858Y-92945007D01*
X186663168Y-92945444D01*
X186140228Y-93027333D01*
X186136582Y-93028045D01*
X185621254Y-93148915D01*
X185617671Y-93149898D01*
X185112856Y-93309066D01*
X185109357Y-93310315D01*
X184617899Y-93506885D01*
X184614503Y-93508393D01*
X184139166Y-93741257D01*
X184135893Y-93743016D01*
X183679353Y-94010866D01*
X183676222Y-94012865D01*
X183241050Y-94314192D01*
X183238077Y-94316420D01*
X182826724Y-94649528D01*
X182823926Y-94651972D01*
X182438707Y-95014985D01*
X182436100Y-95017632D01*
X182079184Y-95408507D01*
X182076784Y-95411342D01*
X181750178Y-95827876D01*
X181747997Y-95830884D01*
X181453543Y-96270736D01*
X181451594Y-96273898D01*
X181190947Y-96734588D01*
X181189240Y-96737888D01*
X180963870Y-97216825D01*
X180962415Y-97220243D01*
X180773589Y-97714729D01*
X180772395Y-97718248D01*
X180621176Y-98225500D01*
X180620249Y-98229098D01*
X180507490Y-98746260D01*
X180506835Y-98749917D01*
X180433169Y-99274078D01*
X180432790Y-99277774D01*
X180398632Y-99805984D01*
X180398532Y-99809698D01*
X119597160Y-99809698D01*
X119599118Y-99737352D01*
X119598997Y-99732299D01*
X119559259Y-99203809D01*
X119558842Y-99200117D01*
X119479691Y-98676755D01*
X119478998Y-98673105D01*
X119360829Y-98157151D01*
X119359864Y-98153564D01*
X119203342Y-97647922D01*
X119202111Y-97644417D01*
X119008117Y-97151936D01*
X119006627Y-97148533D01*
X118776253Y-96671982D01*
X118774512Y-96668700D01*
X118509056Y-96210764D01*
X118507074Y-96207622D01*
X118208030Y-95770879D01*
X118205817Y-95767895D01*
X117874868Y-95354803D01*
X117872438Y-95351993D01*
X117511447Y-94964878D01*
X117508813Y-94962257D01*
X117119814Y-94603299D01*
X117116990Y-94600883D01*
X116702172Y-94272102D01*
X116699176Y-94269905D01*
X116260873Y-93973153D01*
X116257721Y-93971186D01*
X115798401Y-93708131D01*
X115795110Y-93706407D01*
X115317360Y-93478532D01*
X115313949Y-93477060D01*
X114820459Y-93285647D01*
X114816947Y-93284434D01*
X114310493Y-93130562D01*
X114306900Y-93129616D01*
X113790335Y-93014150D01*
X113786681Y-93013476D01*
X113262913Y-92937067D01*
X113259219Y-92936669D01*
X112731196Y-92899746D01*
X112727482Y-92899626D01*
X112198177Y-92902397D01*
X112194465Y-92902556D01*
X111666858Y-92945007D01*
X111663168Y-92945444D01*
X111140228Y-93027333D01*
X111136582Y-93028045D01*
X110621254Y-93148915D01*
X110617671Y-93149898D01*
X110112856Y-93309066D01*
X110109357Y-93310315D01*
X109617899Y-93506885D01*
X109614503Y-93508393D01*
X109139166Y-93741257D01*
X109135893Y-93743016D01*
X108679353Y-94010866D01*
X108676222Y-94012865D01*
X108241050Y-94314192D01*
X108238077Y-94316420D01*
X107826724Y-94649528D01*
X107823926Y-94651972D01*
X107438707Y-95014985D01*
X107436100Y-95017632D01*
X107079184Y-95408507D01*
X107076784Y-95411342D01*
X106750178Y-95827876D01*
X106747997Y-95830884D01*
X106453543Y-96270736D01*
X106451594Y-96273898D01*
X106190947Y-96734588D01*
X106189240Y-96737888D01*
X105963870Y-97216825D01*
X105962415Y-97220243D01*
X105773589Y-97714729D01*
X105772395Y-97718248D01*
X105621176Y-98225500D01*
X105620249Y-98229098D01*
X105507490Y-98746260D01*
X105506835Y-98749917D01*
X105433169Y-99274078D01*
X105432790Y-99277774D01*
X105398632Y-99805984D01*
X105398532Y-99809698D01*
X97606743Y-99809698D01*
X97622207Y-98628426D01*
X97676059Y-97257813D01*
X97765770Y-95889078D01*
X97891280Y-94523169D01*
X98052510Y-93160947D01*
X98249327Y-91803526D01*
X98481624Y-90451629D01*
X98749223Y-89106313D01*
X99051951Y-87768452D01*
X99389586Y-86439006D01*
X99761924Y-85118799D01*
X100168688Y-83808802D01*
X100609581Y-82509975D01*
X101084360Y-81223029D01*
X101592640Y-79949015D01*
X102134099Y-78688738D01*
X102708372Y-77443042D01*
X103315041Y-76212837D01*
X103953732Y-74998887D01*
X104623954Y-73802121D01*
X105325268Y-72623317D01*
X106057224Y-71463238D01*
X106821511Y-70319399D01*
X106974911Y-70099000D01*
X119908129Y-70099000D01*
X119921585Y-70101264D01*
X119929161Y-70101947D01*
X120039463Y-70103390D01*
X120042055Y-70103357D01*
X120359689Y-70090876D01*
X120364679Y-70090427D01*
X120374773Y-70089000D01*
X120451227Y-70083184D01*
X120453806Y-70082919D01*
X120852081Y-70031546D01*
X120857017Y-70030653D01*
X120861554Y-70029592D01*
X120953856Y-70013234D01*
X120956396Y-70012715D01*
X121347595Y-69922040D01*
X121352410Y-69920664D01*
X121356805Y-69919164D01*
X121447054Y-69893710D01*
X121449530Y-69892942D01*
X121829792Y-69763859D01*
X121834454Y-69762008D01*
X121838668Y-69760083D01*
X121925941Y-69725792D01*
X121928327Y-69724781D01*
X122293890Y-69558570D01*
X122298344Y-69556266D01*
X122302356Y-69553925D01*
X122385783Y-69511141D01*
X122388058Y-69509899D01*
X122735303Y-69308203D01*
X122739505Y-69305469D01*
X122743285Y-69302728D01*
X122822031Y-69251882D01*
X122824170Y-69250420D01*
X123149668Y-69015232D01*
X123153580Y-69012093D01*
X123157058Y-69008999D01*
X123230376Y-68950575D01*
X123232360Y-68948907D01*
X123532889Y-68682553D01*
X123536470Y-68679039D01*
X123539627Y-68675612D01*
X123606770Y-68610204D01*
X123608579Y-68608347D01*
X123881166Y-68313465D01*
X123884375Y-68309621D01*
X123887174Y-68305900D01*
X123947505Y-68234127D01*
X123949120Y-68232100D01*
X124191071Y-67911601D01*
X124193883Y-67907455D01*
X124196293Y-67903483D01*
X124249199Y-67826071D01*
X124250604Y-67823894D01*
X124459528Y-67480949D01*
X124461914Y-67476545D01*
X124463928Y-67472333D01*
X124508872Y-67390069D01*
X124510054Y-67387764D01*
X124683885Y-67025763D01*
X124685824Y-67021139D01*
X124687400Y-67016774D01*
X124723961Y-66930430D01*
X124724909Y-66928018D01*
X124861925Y-66550541D01*
X124863395Y-66545749D01*
X124864535Y-66541229D01*
X124892332Y-66451705D01*
X124893036Y-66449210D01*
X124991885Y-66059994D01*
X124992871Y-66055080D01*
X124993556Y-66050465D01*
X125012326Y-65958619D01*
X125012778Y-65956067D01*
X125072480Y-65558958D01*
X125072973Y-65553973D01*
X125073198Y-65549313D01*
X125082753Y-65456058D01*
X125082949Y-65453474D01*
X125102916Y-65052398D01*
X125102912Y-65047386D01*
X125099000Y-64971472D01*
X125099000Y-58099000D01*
X174901001Y-58099000D01*
X174901000Y-64908141D01*
%TA.AperFunction,Conductor*%
G36*
X174901000Y-64908141D02*
G01*
X174898738Y-64921586D01*
X174898055Y-64929161D01*
X174896612Y-65039463D01*
X174896645Y-65042055D01*
X174909126Y-65359690D01*
X174909576Y-65364683D01*
X174911003Y-65374774D01*
X174916818Y-65451225D01*
X174917083Y-65453803D01*
X174968455Y-65852079D01*
X174969348Y-65857015D01*
X174970408Y-65861550D01*
X174986767Y-65953856D01*
X174987286Y-65956396D01*
X175077962Y-66347598D01*
X175079340Y-66352418D01*
X175080844Y-66356825D01*
X175106292Y-66447056D01*
X175107060Y-66449531D01*
X175236142Y-66829792D01*
X175237991Y-66834449D01*
X175239927Y-66838688D01*
X175274209Y-66925939D01*
X175275220Y-66928325D01*
X175441430Y-67293888D01*
X175443734Y-67298342D01*
X175446079Y-67302362D01*
X175488860Y-67385783D01*
X175490102Y-67388058D01*
X175691797Y-67735301D01*
X175694527Y-67739497D01*
X175697262Y-67743269D01*
X175748121Y-67822034D01*
X175749583Y-67824174D01*
X175984770Y-68149668D01*
X175987904Y-68153573D01*
X175991002Y-68157057D01*
X176049426Y-68230373D01*
X176051093Y-68232356D01*
X176317444Y-68532884D01*
X176320951Y-68536460D01*
X176324386Y-68539625D01*
X176389800Y-68606772D01*
X176391656Y-68608580D01*
X176686538Y-68881167D01*
X176690382Y-68884376D01*
X176694117Y-68887187D01*
X176765874Y-68947502D01*
X176767900Y-68949117D01*
X177088399Y-69191070D01*
X177092549Y-69193885D01*
X177096525Y-69196298D01*
X177173930Y-69249198D01*
X177176107Y-69250604D01*
X177519051Y-69459527D01*
X177523455Y-69461913D01*
X177527662Y-69463925D01*
X177609932Y-69508872D01*
X177612238Y-69510055D01*
X177974235Y-69683884D01*
X177978854Y-69685821D01*
X177983248Y-69687408D01*
X178069568Y-69723959D01*
X178071980Y-69724907D01*
X178449454Y-69861924D01*
X178454245Y-69863393D01*
X178458767Y-69864534D01*
X178548295Y-69892332D01*
X178550790Y-69893036D01*
X178940006Y-69991885D01*
X178944920Y-69992871D01*
X178949535Y-69993556D01*
X179041381Y-70012326D01*
X179043933Y-70012778D01*
X179441042Y-70072480D01*
X179446027Y-70072973D01*
X179450687Y-70073198D01*
X179543942Y-70082753D01*
X179546526Y-70082949D01*
X179947602Y-70102916D01*
X179952614Y-70102912D01*
X180028529Y-70099000D01*
X193021981Y-70098998D01*
X193602805Y-70946431D01*
X194348423Y-72097818D01*
X195063612Y-73268274D01*
X195747946Y-74457099D01*
X196400882Y-75663349D01*
X197022047Y-76886335D01*
X197610981Y-78125154D01*
X198167279Y-79378952D01*
X198690572Y-80646898D01*
X199180497Y-81928115D01*
X199636708Y-83221696D01*
X200058915Y-84526815D01*
X200446802Y-85842506D01*
X200800101Y-87167842D01*
X201118595Y-88502016D01*
X201402073Y-89844149D01*
X201650303Y-91193146D01*
X201863139Y-92548212D01*
X202040434Y-93908409D01*
X202182059Y-95272739D01*
X202287925Y-96640346D01*
X202357952Y-98010203D01*
X202392198Y-99385483D01*
X202395800Y-99995960D01*
X202377793Y-101371572D01*
X202323941Y-102742187D01*
X202234230Y-104110925D01*
X202108720Y-105476835D01*
X201947491Y-106839049D01*
X201750673Y-108196474D01*
X201518376Y-109548371D01*
X201250773Y-110893702D01*
X200948049Y-112231548D01*
X200610414Y-113560993D01*
X200238073Y-114881212D01*
X199831312Y-116191198D01*
X199390419Y-117490025D01*
X198915639Y-118776971D01*
X198407366Y-120050973D01*
X197865901Y-121311262D01*
X197291638Y-122556937D01*
X196684952Y-123787177D01*
X196046269Y-125001113D01*
X195376063Y-126197852D01*
X194674732Y-127376683D01*
X193942776Y-128536762D01*
X193178504Y-129680576D01*
X193025088Y-129901000D01*
X180091876Y-129901002D01*
X180078414Y-129898737D01*
X180070838Y-129898054D01*
X179960535Y-129896611D01*
X179957943Y-129896644D01*
X179640310Y-129909125D01*
X179635319Y-129909574D01*
X179625224Y-129911002D01*
X179548771Y-129916817D01*
X179546192Y-129917082D01*
X179147920Y-129968455D01*
X179142987Y-129969347D01*
X179138446Y-129970408D01*
X179046143Y-129986767D01*
X179043604Y-129987286D01*
X178652403Y-130077961D01*
X178647586Y-130079338D01*
X178643175Y-130080843D01*
X178552947Y-130106291D01*
X178550472Y-130107059D01*
X178170209Y-130236141D01*
X178165550Y-130237990D01*
X178161309Y-130239927D01*
X178074059Y-130274209D01*
X178071673Y-130275220D01*
X177706111Y-130441430D01*
X177701659Y-130443734D01*
X177697639Y-130446078D01*
X177614215Y-130488860D01*
X177611940Y-130490103D01*
X177264697Y-130691799D01*
X177260496Y-130694532D01*
X177256716Y-130697273D01*
X177177970Y-130748119D01*
X177175831Y-130749581D01*
X176850332Y-130984769D01*
X176846420Y-130987909D01*
X176842942Y-130991003D01*
X176769625Y-131049428D01*
X176767641Y-131051095D01*
X176467112Y-131317448D01*
X176463531Y-131320961D01*
X176460370Y-131324393D01*
X176393229Y-131389800D01*
X176391421Y-131391656D01*
X176118834Y-131686539D01*
X176115624Y-131690385D01*
X176112827Y-131694102D01*
X176052498Y-131765875D01*
X176050883Y-131767901D01*
X175808931Y-132088399D01*
X175806120Y-132092543D01*
X175803707Y-132096520D01*
X175750804Y-132173929D01*
X175749399Y-132176106D01*
X175540474Y-132519052D01*
X175538085Y-132523462D01*
X175536079Y-132527660D01*
X175491130Y-132609932D01*
X175489947Y-132612239D01*
X175316117Y-132974238D01*
X175314180Y-132978859D01*
X175312604Y-132983224D01*
X175276042Y-133069570D01*
X175275094Y-133071982D01*
X175138078Y-133449458D01*
X175136608Y-133454251D01*
X175135467Y-133458777D01*
X175107671Y-133548295D01*
X175106967Y-133550790D01*
X175008118Y-133940005D01*
X175007132Y-133944919D01*
X175006447Y-133949534D01*
X174987677Y-134041380D01*
X174987225Y-134043932D01*
X174927523Y-134441041D01*
X174927029Y-134446027D01*
X174926805Y-134450693D01*
X174917250Y-134543941D01*
X174917054Y-134546525D01*
X174897087Y-134947601D01*
X174897091Y-134952613D01*
X174901000Y-135028469D01*
X174901001Y-141901000D01*
X153599000Y-141901000D01*
X153599000Y-129571157D01*
X153603431Y-129537042D01*
X153603829Y-129529445D01*
X153601133Y-129419168D01*
X153601002Y-129416579D01*
X153588938Y-129259803D01*
X153588301Y-129254832D01*
X153582456Y-129222351D01*
X153580780Y-129188074D01*
X153579827Y-129180528D01*
X153557645Y-129072470D01*
X153557058Y-129069945D01*
X153505154Y-128870680D01*
X153503646Y-128865900D01*
X153487444Y-128822333D01*
X153475559Y-128776044D01*
X153473108Y-128768843D01*
X153429651Y-128667452D01*
X153428568Y-128665098D01*
X153337655Y-128480339D01*
X153335217Y-128475960D01*
X153310586Y-128436543D01*
X153289640Y-128393594D01*
X153285790Y-128387032D01*
X153222834Y-128296451D01*
X153221300Y-128294362D01*
X153095094Y-128131657D01*
X153091825Y-128127857D01*
X153059767Y-128094194D01*
X153030609Y-128056331D01*
X153025519Y-128050677D01*
X152949564Y-127978347D01*
X152948996Y-127977708D01*
X152941681Y-127970977D01*
X152940284Y-127969929D01*
X152787367Y-127838864D01*
X152783401Y-127835799D01*
X152745230Y-127809270D01*
X152709058Y-127778047D01*
X152702936Y-127773533D01*
X152609386Y-127715076D01*
X152607153Y-127713761D01*
X152427055Y-127613932D01*
X152422554Y-127611727D01*
X152379826Y-127593414D01*
X152338117Y-127570103D01*
X152331212Y-127566913D01*
X152305279Y-127557268D01*
X152305741Y-127554420D01*
X152225403Y-127527641D01*
X152224552Y-127527366D01*
X152028875Y-127466045D01*
X152024023Y-127464790D01*
X151978491Y-127455443D01*
X151932940Y-127440994D01*
X151925535Y-127439257D01*
X151816522Y-127422381D01*
X151813951Y-127422052D01*
X151609091Y-127401243D01*
X151604085Y-127400989D01*
X151393371Y-127400988D01*
X151393254Y-127401000D01*
X136571157Y-127401000D01*
X136537042Y-127396569D01*
X136529445Y-127396171D01*
X136419168Y-127398867D01*
X136416579Y-127398998D01*
X136259803Y-127411062D01*
X136254832Y-127411699D01*
X136222351Y-127417544D01*
X136188074Y-127419220D01*
X136180528Y-127420173D01*
X136072470Y-127442355D01*
X136069945Y-127442942D01*
X135870680Y-127494846D01*
X135865900Y-127496354D01*
X135822333Y-127512556D01*
X135776044Y-127524441D01*
X135768843Y-127526892D01*
X135667452Y-127570349D01*
X135665098Y-127571432D01*
X135480339Y-127662345D01*
X135475960Y-127664783D01*
X135436543Y-127689414D01*
X135393594Y-127710360D01*
X135387032Y-127714210D01*
X135296451Y-127777166D01*
X135294362Y-127778700D01*
X135131657Y-127904906D01*
X135127857Y-127908175D01*
X135094194Y-127940233D01*
X135056331Y-127969391D01*
X135050677Y-127974481D01*
X134978350Y-128050433D01*
X134976678Y-128051919D01*
X134973500Y-128055571D01*
X134973261Y-128055829D01*
X134972319Y-128056928D01*
X134968343Y-128061497D01*
X134968133Y-128061811D01*
X134838864Y-128212633D01*
X134835799Y-128216599D01*
X134809270Y-128254770D01*
X134778047Y-128290942D01*
X134773533Y-128297064D01*
X134715076Y-128390614D01*
X134713761Y-128392847D01*
X134613932Y-128572945D01*
X134611727Y-128577446D01*
X134593414Y-128620174D01*
X134570103Y-128661883D01*
X134566913Y-128668788D01*
X134527956Y-128773539D01*
X134527234Y-128775870D01*
X134466045Y-128971125D01*
X134464790Y-128975977D01*
X134455443Y-129021509D01*
X134440994Y-129067060D01*
X134439257Y-129074465D01*
X134422381Y-129183478D01*
X134422052Y-129186049D01*
X134401243Y-129390909D01*
X134400989Y-129395915D01*
X134400988Y-129606616D01*
X134401001Y-129606743D01*
X134401000Y-141901000D01*
X125099000Y-141901000D01*
X125099000Y-135091852D01*
X125101261Y-135078414D01*
X125101944Y-135070838D01*
X125103387Y-134960535D01*
X125103354Y-134957943D01*
X125090873Y-134640308D01*
X125090423Y-134635315D01*
X125088995Y-134625224D01*
X125083181Y-134548774D01*
X125082916Y-134546196D01*
X125031544Y-134147921D01*
X125030651Y-134142987D01*
X125029593Y-134138459D01*
X125013232Y-134046143D01*
X125012713Y-134043604D01*
X124922038Y-133652403D01*
X124920661Y-133647586D01*
X124919156Y-133643175D01*
X124893708Y-133552947D01*
X124892940Y-133550472D01*
X124763858Y-133170209D01*
X124762009Y-133165550D01*
X124760072Y-133161309D01*
X124725790Y-133074059D01*
X124724779Y-133071673D01*
X124558568Y-132706110D01*
X124556264Y-132701656D01*
X124553923Y-132697644D01*
X124511139Y-132614217D01*
X124509897Y-132611942D01*
X124308200Y-132264697D01*
X124305467Y-132260497D01*
X124302734Y-132256727D01*
X124251879Y-132177968D01*
X124250417Y-132175829D01*
X124015230Y-131850333D01*
X124012094Y-131846425D01*
X124008996Y-131842942D01*
X123950574Y-131769626D01*
X123948906Y-131767642D01*
X123682554Y-131467115D01*
X123679047Y-131463539D01*
X123675612Y-131460374D01*
X123610199Y-131393228D01*
X123608343Y-131391420D01*
X123313459Y-131118832D01*
X123309612Y-131115621D01*
X123305894Y-131112824D01*
X123234126Y-131052497D01*
X123232099Y-131050882D01*
X122911600Y-130808930D01*
X122907451Y-130806115D01*
X122903456Y-130803691D01*
X122826069Y-130750803D01*
X122823892Y-130749397D01*
X122480949Y-130540474D01*
X122476546Y-130538088D01*
X122472335Y-130536075D01*
X122390068Y-130491129D01*
X122387762Y-130489946D01*
X122025760Y-130316115D01*
X122021134Y-130314175D01*
X122016758Y-130312596D01*
X121930433Y-130276042D01*
X121928020Y-130275094D01*
X121550547Y-130138077D01*
X121545758Y-130136609D01*
X121541225Y-130135465D01*
X121451705Y-130107669D01*
X121449210Y-130106965D01*
X121059995Y-130008116D01*
X121055081Y-130007130D01*
X121050466Y-130006445D01*
X120958620Y-129987675D01*
X120956068Y-129987223D01*
X120558959Y-129927521D01*
X120553973Y-129927027D01*
X120549307Y-129926803D01*
X120456059Y-129917248D01*
X120453475Y-129917052D01*
X120052399Y-129897085D01*
X120047387Y-129897089D01*
X119971453Y-129901002D01*
X106978018Y-129901000D01*
X106397196Y-129053569D01*
X105651577Y-127902182D01*
X104936371Y-126731698D01*
X104252045Y-125542884D01*
X103599110Y-124336636D01*
X102977961Y-123113680D01*
X102389025Y-121874859D01*
X101832721Y-120621048D01*
X101309421Y-119353083D01*
X100819508Y-118071898D01*
X100363288Y-116778293D01*
X99941088Y-115473195D01*
X99553208Y-114157529D01*
X99199897Y-112832148D01*
X98881405Y-111497984D01*
X98597926Y-110155843D01*
X98349697Y-108806854D01*
X98136861Y-107451787D01*
X97959569Y-106091623D01*
X97817941Y-104727265D01*
X97712075Y-103359659D01*
X97642048Y-101989797D01*
X97607802Y-100614517D01*
X97604200Y-100004040D01*
X97606743Y-99809698D01*
X105398532Y-99809698D01*
X105401496Y-100092754D01*
X105404075Y-100338982D01*
X105404253Y-100342693D01*
X105449465Y-100870071D01*
X105449922Y-100873758D01*
X105534549Y-101396262D01*
X105535280Y-101399905D01*
X105658845Y-101914592D01*
X105659847Y-101918170D01*
X105821656Y-102422145D01*
X105822924Y-102425637D01*
X106022064Y-102916060D01*
X106023590Y-102919448D01*
X106258941Y-103393559D01*
X106260716Y-103396822D01*
X106530953Y-103851953D01*
X106532968Y-103855074D01*
X106836571Y-104288662D01*
X106838814Y-104291623D01*
X107174070Y-104701227D01*
X107176530Y-104704012D01*
X107541554Y-105087325D01*
X107544215Y-105089917D01*
X107936952Y-105444783D01*
X107939800Y-105447169D01*
X108358040Y-105771588D01*
X108361059Y-105773753D01*
X108802445Y-106065901D01*
X108805618Y-106067834D01*
X109267667Y-106326064D01*
X109270976Y-106327753D01*
X109751085Y-106550613D01*
X109754512Y-106552049D01*
X110249980Y-106738283D01*
X110253504Y-106739459D01*
X110761541Y-106888020D01*
X110765144Y-106888928D01*
X111282890Y-106998979D01*
X111286550Y-106999614D01*
X111811090Y-107070535D01*
X111814788Y-107070895D01*
X112343169Y-107102286D01*
X112346884Y-107102367D01*
X112876132Y-107094053D01*
X112879842Y-107093855D01*
X113406976Y-107045882D01*
X113410661Y-107045407D01*
X113932714Y-106958045D01*
X113936353Y-106957294D01*
X114450386Y-106831036D01*
X114453958Y-106830015D01*
X114957079Y-106665570D01*
X114960564Y-106664284D01*
X115449938Y-106462579D01*
X115453318Y-106461035D01*
X115926190Y-106223205D01*
X115929444Y-106221412D01*
X116383154Y-105948796D01*
X116386265Y-105946764D01*
X116818257Y-105640897D01*
X116821207Y-105638638D01*
X117229048Y-105301242D01*
X117231820Y-105298768D01*
X117613217Y-104931740D01*
X117615796Y-104929066D01*
X117968600Y-104534476D01*
X117970971Y-104531615D01*
X118293196Y-104111684D01*
X118295345Y-104108653D01*
X118585178Y-103665743D01*
X118587094Y-103662560D01*
X118842902Y-103199166D01*
X118844574Y-103195848D01*
X119064917Y-102714578D01*
X119066336Y-102711144D01*
X119249973Y-102214707D01*
X119251130Y-102211177D01*
X119397028Y-101702369D01*
X119397917Y-101698762D01*
X119505256Y-101180447D01*
X119505872Y-101176783D01*
X119574131Y-100651214D01*
X119574525Y-100646175D01*
X119597160Y-99809698D01*
X180398532Y-99809698D01*
X180401496Y-100092754D01*
X180404075Y-100338982D01*
X180404253Y-100342693D01*
X180449465Y-100870071D01*
X180449922Y-100873758D01*
X180534549Y-101396262D01*
X180535280Y-101399905D01*
X180658845Y-101914592D01*
X180659847Y-101918170D01*
X180821656Y-102422145D01*
X180822924Y-102425637D01*
X181022064Y-102916060D01*
X181023590Y-102919448D01*
X181258941Y-103393559D01*
X181260716Y-103396822D01*
X181530953Y-103851953D01*
X181532968Y-103855074D01*
X181836571Y-104288662D01*
X181838814Y-104291623D01*
X182174070Y-104701227D01*
X182176530Y-104704012D01*
X182541554Y-105087325D01*
X182544215Y-105089917D01*
X182936952Y-105444783D01*
X182939800Y-105447169D01*
X183358040Y-105771588D01*
X183361059Y-105773753D01*
X183802445Y-106065901D01*
X183805618Y-106067834D01*
X184267667Y-106326064D01*
X184270976Y-106327753D01*
X184751085Y-106550613D01*
X184754512Y-106552049D01*
X185249980Y-106738283D01*
X185253504Y-106739459D01*
X185761541Y-106888020D01*
X185765144Y-106888928D01*
X186282890Y-106998979D01*
X186286550Y-106999614D01*
X186811090Y-107070535D01*
X186814788Y-107070895D01*
X187343169Y-107102286D01*
X187346884Y-107102367D01*
X187876132Y-107094053D01*
X187879842Y-107093855D01*
X188406976Y-107045882D01*
X188410661Y-107045407D01*
X188932714Y-106958045D01*
X188936353Y-106957294D01*
X189450386Y-106831036D01*
X189453958Y-106830015D01*
X189957079Y-106665570D01*
X189960564Y-106664284D01*
X190449938Y-106462579D01*
X190453318Y-106461035D01*
X190926190Y-106223205D01*
X190929444Y-106221412D01*
X191383154Y-105948796D01*
X191386265Y-105946764D01*
X191818257Y-105640897D01*
X191821207Y-105638638D01*
X192229048Y-105301242D01*
X192231820Y-105298768D01*
X192613217Y-104931740D01*
X192615796Y-104929066D01*
X192968600Y-104534476D01*
X192970971Y-104531615D01*
X193293196Y-104111684D01*
X193295345Y-104108653D01*
X193585178Y-103665743D01*
X193587094Y-103662560D01*
X193842902Y-103199166D01*
X193844574Y-103195848D01*
X194064917Y-102714578D01*
X194066336Y-102711144D01*
X194249973Y-102214707D01*
X194251130Y-102211177D01*
X194397028Y-101702369D01*
X194397917Y-101698762D01*
X194505256Y-101180447D01*
X194505872Y-101176783D01*
X194574131Y-100651214D01*
X194574525Y-100646175D01*
X194599118Y-99737352D01*
X194598997Y-99732299D01*
X194559259Y-99203809D01*
X194558842Y-99200117D01*
X194479691Y-98676755D01*
X194478998Y-98673105D01*
X194360829Y-98157151D01*
X194359864Y-98153564D01*
X194203342Y-97647922D01*
X194202111Y-97644417D01*
X194008117Y-97151936D01*
X194006627Y-97148533D01*
X193776253Y-96671982D01*
X193774512Y-96668700D01*
X193509056Y-96210764D01*
X193507074Y-96207622D01*
X193208030Y-95770879D01*
X193205817Y-95767895D01*
X192874868Y-95354803D01*
X192872438Y-95351993D01*
X192511447Y-94964878D01*
X192508813Y-94962257D01*
X192119814Y-94603299D01*
X192116990Y-94600883D01*
X191702172Y-94272102D01*
X191699176Y-94269905D01*
X191260873Y-93973153D01*
X191257721Y-93971186D01*
X190798401Y-93708131D01*
X190795110Y-93706407D01*
X190317360Y-93478532D01*
X190313949Y-93477060D01*
X189820459Y-93285647D01*
X189816947Y-93284434D01*
X189310493Y-93130562D01*
X189306900Y-93129616D01*
X188790335Y-93014150D01*
X188786681Y-93013476D01*
X188262913Y-92937067D01*
X188259219Y-92936669D01*
X187731196Y-92899746D01*
X187727482Y-92899626D01*
X187198177Y-92902397D01*
X187194465Y-92902556D01*
X186666858Y-92945007D01*
X186663168Y-92945444D01*
X186140228Y-93027333D01*
X186136582Y-93028045D01*
X185621254Y-93148915D01*
X185617671Y-93149898D01*
X185112856Y-93309066D01*
X185109357Y-93310315D01*
X184617899Y-93506885D01*
X184614503Y-93508393D01*
X184139166Y-93741257D01*
X184135893Y-93743016D01*
X183679353Y-94010866D01*
X183676222Y-94012865D01*
X183241050Y-94314192D01*
X183238077Y-94316420D01*
X182826724Y-94649528D01*
X182823926Y-94651972D01*
X182438707Y-95014985D01*
X182436100Y-95017632D01*
X182079184Y-95408507D01*
X182076784Y-95411342D01*
X181750178Y-95827876D01*
X181747997Y-95830884D01*
X181453543Y-96270736D01*
X181451594Y-96273898D01*
X181190947Y-96734588D01*
X181189240Y-96737888D01*
X180963870Y-97216825D01*
X180962415Y-97220243D01*
X180773589Y-97714729D01*
X180772395Y-97718248D01*
X180621176Y-98225500D01*
X180620249Y-98229098D01*
X180507490Y-98746260D01*
X180506835Y-98749917D01*
X180433169Y-99274078D01*
X180432790Y-99277774D01*
X180398632Y-99805984D01*
X180398532Y-99809698D01*
X119597160Y-99809698D01*
X119599118Y-99737352D01*
X119598997Y-99732299D01*
X119559259Y-99203809D01*
X119558842Y-99200117D01*
X119479691Y-98676755D01*
X119478998Y-98673105D01*
X119360829Y-98157151D01*
X119359864Y-98153564D01*
X119203342Y-97647922D01*
X119202111Y-97644417D01*
X119008117Y-97151936D01*
X119006627Y-97148533D01*
X118776253Y-96671982D01*
X118774512Y-96668700D01*
X118509056Y-96210764D01*
X118507074Y-96207622D01*
X118208030Y-95770879D01*
X118205817Y-95767895D01*
X117874868Y-95354803D01*
X117872438Y-95351993D01*
X117511447Y-94964878D01*
X117508813Y-94962257D01*
X117119814Y-94603299D01*
X117116990Y-94600883D01*
X116702172Y-94272102D01*
X116699176Y-94269905D01*
X116260873Y-93973153D01*
X116257721Y-93971186D01*
X115798401Y-93708131D01*
X115795110Y-93706407D01*
X115317360Y-93478532D01*
X115313949Y-93477060D01*
X114820459Y-93285647D01*
X114816947Y-93284434D01*
X114310493Y-93130562D01*
X114306900Y-93129616D01*
X113790335Y-93014150D01*
X113786681Y-93013476D01*
X113262913Y-92937067D01*
X113259219Y-92936669D01*
X112731196Y-92899746D01*
X112727482Y-92899626D01*
X112198177Y-92902397D01*
X112194465Y-92902556D01*
X111666858Y-92945007D01*
X111663168Y-92945444D01*
X111140228Y-93027333D01*
X111136582Y-93028045D01*
X110621254Y-93148915D01*
X110617671Y-93149898D01*
X110112856Y-93309066D01*
X110109357Y-93310315D01*
X109617899Y-93506885D01*
X109614503Y-93508393D01*
X109139166Y-93741257D01*
X109135893Y-93743016D01*
X108679353Y-94010866D01*
X108676222Y-94012865D01*
X108241050Y-94314192D01*
X108238077Y-94316420D01*
X107826724Y-94649528D01*
X107823926Y-94651972D01*
X107438707Y-95014985D01*
X107436100Y-95017632D01*
X107079184Y-95408507D01*
X107076784Y-95411342D01*
X106750178Y-95827876D01*
X106747997Y-95830884D01*
X106453543Y-96270736D01*
X106451594Y-96273898D01*
X106190947Y-96734588D01*
X106189240Y-96737888D01*
X105963870Y-97216825D01*
X105962415Y-97220243D01*
X105773589Y-97714729D01*
X105772395Y-97718248D01*
X105621176Y-98225500D01*
X105620249Y-98229098D01*
X105507490Y-98746260D01*
X105506835Y-98749917D01*
X105433169Y-99274078D01*
X105432790Y-99277774D01*
X105398632Y-99805984D01*
X105398532Y-99809698D01*
X97606743Y-99809698D01*
X97622207Y-98628426D01*
X97676059Y-97257813D01*
X97765770Y-95889078D01*
X97891280Y-94523169D01*
X98052510Y-93160947D01*
X98249327Y-91803526D01*
X98481624Y-90451629D01*
X98749223Y-89106313D01*
X99051951Y-87768452D01*
X99389586Y-86439006D01*
X99761924Y-85118799D01*
X100168688Y-83808802D01*
X100609581Y-82509975D01*
X101084360Y-81223029D01*
X101592640Y-79949015D01*
X102134099Y-78688738D01*
X102708372Y-77443042D01*
X103315041Y-76212837D01*
X103953732Y-74998887D01*
X104623954Y-73802121D01*
X105325268Y-72623317D01*
X106057224Y-71463238D01*
X106821511Y-70319399D01*
X106974911Y-70099000D01*
X119908129Y-70099000D01*
X119921585Y-70101264D01*
X119929161Y-70101947D01*
X120039463Y-70103390D01*
X120042055Y-70103357D01*
X120359689Y-70090876D01*
X120364679Y-70090427D01*
X120374773Y-70089000D01*
X120451227Y-70083184D01*
X120453806Y-70082919D01*
X120852081Y-70031546D01*
X120857017Y-70030653D01*
X120861554Y-70029592D01*
X120953856Y-70013234D01*
X120956396Y-70012715D01*
X121347595Y-69922040D01*
X121352410Y-69920664D01*
X121356805Y-69919164D01*
X121447054Y-69893710D01*
X121449530Y-69892942D01*
X121829792Y-69763859D01*
X121834454Y-69762008D01*
X121838668Y-69760083D01*
X121925941Y-69725792D01*
X121928327Y-69724781D01*
X122293890Y-69558570D01*
X122298344Y-69556266D01*
X122302356Y-69553925D01*
X122385783Y-69511141D01*
X122388058Y-69509899D01*
X122735303Y-69308203D01*
X122739505Y-69305469D01*
X122743285Y-69302728D01*
X122822031Y-69251882D01*
X122824170Y-69250420D01*
X123149668Y-69015232D01*
X123153580Y-69012093D01*
X123157058Y-69008999D01*
X123230376Y-68950575D01*
X123232360Y-68948907D01*
X123532889Y-68682553D01*
X123536470Y-68679039D01*
X123539627Y-68675612D01*
X123606770Y-68610204D01*
X123608579Y-68608347D01*
X123881166Y-68313465D01*
X123884375Y-68309621D01*
X123887174Y-68305900D01*
X123947505Y-68234127D01*
X123949120Y-68232100D01*
X124191071Y-67911601D01*
X124193883Y-67907455D01*
X124196293Y-67903483D01*
X124249199Y-67826071D01*
X124250604Y-67823894D01*
X124459528Y-67480949D01*
X124461914Y-67476545D01*
X124463928Y-67472333D01*
X124508872Y-67390069D01*
X124510054Y-67387764D01*
X124683885Y-67025763D01*
X124685824Y-67021139D01*
X124687400Y-67016774D01*
X124723961Y-66930430D01*
X124724909Y-66928018D01*
X124861925Y-66550541D01*
X124863395Y-66545749D01*
X124864535Y-66541229D01*
X124892332Y-66451705D01*
X124893036Y-66449210D01*
X124991885Y-66059994D01*
X124992871Y-66055080D01*
X124993556Y-66050465D01*
X125012326Y-65958619D01*
X125012778Y-65956067D01*
X125072480Y-65558958D01*
X125072973Y-65553973D01*
X125073198Y-65549313D01*
X125082753Y-65456058D01*
X125082949Y-65453474D01*
X125102916Y-65052398D01*
X125102912Y-65047386D01*
X125099000Y-64971472D01*
X125099000Y-58099000D01*
X174901001Y-58099000D01*
X174901000Y-64908141D01*
G37*
%TD.AperFunction*%
%TD*%
M02*
