%TF.GenerationSoftware,KiCad,Pcbnew,(5.99.0-2407-g46ade4960)*%
%TF.CreationDate,2020-08-17T15:41:34+03:00*%
%TF.ProjectId,gateway-expansion-a1,67617465-7761-4792-9d65-7870616e7369,rev?*%
%TF.SameCoordinates,Original*%
%TF.FileFunction,Profile,NP*%
%FSLAX46Y46*%
G04 Gerber Fmt 4.6, Leading zero omitted, Abs format (unit mm)*
G04 Created by KiCad (PCBNEW (5.99.0-2407-g46ade4960)) date 2020-08-17 15:41:34*
%MOMM*%
%LPD*%
G01*
G04 APERTURE LIST*
%TA.AperFunction,Profile*%
%ADD10C,0.100000*%
%TD*%
G04 APERTURE END LIST*
D10*
X179000003Y-61100002D02*
X178914160Y-61150200D01*
X178914159Y-61150201D02*
G75*
G03*
X176000000Y-65000000I1085841J-3849799D01*
G01*
X179000003Y-61100002D02*
X179000002Y-57000000D01*
X176000000Y-65000000D02*
G75*
G03*
X180000000Y-69000000I4000000J0D01*
G01*
X116150201Y-133914159D02*
G75*
G02*
X120000000Y-131000000I3849799J-1085841D01*
G01*
X116100000Y-134000000D02*
X116150201Y-133914159D01*
X121000000Y-61100000D02*
X121085841Y-61150201D01*
X121085841Y-61150201D02*
G75*
G02*
X124000000Y-65000000I-1085841J-3849799D01*
G01*
X124000000Y-65000000D02*
G75*
G02*
X120000000Y-69000000I-4000000J0D01*
G01*
X152500000Y-131000000D02*
X180000000Y-131000000D01*
X183900000Y-134000000D02*
X183849799Y-133914159D01*
X183900000Y-134000000D02*
X191300000Y-134000000D01*
X191300000Y-134000000D02*
X191393348Y-133894553D01*
X191393348Y-133894553D02*
G75*
G03*
X203500000Y-100000000I-41393348J33894553D01*
G01*
X183849799Y-133914159D02*
G75*
G03*
X180000000Y-131000000I-3849799J-1085841D01*
G01*
X183900001Y-66000001D02*
X183849798Y-66085840D01*
X183900001Y-66000001D02*
X191299999Y-65999999D01*
X191299999Y-65999999D02*
X191393349Y-66105448D01*
X191393347Y-66105448D02*
G75*
G02*
X203499998Y-100000000I-41393347J-33894551D01*
G01*
X183849799Y-66085841D02*
G75*
G02*
X180000000Y-69000000I-3849799J1085841D01*
G01*
X116150201Y-66085841D02*
G75*
G03*
X120000000Y-69000000I3849799J1085841D01*
G01*
X108606651Y-66105447D02*
G75*
G03*
X96499999Y-99999999I41393347J-33894553D01*
G01*
X108700001Y-65999999D02*
X108606652Y-66105447D01*
X116100002Y-66000001D02*
X108700001Y-65999999D01*
X116100002Y-66000001D02*
X116150201Y-66085840D01*
X108700000Y-134000000D02*
X108606652Y-133894553D01*
X116100000Y-134000000D02*
X108700000Y-134000000D01*
X135500000Y-131000000D02*
X120000000Y-131000000D01*
X152500000Y-129500000D02*
G75*
G03*
X151500000Y-128500000I-1000000J0D01*
G01*
X152500000Y-129500000D02*
X152500000Y-131000000D01*
X193500000Y-100000000D02*
G75*
G03*
X193500000Y-100000000I-6000000J0D01*
G01*
X121000000Y-57000000D02*
X179000002Y-57000000D01*
X135500000Y-131000000D02*
X135500000Y-129500000D01*
X121000000Y-61100000D02*
X121000000Y-57000000D01*
X136500000Y-128500000D02*
X151500000Y-128500000D01*
X108606652Y-133894553D02*
G75*
G02*
X96500000Y-100000000I41393348J33894553D01*
G01*
X118500000Y-100000000D02*
G75*
G03*
X118500000Y-100000000I-6000000J0D01*
G01*
X136500000Y-128500000D02*
G75*
G03*
X135500000Y-129500000I0J-1000000D01*
G01*
M02*
