  0
SECTION
  2
HEADER
  9
$ANGBASE
  50
0.0
  9
$ANGDIR
  70
1
  9
$MEASUREMENT
  70
1
  0
ENDSEC
  0
SECTION
  2
TABLES
  0
TABLE
  2
LTYPE
  70
4
  0
LTYPE
  5
40F
  2
CONTINUOUS
  70
0
  3
Solid line
  72
65
  73
0
  40
0.0
  0
LTYPE
  5
410
  2
DASHDOT
 70
0
  3
Dash Dot ____ _ ____ _
 72
65
 73
4
 40
2.0
 49
1.25
 49
-0.25
 49
0.25
 49
-0.25
  0
LTYPE
  5
411
  2
DASHED
 70
0
  3
Dashed __ __ __ __ __
 72
65
 73
2
 40
0.75
 49
0.5
 49
-0.25
  0
LTYPE
  5
43B
  2
DOTTED
 70
0
  3
Dotted .  .  .  .
 72
65
 73
2
 40
0.2
 49
0.0
 49
-0.2
  0
ENDTAB
  0
TABLE
  2
STYLE
  70
4
  0
STYLE
  2
KICAD
  70
0
  40
0
  41
1
  42
1
  50
0
  71
0
  3
isocp.shx
  0
STYLE
  2
KICADB
  70
0
  40
0
  41
1
  42
1
  50
0
  71
0
  3
isocp.shx
  0
STYLE
  2
KICADI
  70
0
  40
0
  41
1
  42
1
  50
15
  71
0
  3
isocp.shx
  0
STYLE
  2
KICADBI
  70
0
  40
0
  41
1
  42
1
  50
15
  71
0
  3
isocp.shx
  0
ENDTAB
  0
TABLE
  2
LAYER
  70
1
  0
LAYER
  2
BLACK
  70
0
  62
7
  6
CONTINUOUS
  0
ENDTAB
  0
ENDSEC
  0
SECTION
  2
ENTITIES
0
ARC
8
BLACK
10
151.5
20
-129.5
40
1
50
-0
51
90
0
ARC
8
BLACK
10
136.5
20
-129.5
40
1
50
90
51
180
0
ARC
8
BLACK
10
150
20
-100
40
53.5
50
-35.1764
51
-0
0
ARC
8
BLACK
10
180
20
-65
40
4
50
-180
51
-90
0
LINE
8
BLACK
6
CONTINUOUS
10
180
20
-69
11
193.5
21
-69
0
LINE
8
BLACK
6
CONTINUOUS
10
176
20
-65
11
176
21
-57
0
LINE
8
BLACK
6
CONTINUOUS
10
193.73
20
-69.1789
11
193.5
21
-69
0
ARC
8
BLACK
10
120
20
-135
40
4
50
-1.4324e-05
51
90
0
LINE
8
BLACK
6
CONTINUOUS
10
120
20
-131
11
106.5
21
-131
0
LINE
8
BLACK
6
CONTINUOUS
10
124
20
-135
11
124
21
-143
0
LINE
8
BLACK
6
CONTINUOUS
10
106.27
20
-130.821
11
106.5
21
-131
0
LINE
8
BLACK
6
CONTINUOUS
10
176
20
-135
11
176
21
-143
0
LINE
8
BLACK
6
CONTINUOUS
10
193.73
20
-130.821
11
193.5
21
-131
0
LINE
8
BLACK
6
CONTINUOUS
10
180
20
-131
11
193.5
21
-131
0
ARC
8
BLACK
10
180
20
-135
40
4
50
90
51
180
0
LINE
8
BLACK
6
CONTINUOUS
10
106.27
20
-69.1789
11
106.5
21
-69
0
LINE
8
BLACK
6
CONTINUOUS
10
120
20
-69
11
106.5
21
-69
0
LINE
8
BLACK
6
CONTINUOUS
10
124
20
-65
11
124
21
-57
0
ARC
8
BLACK
10
120
20
-65
40
4
50
-90
51
-0
0
LINE
8
BLACK
6
CONTINUOUS
10
135.5
20
-143
11
124
21
-143
0
LINE
8
BLACK
6
CONTINUOUS
10
152.5
20
-143
11
176
21
-143
0
ARC
8
BLACK
10
150
20
-100
40
53.5
50
144.824
51
180
0
ARC
8
BLACK
10
150
20
-100
40
53.5
50
180
51
215.176
0
LINE
8
BLACK
6
CONTINUOUS
10
124
20
-57
11
176
21
-57
0
CIRCLE
8
BLACK
10
187.5
20
-100
40
6
0
CIRCLE
8
BLACK
10
112.5
20
-100
40
6
0
ARC
8
BLACK
10
150
20
-100
40
53.5
50
-0
51
35.1764
0
LINE
8
BLACK
6
CONTINUOUS
10
152.5
20
-129.5
11
152.5
21
-143
0
LINE
8
BLACK
6
CONTINUOUS
10
136.5
20
-128.5
11
151.5
21
-128.5
0
LINE
8
BLACK
6
CONTINUOUS
10
135.5
20
-143
11
135.5
21
-129.5
  0
ENDSEC
  0
EOF
