%TF.GenerationSoftware,KiCad,Pcbnew,(5.99.0-2407-g46ade4960)*%
%TF.CreationDate,2020-08-17T17:26:39+03:00*%
%TF.ProjectId,gateway-expansion-a1,67617465-7761-4792-9d65-7870616e7369,rev?*%
%TF.SameCoordinates,Original*%
%TF.FileFunction,Copper,L1,Top*%
%TF.FilePolarity,Positive*%
%FSLAX46Y46*%
G04 Gerber Fmt 4.6, Leading zero omitted, Abs format (unit mm)*
G04 Created by KiCad (PCBNEW (5.99.0-2407-g46ade4960)) date 2020-08-17 17:26:39*
%MOMM*%
%LPD*%
G01*
G04 APERTURE LIST*
%TA.AperFunction,ViaPad*%
%ADD10C,0.800000*%
%TD*%
%TA.AperFunction,Conductor*%
%ADD11C,0.200000*%
%TD*%
G04 APERTURE END LIST*
%TO.P,J1,1,Pin_1*%
%TO.N,Net-(J1-Pad1)*%
%TA.AperFunction,SMDPad,CuDef*%
G36*
G01*
X177650100Y-86100000D02*
X178749900Y-86100000D01*
G75*
G02*
X178800000Y-86150100I0J-50100D01*
G01*
X178800000Y-86349900D01*
G75*
G02*
X178749900Y-86400000I-50100J0D01*
G01*
X177650100Y-86400000D01*
G75*
G02*
X177600000Y-86349900I0J50100D01*
G01*
X177600000Y-86150100D01*
G75*
G02*
X177650100Y-86100000I50100J0D01*
G01*
G37*
%TD.AperFunction*%
%TO.P,J1,2,Pin_2*%
%TO.N,Net-(J1-Pad2)*%
%TA.AperFunction,SMDPad,CuDef*%
G36*
G01*
X177650100Y-86600000D02*
X178749900Y-86600000D01*
G75*
G02*
X178800000Y-86650100I0J-50100D01*
G01*
X178800000Y-86849900D01*
G75*
G02*
X178749900Y-86900000I-50100J0D01*
G01*
X177650100Y-86900000D01*
G75*
G02*
X177600000Y-86849900I0J50100D01*
G01*
X177600000Y-86650100D01*
G75*
G02*
X177650100Y-86600000I50100J0D01*
G01*
G37*
%TD.AperFunction*%
%TO.P,J1,3,Pin_3*%
%TO.N,Net-(J1-Pad3)*%
%TA.AperFunction,SMDPad,CuDef*%
G36*
G01*
X177650100Y-87100000D02*
X178749900Y-87100000D01*
G75*
G02*
X178800000Y-87150100I0J-50100D01*
G01*
X178800000Y-87349900D01*
G75*
G02*
X178749900Y-87400000I-50100J0D01*
G01*
X177650100Y-87400000D01*
G75*
G02*
X177600000Y-87349900I0J50100D01*
G01*
X177600000Y-87150100D01*
G75*
G02*
X177650100Y-87100000I50100J0D01*
G01*
G37*
%TD.AperFunction*%
%TO.P,J1,4,Pin_4*%
%TO.N,Net-(J1-Pad4)*%
%TA.AperFunction,SMDPad,CuDef*%
G36*
G01*
X177650100Y-87600000D02*
X178749900Y-87600000D01*
G75*
G02*
X178800000Y-87650100I0J-50100D01*
G01*
X178800000Y-87849900D01*
G75*
G02*
X178749900Y-87900000I-50100J0D01*
G01*
X177650100Y-87900000D01*
G75*
G02*
X177600000Y-87849900I0J50100D01*
G01*
X177600000Y-87650100D01*
G75*
G02*
X177650100Y-87600000I50100J0D01*
G01*
G37*
%TD.AperFunction*%
%TO.P,J1,5,Pin_5*%
%TO.N,Net-(J1-Pad5)*%
%TA.AperFunction,SMDPad,CuDef*%
G36*
G01*
X177650100Y-88100000D02*
X178749900Y-88100000D01*
G75*
G02*
X178800000Y-88150100I0J-50100D01*
G01*
X178800000Y-88349900D01*
G75*
G02*
X178749900Y-88400000I-50100J0D01*
G01*
X177650100Y-88400000D01*
G75*
G02*
X177600000Y-88349900I0J50100D01*
G01*
X177600000Y-88150100D01*
G75*
G02*
X177650100Y-88100000I50100J0D01*
G01*
G37*
%TD.AperFunction*%
%TO.P,J1,6,Pin_6*%
%TO.N,Net-(J1-Pad6)*%
%TA.AperFunction,SMDPad,CuDef*%
G36*
G01*
X177650100Y-88600000D02*
X178749900Y-88600000D01*
G75*
G02*
X178800000Y-88650100I0J-50100D01*
G01*
X178800000Y-88849900D01*
G75*
G02*
X178749900Y-88900000I-50100J0D01*
G01*
X177650100Y-88900000D01*
G75*
G02*
X177600000Y-88849900I0J50100D01*
G01*
X177600000Y-88650100D01*
G75*
G02*
X177650100Y-88600000I50100J0D01*
G01*
G37*
%TD.AperFunction*%
%TO.P,J1,7,Pin_7*%
%TO.N,Net-(J1-Pad7)*%
%TA.AperFunction,SMDPad,CuDef*%
G36*
G01*
X177650100Y-89100000D02*
X178749900Y-89100000D01*
G75*
G02*
X178800000Y-89150100I0J-50100D01*
G01*
X178800000Y-89349900D01*
G75*
G02*
X178749900Y-89400000I-50100J0D01*
G01*
X177650100Y-89400000D01*
G75*
G02*
X177600000Y-89349900I0J50100D01*
G01*
X177600000Y-89150100D01*
G75*
G02*
X177650100Y-89100000I50100J0D01*
G01*
G37*
%TD.AperFunction*%
%TO.P,J1,8,Pin_8*%
%TO.N,GND*%
%TA.AperFunction,SMDPad,CuDef*%
G36*
G01*
X177650100Y-89600000D02*
X178749900Y-89600000D01*
G75*
G02*
X178800000Y-89650100I0J-50100D01*
G01*
X178800000Y-89849900D01*
G75*
G02*
X178749900Y-89900000I-50100J0D01*
G01*
X177650100Y-89900000D01*
G75*
G02*
X177600000Y-89849900I0J50100D01*
G01*
X177600000Y-89650100D01*
G75*
G02*
X177650100Y-89600000I50100J0D01*
G01*
G37*
%TD.AperFunction*%
%TO.P,J1,~*%
%TO.N,N/C*%
%TA.AperFunction,SMDPad,CuDef*%
G36*
G01*
X174479000Y-90250000D02*
X177581000Y-90250000D01*
G75*
G02*
X177680000Y-90349000I0J-99000D01*
G01*
X177680000Y-92351000D01*
G75*
G02*
X177581000Y-92450000I-99000J0D01*
G01*
X174479000Y-92450000D01*
G75*
G02*
X174380000Y-92351000I0J99000D01*
G01*
X174380000Y-90349000D01*
G75*
G02*
X174479000Y-90250000I99000J0D01*
G01*
G37*
%TD.AperFunction*%
%TA.AperFunction,SMDPad,CuDef*%
G36*
X178005000Y-85080000D02*
G01*
X178195000Y-85580000D01*
X178205000Y-85580000D01*
X178395000Y-85080000D01*
X178005000Y-85080000D01*
G37*
%TD.AperFunction*%
%TA.AperFunction,SMDPad,CuDef*%
G36*
G01*
X174479000Y-83550000D02*
X177581000Y-83550000D01*
G75*
G02*
X177680000Y-83649000I0J-99000D01*
G01*
X177680000Y-85651000D01*
G75*
G02*
X177581000Y-85750000I-99000J0D01*
G01*
X174479000Y-85750000D01*
G75*
G02*
X174380000Y-85651000I0J99000D01*
G01*
X174380000Y-83649000D01*
G75*
G02*
X174479000Y-83550000I99000J0D01*
G01*
G37*
%TD.AperFunction*%
%TD*%
%TO.P,J3,1,Pin_1*%
%TO.N,Net-(J3-Pad1)*%
%TA.AperFunction,SMDPad,CuDef*%
G36*
G01*
X177650100Y-110100000D02*
X178749900Y-110100000D01*
G75*
G02*
X178800000Y-110150100I0J-50100D01*
G01*
X178800000Y-110349900D01*
G75*
G02*
X178749900Y-110400000I-50100J0D01*
G01*
X177650100Y-110400000D01*
G75*
G02*
X177600000Y-110349900I0J50100D01*
G01*
X177600000Y-110150100D01*
G75*
G02*
X177650100Y-110100000I50100J0D01*
G01*
G37*
%TD.AperFunction*%
%TO.P,J3,2,Pin_2*%
%TO.N,Net-(J3-Pad2)*%
%TA.AperFunction,SMDPad,CuDef*%
G36*
G01*
X177650100Y-110600000D02*
X178749900Y-110600000D01*
G75*
G02*
X178800000Y-110650100I0J-50100D01*
G01*
X178800000Y-110849900D01*
G75*
G02*
X178749900Y-110900000I-50100J0D01*
G01*
X177650100Y-110900000D01*
G75*
G02*
X177600000Y-110849900I0J50100D01*
G01*
X177600000Y-110650100D01*
G75*
G02*
X177650100Y-110600000I50100J0D01*
G01*
G37*
%TD.AperFunction*%
%TO.P,J3,3,Pin_3*%
%TO.N,Net-(J3-Pad3)*%
%TA.AperFunction,SMDPad,CuDef*%
G36*
G01*
X177650100Y-111100000D02*
X178749900Y-111100000D01*
G75*
G02*
X178800000Y-111150100I0J-50100D01*
G01*
X178800000Y-111349900D01*
G75*
G02*
X178749900Y-111400000I-50100J0D01*
G01*
X177650100Y-111400000D01*
G75*
G02*
X177600000Y-111349900I0J50100D01*
G01*
X177600000Y-111150100D01*
G75*
G02*
X177650100Y-111100000I50100J0D01*
G01*
G37*
%TD.AperFunction*%
%TO.P,J3,4,Pin_4*%
%TO.N,Net-(J3-Pad4)*%
%TA.AperFunction,SMDPad,CuDef*%
G36*
G01*
X177650100Y-111600000D02*
X178749900Y-111600000D01*
G75*
G02*
X178800000Y-111650100I0J-50100D01*
G01*
X178800000Y-111849900D01*
G75*
G02*
X178749900Y-111900000I-50100J0D01*
G01*
X177650100Y-111900000D01*
G75*
G02*
X177600000Y-111849900I0J50100D01*
G01*
X177600000Y-111650100D01*
G75*
G02*
X177650100Y-111600000I50100J0D01*
G01*
G37*
%TD.AperFunction*%
%TO.P,J3,5,Pin_5*%
%TO.N,Net-(J3-Pad5)*%
%TA.AperFunction,SMDPad,CuDef*%
G36*
G01*
X177650100Y-112100000D02*
X178749900Y-112100000D01*
G75*
G02*
X178800000Y-112150100I0J-50100D01*
G01*
X178800000Y-112349900D01*
G75*
G02*
X178749900Y-112400000I-50100J0D01*
G01*
X177650100Y-112400000D01*
G75*
G02*
X177600000Y-112349900I0J50100D01*
G01*
X177600000Y-112150100D01*
G75*
G02*
X177650100Y-112100000I50100J0D01*
G01*
G37*
%TD.AperFunction*%
%TO.P,J3,6,Pin_6*%
%TO.N,Net-(J3-Pad6)*%
%TA.AperFunction,SMDPad,CuDef*%
G36*
G01*
X177650100Y-112600000D02*
X178749900Y-112600000D01*
G75*
G02*
X178800000Y-112650100I0J-50100D01*
G01*
X178800000Y-112849900D01*
G75*
G02*
X178749900Y-112900000I-50100J0D01*
G01*
X177650100Y-112900000D01*
G75*
G02*
X177600000Y-112849900I0J50100D01*
G01*
X177600000Y-112650100D01*
G75*
G02*
X177650100Y-112600000I50100J0D01*
G01*
G37*
%TD.AperFunction*%
%TO.P,J3,7,Pin_7*%
%TO.N,Net-(J3-Pad7)*%
%TA.AperFunction,SMDPad,CuDef*%
G36*
G01*
X177650100Y-113100000D02*
X178749900Y-113100000D01*
G75*
G02*
X178800000Y-113150100I0J-50100D01*
G01*
X178800000Y-113349900D01*
G75*
G02*
X178749900Y-113400000I-50100J0D01*
G01*
X177650100Y-113400000D01*
G75*
G02*
X177600000Y-113349900I0J50100D01*
G01*
X177600000Y-113150100D01*
G75*
G02*
X177650100Y-113100000I50100J0D01*
G01*
G37*
%TD.AperFunction*%
%TO.P,J3,8,Pin_8*%
%TO.N,GND*%
%TA.AperFunction,SMDPad,CuDef*%
G36*
G01*
X177650100Y-113600000D02*
X178749900Y-113600000D01*
G75*
G02*
X178800000Y-113650100I0J-50100D01*
G01*
X178800000Y-113849900D01*
G75*
G02*
X178749900Y-113900000I-50100J0D01*
G01*
X177650100Y-113900000D01*
G75*
G02*
X177600000Y-113849900I0J50100D01*
G01*
X177600000Y-113650100D01*
G75*
G02*
X177650100Y-113600000I50100J0D01*
G01*
G37*
%TD.AperFunction*%
%TO.P,J3,~*%
%TO.N,N/C*%
%TA.AperFunction,SMDPad,CuDef*%
G36*
G01*
X174479000Y-107550000D02*
X177581000Y-107550000D01*
G75*
G02*
X177680000Y-107649000I0J-99000D01*
G01*
X177680000Y-109651000D01*
G75*
G02*
X177581000Y-109750000I-99000J0D01*
G01*
X174479000Y-109750000D01*
G75*
G02*
X174380000Y-109651000I0J99000D01*
G01*
X174380000Y-107649000D01*
G75*
G02*
X174479000Y-107550000I99000J0D01*
G01*
G37*
%TD.AperFunction*%
%TA.AperFunction,SMDPad,CuDef*%
G36*
X178005000Y-109080000D02*
G01*
X178195000Y-109580000D01*
X178205000Y-109580000D01*
X178395000Y-109080000D01*
X178005000Y-109080000D01*
G37*
%TD.AperFunction*%
%TA.AperFunction,SMDPad,CuDef*%
G36*
G01*
X174479000Y-114250000D02*
X177581000Y-114250000D01*
G75*
G02*
X177680000Y-114349000I0J-99000D01*
G01*
X177680000Y-116351000D01*
G75*
G02*
X177581000Y-116450000I-99000J0D01*
G01*
X174479000Y-116450000D01*
G75*
G02*
X174380000Y-116351000I0J99000D01*
G01*
X174380000Y-114349000D01*
G75*
G02*
X174479000Y-114250000I99000J0D01*
G01*
G37*
%TD.AperFunction*%
%TD*%
%TO.P,J2,1,Pin_1*%
%TO.N,Net-(J2-Pad1)*%
%TA.AperFunction,SMDPad,CuDef*%
G36*
G01*
X177650100Y-98100000D02*
X178749900Y-98100000D01*
G75*
G02*
X178800000Y-98150100I0J-50100D01*
G01*
X178800000Y-98349900D01*
G75*
G02*
X178749900Y-98400000I-50100J0D01*
G01*
X177650100Y-98400000D01*
G75*
G02*
X177600000Y-98349900I0J50100D01*
G01*
X177600000Y-98150100D01*
G75*
G02*
X177650100Y-98100000I50100J0D01*
G01*
G37*
%TD.AperFunction*%
%TO.P,J2,2,Pin_2*%
%TO.N,Net-(J2-Pad2)*%
%TA.AperFunction,SMDPad,CuDef*%
G36*
G01*
X177650100Y-98600000D02*
X178749900Y-98600000D01*
G75*
G02*
X178800000Y-98650100I0J-50100D01*
G01*
X178800000Y-98849900D01*
G75*
G02*
X178749900Y-98900000I-50100J0D01*
G01*
X177650100Y-98900000D01*
G75*
G02*
X177600000Y-98849900I0J50100D01*
G01*
X177600000Y-98650100D01*
G75*
G02*
X177650100Y-98600000I50100J0D01*
G01*
G37*
%TD.AperFunction*%
%TO.P,J2,3,Pin_3*%
%TO.N,Net-(J2-Pad3)*%
%TA.AperFunction,SMDPad,CuDef*%
G36*
G01*
X177650100Y-99100000D02*
X178749900Y-99100000D01*
G75*
G02*
X178800000Y-99150100I0J-50100D01*
G01*
X178800000Y-99349900D01*
G75*
G02*
X178749900Y-99400000I-50100J0D01*
G01*
X177650100Y-99400000D01*
G75*
G02*
X177600000Y-99349900I0J50100D01*
G01*
X177600000Y-99150100D01*
G75*
G02*
X177650100Y-99100000I50100J0D01*
G01*
G37*
%TD.AperFunction*%
%TO.P,J2,4,Pin_4*%
%TO.N,Net-(J2-Pad4)*%
%TA.AperFunction,SMDPad,CuDef*%
G36*
G01*
X177650100Y-99600000D02*
X178749900Y-99600000D01*
G75*
G02*
X178800000Y-99650100I0J-50100D01*
G01*
X178800000Y-99849900D01*
G75*
G02*
X178749900Y-99900000I-50100J0D01*
G01*
X177650100Y-99900000D01*
G75*
G02*
X177600000Y-99849900I0J50100D01*
G01*
X177600000Y-99650100D01*
G75*
G02*
X177650100Y-99600000I50100J0D01*
G01*
G37*
%TD.AperFunction*%
%TO.P,J2,5,Pin_5*%
%TO.N,Net-(J2-Pad5)*%
%TA.AperFunction,SMDPad,CuDef*%
G36*
G01*
X177650100Y-100100000D02*
X178749900Y-100100000D01*
G75*
G02*
X178800000Y-100150100I0J-50100D01*
G01*
X178800000Y-100349900D01*
G75*
G02*
X178749900Y-100400000I-50100J0D01*
G01*
X177650100Y-100400000D01*
G75*
G02*
X177600000Y-100349900I0J50100D01*
G01*
X177600000Y-100150100D01*
G75*
G02*
X177650100Y-100100000I50100J0D01*
G01*
G37*
%TD.AperFunction*%
%TO.P,J2,6,Pin_6*%
%TO.N,Net-(J2-Pad6)*%
%TA.AperFunction,SMDPad,CuDef*%
G36*
G01*
X177650100Y-100600000D02*
X178749900Y-100600000D01*
G75*
G02*
X178800000Y-100650100I0J-50100D01*
G01*
X178800000Y-100849900D01*
G75*
G02*
X178749900Y-100900000I-50100J0D01*
G01*
X177650100Y-100900000D01*
G75*
G02*
X177600000Y-100849900I0J50100D01*
G01*
X177600000Y-100650100D01*
G75*
G02*
X177650100Y-100600000I50100J0D01*
G01*
G37*
%TD.AperFunction*%
%TO.P,J2,7,Pin_7*%
%TO.N,Net-(J2-Pad7)*%
%TA.AperFunction,SMDPad,CuDef*%
G36*
G01*
X177650100Y-101100000D02*
X178749900Y-101100000D01*
G75*
G02*
X178800000Y-101150100I0J-50100D01*
G01*
X178800000Y-101349900D01*
G75*
G02*
X178749900Y-101400000I-50100J0D01*
G01*
X177650100Y-101400000D01*
G75*
G02*
X177600000Y-101349900I0J50100D01*
G01*
X177600000Y-101150100D01*
G75*
G02*
X177650100Y-101100000I50100J0D01*
G01*
G37*
%TD.AperFunction*%
%TO.P,J2,8,Pin_8*%
%TO.N,GND*%
%TA.AperFunction,SMDPad,CuDef*%
G36*
G01*
X177650100Y-101600000D02*
X178749900Y-101600000D01*
G75*
G02*
X178800000Y-101650100I0J-50100D01*
G01*
X178800000Y-101849900D01*
G75*
G02*
X178749900Y-101900000I-50100J0D01*
G01*
X177650100Y-101900000D01*
G75*
G02*
X177600000Y-101849900I0J50100D01*
G01*
X177600000Y-101650100D01*
G75*
G02*
X177650100Y-101600000I50100J0D01*
G01*
G37*
%TD.AperFunction*%
%TO.P,J2,~*%
%TO.N,N/C*%
%TA.AperFunction,SMDPad,CuDef*%
G36*
G01*
X174479000Y-102250000D02*
X177581000Y-102250000D01*
G75*
G02*
X177680000Y-102349000I0J-99000D01*
G01*
X177680000Y-104351000D01*
G75*
G02*
X177581000Y-104450000I-99000J0D01*
G01*
X174479000Y-104450000D01*
G75*
G02*
X174380000Y-104351000I0J99000D01*
G01*
X174380000Y-102349000D01*
G75*
G02*
X174479000Y-102250000I99000J0D01*
G01*
G37*
%TD.AperFunction*%
%TA.AperFunction,SMDPad,CuDef*%
G36*
X178005000Y-97080000D02*
G01*
X178195000Y-97580000D01*
X178205000Y-97580000D01*
X178395000Y-97080000D01*
X178005000Y-97080000D01*
G37*
%TD.AperFunction*%
%TA.AperFunction,SMDPad,CuDef*%
G36*
G01*
X174479000Y-95550000D02*
X177581000Y-95550000D01*
G75*
G02*
X177680000Y-95649000I0J-99000D01*
G01*
X177680000Y-97651000D01*
G75*
G02*
X177581000Y-97750000I-99000J0D01*
G01*
X174479000Y-97750000D01*
G75*
G02*
X174380000Y-97651000I0J99000D01*
G01*
X174380000Y-95649000D01*
G75*
G02*
X174479000Y-95550000I99000J0D01*
G01*
G37*
%TD.AperFunction*%
%TD*%
D10*
%TO.N,GND*%
X190000000Y-125000000D03*
X190000000Y-75000000D03*
X110000000Y-75000000D03*
X110000000Y-125000000D03*
%TD*%
%TO.N,GND*%
D11*
X177901004Y-60352817D02*
X177706110Y-60441430D01*
X177701656Y-60443734D01*
X177697644Y-60446075D01*
X177614217Y-60488859D01*
X177611942Y-60490101D01*
X177264698Y-60691798D01*
X177260498Y-60694530D01*
X177256728Y-60697263D01*
X177177969Y-60748118D01*
X177175830Y-60749580D01*
X176850331Y-60984768D01*
X176846419Y-60987908D01*
X176842941Y-60991002D01*
X176769624Y-61049427D01*
X176767640Y-61051094D01*
X176467111Y-61317447D01*
X176463530Y-61320960D01*
X176460369Y-61324392D01*
X176393229Y-61389798D01*
X176391421Y-61391654D01*
X176118833Y-61686536D01*
X176115623Y-61690382D01*
X176112812Y-61694118D01*
X176052496Y-61765874D01*
X176050881Y-61767900D01*
X175808927Y-62088401D01*
X175806110Y-62092554D01*
X175803688Y-62096547D01*
X175750802Y-62173930D01*
X175749396Y-62176107D01*
X175540471Y-62519054D01*
X175538081Y-62523464D01*
X175536070Y-62527673D01*
X175491129Y-62609928D01*
X175489946Y-62612235D01*
X175316115Y-62974237D01*
X175314176Y-62978861D01*
X175312600Y-62983226D01*
X175276039Y-63069570D01*
X175275091Y-63071982D01*
X175138074Y-63449459D01*
X175136604Y-63454254D01*
X175135465Y-63458774D01*
X175107668Y-63548296D01*
X175106964Y-63550791D01*
X175008115Y-63940006D01*
X175007129Y-63944920D01*
X175006444Y-63949535D01*
X174987674Y-64041381D01*
X174987222Y-64043933D01*
X174927520Y-64441042D01*
X174927026Y-64446028D01*
X174926802Y-64450694D01*
X174917247Y-64543942D01*
X174917051Y-64546526D01*
X174897084Y-64947602D01*
X174897088Y-64952612D01*
X174897612Y-64962791D01*
X174896610Y-65039463D01*
X174896643Y-65042055D01*
X174909124Y-65359689D01*
X174909573Y-65364679D01*
X174911000Y-65374773D01*
X174916816Y-65451227D01*
X174917081Y-65453806D01*
X174968454Y-65852081D01*
X174969347Y-65857017D01*
X174970408Y-65861554D01*
X174986766Y-65953856D01*
X174987285Y-65956396D01*
X175077960Y-66347595D01*
X175079336Y-66352410D01*
X175080836Y-66356805D01*
X175106290Y-66447054D01*
X175107058Y-66449530D01*
X175236141Y-66829792D01*
X175237992Y-66834454D01*
X175239917Y-66838668D01*
X175274208Y-66925941D01*
X175275219Y-66928327D01*
X175441430Y-67293890D01*
X175443734Y-67298344D01*
X175446075Y-67302356D01*
X175488859Y-67385783D01*
X175490101Y-67388058D01*
X175691797Y-67735303D01*
X175694531Y-67739505D01*
X175697272Y-67743285D01*
X175748118Y-67822031D01*
X175749580Y-67824170D01*
X175984768Y-68149668D01*
X175987907Y-68153580D01*
X175991001Y-68157058D01*
X176049425Y-68230376D01*
X176051093Y-68232360D01*
X176317447Y-68532889D01*
X176320961Y-68536470D01*
X176324388Y-68539627D01*
X176389796Y-68606770D01*
X176391653Y-68608579D01*
X176686535Y-68881166D01*
X176690379Y-68884375D01*
X176694100Y-68887174D01*
X176765873Y-68947505D01*
X176767900Y-68949120D01*
X177088399Y-69191071D01*
X177092545Y-69193883D01*
X177096517Y-69196293D01*
X177173929Y-69249199D01*
X177176106Y-69250604D01*
X177519051Y-69459528D01*
X177523455Y-69461914D01*
X177527667Y-69463928D01*
X177609931Y-69508872D01*
X177612236Y-69510054D01*
X177974237Y-69683885D01*
X177978861Y-69685824D01*
X177983226Y-69687400D01*
X178069570Y-69723961D01*
X178071982Y-69724909D01*
X178449459Y-69861925D01*
X178454251Y-69863395D01*
X178458771Y-69864535D01*
X178548295Y-69892332D01*
X178550790Y-69893036D01*
X178940006Y-69991885D01*
X178944920Y-69992871D01*
X178949535Y-69993556D01*
X179041381Y-70012326D01*
X179043933Y-70012778D01*
X179441042Y-70072480D01*
X179446027Y-70072973D01*
X179450687Y-70073198D01*
X179543942Y-70082753D01*
X179546526Y-70082949D01*
X179947601Y-70102916D01*
X179952611Y-70102912D01*
X179955445Y-70102766D01*
X179971548Y-70102766D01*
X179997495Y-70104093D01*
X180000086Y-70104158D01*
X180014277Y-70104140D01*
X180019281Y-70103880D01*
X180030108Y-70102767D01*
X180064271Y-70102767D01*
X180066862Y-70102699D01*
X180467884Y-70081690D01*
X180472869Y-70081175D01*
X180477450Y-70080466D01*
X180570757Y-70071154D01*
X180573328Y-70070829D01*
X180970282Y-70010095D01*
X180975192Y-70009087D01*
X180979705Y-70007920D01*
X181071600Y-69989393D01*
X181074126Y-69988815D01*
X181463086Y-69888956D01*
X181467874Y-69887464D01*
X181472248Y-69885855D01*
X181561850Y-69858292D01*
X181564306Y-69857465D01*
X181941422Y-69719468D01*
X181946032Y-69717512D01*
X181950245Y-69715467D01*
X182036649Y-69679148D01*
X182039011Y-69678081D01*
X182400561Y-69503310D01*
X182404962Y-69500900D01*
X182408923Y-69498463D01*
X182491309Y-69453734D01*
X182493553Y-69452438D01*
X182835956Y-69242624D01*
X182840092Y-69239792D01*
X182843792Y-69236973D01*
X182921337Y-69184275D01*
X182923442Y-69182763D01*
X183243310Y-68939980D01*
X183247142Y-68936754D01*
X183250553Y-68933574D01*
X183322474Y-68873440D01*
X183324418Y-68871726D01*
X183618592Y-68598374D01*
X183622085Y-68594782D01*
X183625160Y-68591283D01*
X183690755Y-68524301D01*
X183692519Y-68522402D01*
X183958091Y-68221182D01*
X183961214Y-68217256D01*
X183963914Y-68213484D01*
X184022540Y-68140309D01*
X184024107Y-68138244D01*
X184258447Y-67812138D01*
X184261162Y-67807927D01*
X184263490Y-67803878D01*
X184314543Y-67725267D01*
X184315897Y-67723057D01*
X184516690Y-67375292D01*
X184518972Y-67370834D01*
X184520881Y-67366588D01*
X184563886Y-67283269D01*
X184565014Y-67280935D01*
X184647164Y-67099001D01*
X190773324Y-67098998D01*
X191394064Y-67877645D01*
X192220698Y-68972158D01*
X193018462Y-70088026D01*
X193786716Y-71224356D01*
X194524983Y-72380438D01*
X195232722Y-73555432D01*
X195909444Y-74748520D01*
X196554707Y-75958920D01*
X197168105Y-77185878D01*
X197749128Y-78428374D01*
X198297454Y-79685712D01*
X198812663Y-80956938D01*
X199294437Y-82241261D01*
X199742392Y-83537658D01*
X200156312Y-84845509D01*
X200535801Y-86163560D01*
X200880693Y-87491228D01*
X201190689Y-88827374D01*
X201465617Y-90171238D01*
X201705263Y-91521789D01*
X201909480Y-92878197D01*
X202078118Y-94239470D01*
X202211069Y-95604725D01*
X202308232Y-96972926D01*
X202369546Y-98343233D01*
X202395076Y-99720374D01*
X202395822Y-99994370D01*
X202377793Y-101371572D01*
X202323941Y-102742187D01*
X202234230Y-104110925D01*
X202108720Y-105476835D01*
X201947491Y-106839049D01*
X201750673Y-108196474D01*
X201518376Y-109548371D01*
X201250773Y-110893702D01*
X200948049Y-112231548D01*
X200610414Y-113560993D01*
X200238073Y-114881212D01*
X199831312Y-116191198D01*
X199390419Y-117490025D01*
X198915639Y-118776971D01*
X198407366Y-120050973D01*
X197865901Y-121311262D01*
X197291635Y-122556944D01*
X196684952Y-123787177D01*
X196046269Y-125001113D01*
X195376063Y-126197852D01*
X194674732Y-127376683D01*
X193942776Y-128536762D01*
X193180710Y-129677277D01*
X192389036Y-130797469D01*
X191568331Y-131896527D01*
X190776467Y-132901000D01*
X184647181Y-132901000D01*
X184558570Y-132706110D01*
X184556266Y-132701656D01*
X184553925Y-132697644D01*
X184511141Y-132614217D01*
X184509899Y-132611942D01*
X184308202Y-132264698D01*
X184305470Y-132260498D01*
X184302737Y-132256728D01*
X184251882Y-132177969D01*
X184250420Y-132175830D01*
X184015232Y-131850331D01*
X184012092Y-131846419D01*
X184008998Y-131842941D01*
X183950573Y-131769624D01*
X183948906Y-131767640D01*
X183682553Y-131467111D01*
X183679040Y-131463530D01*
X183675608Y-131460369D01*
X183610202Y-131393229D01*
X183608346Y-131391421D01*
X183313464Y-131118833D01*
X183309618Y-131115623D01*
X183305882Y-131112812D01*
X183234126Y-131052496D01*
X183232100Y-131050881D01*
X182911599Y-130808927D01*
X182907446Y-130806110D01*
X182903453Y-130803688D01*
X182826070Y-130750802D01*
X182823893Y-130749396D01*
X182480946Y-130540471D01*
X182476536Y-130538081D01*
X182472327Y-130536070D01*
X182390072Y-130491129D01*
X182387765Y-130489946D01*
X182025763Y-130316115D01*
X182021139Y-130314176D01*
X182016774Y-130312600D01*
X181930430Y-130276039D01*
X181928018Y-130275091D01*
X181550541Y-130138074D01*
X181545746Y-130136604D01*
X181541226Y-130135465D01*
X181451704Y-130107668D01*
X181449209Y-130106964D01*
X181059994Y-130008115D01*
X181055080Y-130007129D01*
X181050465Y-130006444D01*
X180958619Y-129987674D01*
X180956067Y-129987222D01*
X180558958Y-129927520D01*
X180553972Y-129927026D01*
X180549306Y-129926802D01*
X180456058Y-129917247D01*
X180453474Y-129917051D01*
X180052398Y-129897084D01*
X180047386Y-129897088D01*
X179971472Y-129901000D01*
X153599000Y-129901000D01*
X153599000Y-129571157D01*
X153603431Y-129537042D01*
X153603829Y-129529445D01*
X153601133Y-129419168D01*
X153601002Y-129416579D01*
X153588938Y-129259803D01*
X153588301Y-129254832D01*
X153582456Y-129222351D01*
X153580780Y-129188074D01*
X153579827Y-129180528D01*
X153557645Y-129072470D01*
X153557058Y-129069945D01*
X153505154Y-128870680D01*
X153503646Y-128865900D01*
X153487444Y-128822333D01*
X153475559Y-128776044D01*
X153473108Y-128768843D01*
X153429651Y-128667452D01*
X153428568Y-128665098D01*
X153337655Y-128480339D01*
X153335217Y-128475960D01*
X153310586Y-128436543D01*
X153289640Y-128393594D01*
X153285790Y-128387032D01*
X153222834Y-128296451D01*
X153221300Y-128294362D01*
X153095094Y-128131657D01*
X153091825Y-128127857D01*
X153059767Y-128094194D01*
X153030609Y-128056331D01*
X153025519Y-128050677D01*
X152949564Y-127978347D01*
X152948996Y-127977708D01*
X152941681Y-127970977D01*
X152940284Y-127969929D01*
X152787367Y-127838864D01*
X152783401Y-127835799D01*
X152745230Y-127809270D01*
X152709058Y-127778047D01*
X152702936Y-127773533D01*
X152609386Y-127715076D01*
X152607153Y-127713761D01*
X152427055Y-127613932D01*
X152422554Y-127611727D01*
X152379826Y-127593414D01*
X152338117Y-127570103D01*
X152331212Y-127566913D01*
X152305279Y-127557268D01*
X152305741Y-127554420D01*
X152225403Y-127527641D01*
X152224552Y-127527366D01*
X152028875Y-127466045D01*
X152024023Y-127464790D01*
X151978491Y-127455443D01*
X151932940Y-127440994D01*
X151925535Y-127439257D01*
X151816522Y-127422381D01*
X151813951Y-127422052D01*
X151609091Y-127401243D01*
X151604085Y-127400989D01*
X151393371Y-127400988D01*
X151393254Y-127401000D01*
X136571157Y-127401000D01*
X136537042Y-127396569D01*
X136529445Y-127396171D01*
X136419168Y-127398867D01*
X136416579Y-127398998D01*
X136259803Y-127411062D01*
X136254832Y-127411699D01*
X136222351Y-127417544D01*
X136188074Y-127419220D01*
X136180528Y-127420173D01*
X136072470Y-127442355D01*
X136069945Y-127442942D01*
X135870680Y-127494846D01*
X135865900Y-127496354D01*
X135822333Y-127512556D01*
X135776044Y-127524441D01*
X135768843Y-127526892D01*
X135667452Y-127570349D01*
X135665098Y-127571432D01*
X135480339Y-127662345D01*
X135475960Y-127664783D01*
X135436543Y-127689414D01*
X135393594Y-127710360D01*
X135387032Y-127714210D01*
X135296451Y-127777166D01*
X135294362Y-127778700D01*
X135131657Y-127904906D01*
X135127857Y-127908175D01*
X135094194Y-127940233D01*
X135056331Y-127969391D01*
X135050677Y-127974481D01*
X134978350Y-128050433D01*
X134976678Y-128051919D01*
X134973500Y-128055571D01*
X134973261Y-128055829D01*
X134972319Y-128056928D01*
X134968343Y-128061497D01*
X134968133Y-128061811D01*
X134838864Y-128212633D01*
X134835799Y-128216599D01*
X134809270Y-128254770D01*
X134778047Y-128290942D01*
X134773533Y-128297064D01*
X134715076Y-128390614D01*
X134713761Y-128392847D01*
X134613932Y-128572945D01*
X134611727Y-128577446D01*
X134593414Y-128620174D01*
X134570103Y-128661883D01*
X134566913Y-128668788D01*
X134527956Y-128773539D01*
X134527234Y-128775870D01*
X134466045Y-128971125D01*
X134464790Y-128975977D01*
X134455443Y-129021509D01*
X134440994Y-129067060D01*
X134439257Y-129074465D01*
X134422381Y-129183478D01*
X134422052Y-129186049D01*
X134401243Y-129390909D01*
X134400989Y-129395915D01*
X134400988Y-129606616D01*
X134401001Y-129606743D01*
X134401001Y-129901000D01*
X120102090Y-129901000D01*
X120060406Y-129898868D01*
X120053624Y-129897818D01*
X120046040Y-129897234D01*
X120028450Y-129897234D01*
X120002505Y-129895907D01*
X119999914Y-129895842D01*
X119985722Y-129895860D01*
X119980715Y-129896120D01*
X119969900Y-129897233D01*
X119935730Y-129897232D01*
X119933139Y-129897300D01*
X119532116Y-129918310D01*
X119527132Y-129918825D01*
X119522551Y-129919534D01*
X119429243Y-129928846D01*
X119426672Y-129929171D01*
X119029718Y-129989905D01*
X119024808Y-129990913D01*
X119020295Y-129992080D01*
X118928401Y-130010607D01*
X118925875Y-130011185D01*
X118536914Y-130111044D01*
X118532126Y-130112536D01*
X118527752Y-130114145D01*
X118438150Y-130141708D01*
X118435694Y-130142535D01*
X118058576Y-130280532D01*
X118053962Y-130282491D01*
X118049745Y-130284538D01*
X117963351Y-130320852D01*
X117960989Y-130321919D01*
X117599440Y-130496689D01*
X117595039Y-130499099D01*
X117591058Y-130501548D01*
X117508692Y-130546266D01*
X117506447Y-130547562D01*
X117164044Y-130757376D01*
X117159908Y-130760208D01*
X117156208Y-130763027D01*
X117078663Y-130815725D01*
X117076558Y-130817237D01*
X116756690Y-131060020D01*
X116752858Y-131063246D01*
X116749447Y-131066426D01*
X116677526Y-131126560D01*
X116675582Y-131128274D01*
X116381408Y-131401626D01*
X116377914Y-131405219D01*
X116374831Y-131408728D01*
X116309245Y-131475699D01*
X116307480Y-131477598D01*
X116041908Y-131778818D01*
X116038786Y-131782744D01*
X116036086Y-131786516D01*
X115977460Y-131859691D01*
X115975893Y-131861756D01*
X115741552Y-132187863D01*
X115738835Y-132192078D01*
X115736526Y-132196095D01*
X115685457Y-132274733D01*
X115684103Y-132276943D01*
X115483309Y-132624709D01*
X115481027Y-132629168D01*
X115479114Y-132633424D01*
X115436114Y-132716731D01*
X115434986Y-132719064D01*
X115352835Y-132901000D01*
X109226672Y-132901000D01*
X108605971Y-132122404D01*
X107779301Y-131027843D01*
X106981537Y-129911975D01*
X106213277Y-128775636D01*
X105475016Y-127619563D01*
X104767287Y-126444585D01*
X104090555Y-125251480D01*
X103445283Y-124041065D01*
X102831893Y-122814122D01*
X102250864Y-121571612D01*
X101702545Y-120314289D01*
X101187335Y-119043062D01*
X100705565Y-117758750D01*
X100257603Y-116462331D01*
X99843689Y-115154501D01*
X99602286Y-114316053D01*
X174077082Y-114316053D01*
X174077082Y-116383947D01*
X174078035Y-116393627D01*
X174098576Y-116496886D01*
X174106038Y-116514903D01*
X174184251Y-116631959D01*
X174198041Y-116645749D01*
X174315097Y-116723962D01*
X174333114Y-116731424D01*
X174436373Y-116751965D01*
X174446053Y-116752918D01*
X177613947Y-116752918D01*
X177623627Y-116751965D01*
X177726886Y-116731424D01*
X177744903Y-116723962D01*
X177861959Y-116645749D01*
X177875749Y-116631959D01*
X177953962Y-116514903D01*
X177961424Y-116496886D01*
X177981965Y-116393627D01*
X177982918Y-116383947D01*
X177982918Y-114316053D01*
X177981965Y-114306373D01*
X177961424Y-114203114D01*
X177961343Y-114202918D01*
X178116007Y-114202918D01*
X178174000Y-114144925D01*
X178225999Y-114144925D01*
X178283992Y-114202918D01*
X178778894Y-114202918D01*
X178788574Y-114201965D01*
X178877291Y-114184317D01*
X178895308Y-114176855D01*
X178995871Y-114109660D01*
X179009660Y-114095871D01*
X179076855Y-113995308D01*
X179084317Y-113977291D01*
X179109958Y-113848390D01*
X179050549Y-113776000D01*
X178283993Y-113775999D01*
X178226000Y-113833992D01*
X178225999Y-114144925D01*
X178174000Y-114144925D01*
X178174001Y-113833993D01*
X178116008Y-113776000D01*
X177349452Y-113775999D01*
X177290042Y-113848389D01*
X177309673Y-113947082D01*
X174446053Y-113947082D01*
X174436373Y-113948035D01*
X174333114Y-113968576D01*
X174315097Y-113976038D01*
X174198041Y-114054251D01*
X174184251Y-114068041D01*
X174106038Y-114185097D01*
X174098576Y-114203114D01*
X174078035Y-114306373D01*
X174077082Y-114316053D01*
X99602286Y-114316053D01*
X99464194Y-113836431D01*
X99119315Y-112508808D01*
X98809307Y-111172618D01*
X98534382Y-109828763D01*
X98294737Y-108478216D01*
X98164932Y-107616053D01*
X174077082Y-107616053D01*
X174077082Y-109683947D01*
X174078035Y-109693627D01*
X174098576Y-109796886D01*
X174106038Y-109814903D01*
X174184251Y-109931959D01*
X174198041Y-109945749D01*
X174315097Y-110023962D01*
X174333114Y-110031424D01*
X174436373Y-110051965D01*
X174446053Y-110052918D01*
X177309674Y-110052918D01*
X177298035Y-110111426D01*
X177297082Y-110121106D01*
X177297082Y-110378894D01*
X177298035Y-110388574D01*
X177315683Y-110477291D01*
X177323146Y-110495308D01*
X177326281Y-110500000D01*
X177323146Y-110504692D01*
X177315683Y-110522709D01*
X177298035Y-110611426D01*
X177297082Y-110621106D01*
X177297082Y-110878894D01*
X177298035Y-110888574D01*
X177315683Y-110977291D01*
X177323146Y-110995308D01*
X177326281Y-111000000D01*
X177323146Y-111004692D01*
X177315683Y-111022709D01*
X177298035Y-111111426D01*
X177297082Y-111121106D01*
X177297082Y-111378894D01*
X177298035Y-111388574D01*
X177315683Y-111477291D01*
X177323146Y-111495308D01*
X177326281Y-111500000D01*
X177323146Y-111504692D01*
X177315683Y-111522709D01*
X177298035Y-111611426D01*
X177297082Y-111621106D01*
X177297082Y-111878894D01*
X177298035Y-111888574D01*
X177315683Y-111977291D01*
X177323146Y-111995308D01*
X177326281Y-112000000D01*
X177323146Y-112004692D01*
X177315683Y-112022709D01*
X177298035Y-112111426D01*
X177297082Y-112121106D01*
X177297082Y-112378894D01*
X177298035Y-112388574D01*
X177315683Y-112477291D01*
X177323146Y-112495308D01*
X177326281Y-112500000D01*
X177323146Y-112504692D01*
X177315683Y-112522709D01*
X177298035Y-112611426D01*
X177297082Y-112621106D01*
X177297082Y-112878894D01*
X177298035Y-112888574D01*
X177315683Y-112977291D01*
X177323146Y-112995308D01*
X177326281Y-113000000D01*
X177323146Y-113004692D01*
X177315683Y-113022709D01*
X177298035Y-113111426D01*
X177297082Y-113121106D01*
X177297082Y-113378894D01*
X177298035Y-113388574D01*
X177315683Y-113477291D01*
X177323146Y-113495308D01*
X177326281Y-113499999D01*
X177323145Y-113504692D01*
X177315683Y-113522709D01*
X177290042Y-113651610D01*
X177349451Y-113724000D01*
X178116008Y-113724001D01*
X178116009Y-113724000D01*
X179050548Y-113724001D01*
X179109957Y-113651611D01*
X179084318Y-113522709D01*
X179076855Y-113504692D01*
X179073719Y-113499999D01*
X179076854Y-113495308D01*
X179084317Y-113477291D01*
X179101965Y-113388574D01*
X179102918Y-113378894D01*
X179102918Y-113121106D01*
X179101965Y-113111426D01*
X179084317Y-113022709D01*
X179076854Y-113004692D01*
X179073719Y-113000000D01*
X179076854Y-112995308D01*
X179084317Y-112977291D01*
X179101965Y-112888574D01*
X179102918Y-112878894D01*
X179102918Y-112621106D01*
X179101965Y-112611426D01*
X179084317Y-112522709D01*
X179076854Y-112504692D01*
X179073719Y-112500000D01*
X179076854Y-112495308D01*
X179084317Y-112477291D01*
X179101965Y-112388574D01*
X179102918Y-112378894D01*
X179102918Y-112121106D01*
X179101965Y-112111426D01*
X179084317Y-112022709D01*
X179076854Y-112004692D01*
X179073719Y-112000000D01*
X179076854Y-111995308D01*
X179084317Y-111977291D01*
X179101965Y-111888574D01*
X179102918Y-111878894D01*
X179102918Y-111621106D01*
X179101965Y-111611426D01*
X179084317Y-111522709D01*
X179076854Y-111504692D01*
X179073719Y-111500000D01*
X179076854Y-111495308D01*
X179084317Y-111477291D01*
X179101965Y-111388574D01*
X179102918Y-111378894D01*
X179102918Y-111121106D01*
X179101965Y-111111426D01*
X179084317Y-111022709D01*
X179076854Y-111004692D01*
X179073719Y-111000000D01*
X179076854Y-110995308D01*
X179084317Y-110977291D01*
X179101965Y-110888574D01*
X179102918Y-110878894D01*
X179102918Y-110621106D01*
X179101965Y-110611426D01*
X179084317Y-110522709D01*
X179076854Y-110504692D01*
X179073719Y-110500000D01*
X179076854Y-110495308D01*
X179084317Y-110477291D01*
X179101965Y-110388574D01*
X179102918Y-110378894D01*
X179102918Y-110121106D01*
X179101965Y-110111426D01*
X179084317Y-110022709D01*
X179076855Y-110004692D01*
X179009660Y-109904129D01*
X178995871Y-109890340D01*
X178895308Y-109823145D01*
X178877291Y-109815683D01*
X178788574Y-109798035D01*
X178778894Y-109797082D01*
X178415631Y-109797082D01*
X178418743Y-109794867D01*
X178432119Y-109780677D01*
X178482105Y-109700858D01*
X178486435Y-109692148D01*
X178679760Y-109183398D01*
X178682179Y-109174736D01*
X178697985Y-109088650D01*
X178697846Y-109069888D01*
X178678592Y-108973087D01*
X178671129Y-108955070D01*
X178616090Y-108872699D01*
X178602301Y-108858910D01*
X178519930Y-108803871D01*
X178501913Y-108796408D01*
X178409544Y-108778035D01*
X178399863Y-108777082D01*
X178000503Y-108777082D01*
X177991546Y-108777897D01*
X177982918Y-108779481D01*
X177982918Y-107616053D01*
X177981965Y-107606373D01*
X177961424Y-107503114D01*
X177953962Y-107485097D01*
X177875749Y-107368041D01*
X177861959Y-107354251D01*
X177744903Y-107276038D01*
X177726886Y-107268576D01*
X177623627Y-107248035D01*
X177613947Y-107247082D01*
X174446053Y-107247082D01*
X174436373Y-107248035D01*
X174333114Y-107268576D01*
X174315097Y-107276038D01*
X174198041Y-107354251D01*
X174184251Y-107368041D01*
X174106038Y-107485097D01*
X174098576Y-107503114D01*
X174078035Y-107606373D01*
X174077082Y-107616053D01*
X98164932Y-107616053D01*
X98090518Y-107121803D01*
X97921879Y-105760525D01*
X97788929Y-104395278D01*
X97691766Y-103027074D01*
X97630452Y-101656766D01*
X97604922Y-100279626D01*
X97604177Y-100005692D01*
X97606707Y-99812405D01*
X105498568Y-99812405D01*
X105501485Y-100090920D01*
X105504032Y-100334180D01*
X105504210Y-100337891D01*
X105548780Y-100857789D01*
X105549237Y-100861476D01*
X105632664Y-101376568D01*
X105633395Y-101380211D01*
X105755207Y-101887597D01*
X105756209Y-101891175D01*
X105915723Y-102388000D01*
X105916991Y-102391492D01*
X106113306Y-102874958D01*
X106114832Y-102878346D01*
X106346845Y-103345732D01*
X106348620Y-103348995D01*
X106615023Y-103797670D01*
X106617038Y-103800791D01*
X106916334Y-104228228D01*
X106918577Y-104231189D01*
X107249077Y-104634982D01*
X107251537Y-104637767D01*
X107611383Y-105015644D01*
X107614044Y-105018236D01*
X108001211Y-105368067D01*
X108004059Y-105370453D01*
X108416365Y-105690270D01*
X108419384Y-105692435D01*
X108854509Y-105980439D01*
X108857682Y-105982372D01*
X109313177Y-106236939D01*
X109316485Y-106238628D01*
X109789784Y-106458327D01*
X109793211Y-106459763D01*
X110281651Y-106643356D01*
X110285175Y-106644531D01*
X110786005Y-106790984D01*
X110789608Y-106791892D01*
X111300009Y-106900382D01*
X111303669Y-106901017D01*
X111820769Y-106970932D01*
X111824467Y-106971292D01*
X112345352Y-107002238D01*
X112349067Y-107002319D01*
X112870807Y-106994123D01*
X112874517Y-106993925D01*
X113394174Y-106946632D01*
X113397858Y-106946157D01*
X113912506Y-106860035D01*
X113916145Y-106859284D01*
X114422887Y-106734817D01*
X114426459Y-106733796D01*
X114922442Y-106571684D01*
X114925928Y-106570398D01*
X115408360Y-106371553D01*
X115411739Y-106370009D01*
X115877904Y-106135553D01*
X115881158Y-106133760D01*
X116328431Y-105865012D01*
X116331542Y-105862980D01*
X116757406Y-105561451D01*
X116760356Y-105559192D01*
X117162412Y-105226582D01*
X117165184Y-105224108D01*
X117541171Y-104862287D01*
X117543750Y-104859613D01*
X117891549Y-104470621D01*
X117893920Y-104467760D01*
X118211574Y-104053784D01*
X118213724Y-104050754D01*
X118499444Y-103614127D01*
X118501360Y-103610944D01*
X118753539Y-103154124D01*
X118755211Y-103150806D01*
X118972429Y-102676363D01*
X118973848Y-102672929D01*
X119105859Y-102316053D01*
X174077082Y-102316053D01*
X174077082Y-104383947D01*
X174078035Y-104393627D01*
X174098576Y-104496886D01*
X174106038Y-104514903D01*
X174184251Y-104631959D01*
X174198041Y-104645749D01*
X174315097Y-104723962D01*
X174333114Y-104731424D01*
X174436373Y-104751965D01*
X174446053Y-104752918D01*
X177613947Y-104752918D01*
X177623627Y-104751965D01*
X177726886Y-104731424D01*
X177744903Y-104723962D01*
X177861959Y-104645749D01*
X177875749Y-104631959D01*
X177953962Y-104514903D01*
X177961424Y-104496886D01*
X177981965Y-104393627D01*
X177982918Y-104383947D01*
X177982918Y-102316053D01*
X177981965Y-102306373D01*
X177961424Y-102203114D01*
X177961343Y-102202918D01*
X178116007Y-102202918D01*
X178174000Y-102144925D01*
X178225999Y-102144925D01*
X178283992Y-102202918D01*
X178778894Y-102202918D01*
X178788574Y-102201965D01*
X178877291Y-102184317D01*
X178895308Y-102176855D01*
X178995871Y-102109660D01*
X179009660Y-102095871D01*
X179076855Y-101995308D01*
X179084317Y-101977291D01*
X179109958Y-101848390D01*
X179050549Y-101776000D01*
X178283993Y-101775999D01*
X178226000Y-101833992D01*
X178225999Y-102144925D01*
X178174000Y-102144925D01*
X178174001Y-101833993D01*
X178116008Y-101776000D01*
X177349452Y-101775999D01*
X177290042Y-101848389D01*
X177309673Y-101947082D01*
X174446053Y-101947082D01*
X174436373Y-101948035D01*
X174333114Y-101968576D01*
X174315097Y-101976038D01*
X174198041Y-102054251D01*
X174184251Y-102068041D01*
X174106038Y-102185097D01*
X174098576Y-102203114D01*
X174078035Y-102306373D01*
X174077082Y-102316053D01*
X119105859Y-102316053D01*
X119154880Y-102183534D01*
X119156037Y-102180004D01*
X119299866Y-101678414D01*
X119300755Y-101674807D01*
X119406571Y-101163844D01*
X119407187Y-101160180D01*
X119474479Y-100642058D01*
X119474873Y-100637019D01*
X119499116Y-99741107D01*
X119498995Y-99736054D01*
X119459821Y-99215050D01*
X119459404Y-99211358D01*
X119381375Y-98695421D01*
X119380682Y-98691771D01*
X119264190Y-98183136D01*
X119263225Y-98179549D01*
X119108923Y-97681080D01*
X119107692Y-97677575D01*
X118916449Y-97192079D01*
X118914959Y-97188676D01*
X118687854Y-96718886D01*
X118686113Y-96715604D01*
X118424422Y-96264164D01*
X118422440Y-96261022D01*
X118127638Y-95830474D01*
X118125425Y-95827490D01*
X117956033Y-95616053D01*
X174077082Y-95616053D01*
X174077082Y-97683947D01*
X174078035Y-97693627D01*
X174098576Y-97796886D01*
X174106038Y-97814903D01*
X174184251Y-97931959D01*
X174198041Y-97945749D01*
X174315097Y-98023962D01*
X174333114Y-98031424D01*
X174436373Y-98051965D01*
X174446053Y-98052918D01*
X177309674Y-98052918D01*
X177298035Y-98111426D01*
X177297082Y-98121106D01*
X177297082Y-98378894D01*
X177298035Y-98388574D01*
X177315683Y-98477291D01*
X177323146Y-98495308D01*
X177326281Y-98500000D01*
X177323146Y-98504692D01*
X177315683Y-98522709D01*
X177298035Y-98611426D01*
X177297082Y-98621106D01*
X177297082Y-98878894D01*
X177298035Y-98888574D01*
X177315683Y-98977291D01*
X177323146Y-98995308D01*
X177326281Y-99000000D01*
X177323146Y-99004692D01*
X177315683Y-99022709D01*
X177298035Y-99111426D01*
X177297082Y-99121106D01*
X177297082Y-99378894D01*
X177298035Y-99388574D01*
X177315683Y-99477291D01*
X177323146Y-99495308D01*
X177326281Y-99500000D01*
X177323146Y-99504692D01*
X177315683Y-99522709D01*
X177298035Y-99611426D01*
X177297082Y-99621106D01*
X177297082Y-99878894D01*
X177298035Y-99888574D01*
X177315683Y-99977291D01*
X177323146Y-99995308D01*
X177326281Y-100000000D01*
X177323146Y-100004692D01*
X177315683Y-100022709D01*
X177298035Y-100111426D01*
X177297082Y-100121106D01*
X177297082Y-100378894D01*
X177298035Y-100388574D01*
X177315683Y-100477291D01*
X177323146Y-100495308D01*
X177326281Y-100500000D01*
X177323146Y-100504692D01*
X177315683Y-100522709D01*
X177298035Y-100611426D01*
X177297082Y-100621106D01*
X177297082Y-100878894D01*
X177298035Y-100888574D01*
X177315683Y-100977291D01*
X177323146Y-100995308D01*
X177326281Y-101000000D01*
X177323146Y-101004692D01*
X177315683Y-101022709D01*
X177298035Y-101111426D01*
X177297082Y-101121106D01*
X177297082Y-101378894D01*
X177298035Y-101388574D01*
X177315683Y-101477291D01*
X177323146Y-101495308D01*
X177326281Y-101499999D01*
X177323145Y-101504692D01*
X177315683Y-101522709D01*
X177290042Y-101651610D01*
X177349451Y-101724000D01*
X178116008Y-101724001D01*
X178116009Y-101724000D01*
X179050548Y-101724001D01*
X179109957Y-101651611D01*
X179084318Y-101522709D01*
X179076855Y-101504692D01*
X179073719Y-101499999D01*
X179076854Y-101495308D01*
X179084317Y-101477291D01*
X179101965Y-101388574D01*
X179102918Y-101378894D01*
X179102918Y-101121106D01*
X179101965Y-101111426D01*
X179084317Y-101022709D01*
X179076854Y-101004692D01*
X179073719Y-101000000D01*
X179076854Y-100995308D01*
X179084317Y-100977291D01*
X179101965Y-100888574D01*
X179102918Y-100878894D01*
X179102918Y-100621106D01*
X179101965Y-100611426D01*
X179084317Y-100522709D01*
X179076854Y-100504692D01*
X179073719Y-100500000D01*
X179076854Y-100495308D01*
X179084317Y-100477291D01*
X179101965Y-100388574D01*
X179102918Y-100378894D01*
X179102918Y-100121106D01*
X179101965Y-100111426D01*
X179084317Y-100022709D01*
X179076854Y-100004692D01*
X179073719Y-100000000D01*
X179076854Y-99995308D01*
X179084317Y-99977291D01*
X179101965Y-99888574D01*
X179102918Y-99878894D01*
X179102918Y-99812405D01*
X180498568Y-99812405D01*
X180501485Y-100090920D01*
X180504032Y-100334180D01*
X180504210Y-100337891D01*
X180548780Y-100857789D01*
X180549237Y-100861476D01*
X180632664Y-101376568D01*
X180633395Y-101380211D01*
X180755207Y-101887597D01*
X180756209Y-101891175D01*
X180915723Y-102388000D01*
X180916991Y-102391492D01*
X181113306Y-102874958D01*
X181114832Y-102878346D01*
X181346845Y-103345732D01*
X181348620Y-103348995D01*
X181615023Y-103797670D01*
X181617038Y-103800791D01*
X181916334Y-104228228D01*
X181918577Y-104231189D01*
X182249077Y-104634982D01*
X182251537Y-104637767D01*
X182611383Y-105015644D01*
X182614044Y-105018236D01*
X183001211Y-105368067D01*
X183004059Y-105370453D01*
X183416365Y-105690270D01*
X183419384Y-105692435D01*
X183854509Y-105980439D01*
X183857682Y-105982372D01*
X184313177Y-106236939D01*
X184316485Y-106238628D01*
X184789784Y-106458327D01*
X184793211Y-106459763D01*
X185281651Y-106643356D01*
X185285175Y-106644531D01*
X185786005Y-106790984D01*
X185789608Y-106791892D01*
X186300009Y-106900382D01*
X186303669Y-106901017D01*
X186820769Y-106970932D01*
X186824467Y-106971292D01*
X187345352Y-107002238D01*
X187349067Y-107002319D01*
X187870807Y-106994123D01*
X187874517Y-106993925D01*
X188394174Y-106946632D01*
X188397858Y-106946157D01*
X188912506Y-106860035D01*
X188916145Y-106859284D01*
X189422887Y-106734817D01*
X189426459Y-106733796D01*
X189922442Y-106571684D01*
X189925928Y-106570398D01*
X190408360Y-106371553D01*
X190411739Y-106370009D01*
X190877904Y-106135553D01*
X190881158Y-106133760D01*
X191328431Y-105865012D01*
X191331542Y-105862980D01*
X191757406Y-105561451D01*
X191760356Y-105559192D01*
X192162412Y-105226582D01*
X192165184Y-105224108D01*
X192541171Y-104862287D01*
X192543750Y-104859613D01*
X192891549Y-104470621D01*
X192893920Y-104467760D01*
X193211574Y-104053784D01*
X193213724Y-104050754D01*
X193499444Y-103614127D01*
X193501360Y-103610944D01*
X193753539Y-103154124D01*
X193755211Y-103150806D01*
X193972429Y-102676363D01*
X193973848Y-102672929D01*
X194154880Y-102183534D01*
X194156037Y-102180004D01*
X194299866Y-101678414D01*
X194300755Y-101674807D01*
X194406571Y-101163844D01*
X194407187Y-101160180D01*
X194474479Y-100642058D01*
X194474873Y-100637019D01*
X194499116Y-99741107D01*
X194498995Y-99736054D01*
X194459821Y-99215050D01*
X194459404Y-99211358D01*
X194381375Y-98695421D01*
X194380682Y-98691771D01*
X194264190Y-98183136D01*
X194263225Y-98179549D01*
X194108923Y-97681080D01*
X194107692Y-97677575D01*
X193916449Y-97192079D01*
X193914959Y-97188676D01*
X193687854Y-96718886D01*
X193686113Y-96715604D01*
X193424422Y-96264164D01*
X193422440Y-96261022D01*
X193127638Y-95830474D01*
X193125425Y-95827490D01*
X192799171Y-95420258D01*
X192796741Y-95417448D01*
X192440871Y-95035825D01*
X192438237Y-95033204D01*
X192054756Y-94679338D01*
X192051933Y-94676922D01*
X191642999Y-94352804D01*
X191640002Y-94350607D01*
X191207917Y-94058064D01*
X191204764Y-94056098D01*
X190751960Y-93796775D01*
X190748669Y-93795051D01*
X190277697Y-93570408D01*
X190274286Y-93568936D01*
X189787796Y-93380239D01*
X189784284Y-93379026D01*
X189285014Y-93227336D01*
X189281421Y-93226391D01*
X188772184Y-93112562D01*
X188768530Y-93111888D01*
X188252192Y-93036563D01*
X188248498Y-93036165D01*
X187727965Y-92999766D01*
X187724251Y-92999646D01*
X187202455Y-93002378D01*
X187198743Y-93002537D01*
X186678620Y-93044385D01*
X186674930Y-93044822D01*
X186159408Y-93125550D01*
X186155762Y-93126262D01*
X185647745Y-93245417D01*
X185644162Y-93246400D01*
X185146508Y-93403310D01*
X185143009Y-93404559D01*
X184658522Y-93598340D01*
X184655126Y-93599848D01*
X184186532Y-93829411D01*
X184183259Y-93831169D01*
X183733195Y-94095219D01*
X183730064Y-94097218D01*
X183301066Y-94394271D01*
X183298093Y-94396499D01*
X182892575Y-94724881D01*
X182889777Y-94727325D01*
X182510022Y-95085189D01*
X182507416Y-95087836D01*
X182155562Y-95473165D01*
X182153162Y-95476001D01*
X181831189Y-95886627D01*
X181829008Y-95889635D01*
X181538731Y-96323245D01*
X181536782Y-96326408D01*
X181279833Y-96780564D01*
X181278126Y-96783864D01*
X181055952Y-97256006D01*
X181054497Y-97259425D01*
X180868351Y-97746897D01*
X180867157Y-97750415D01*
X180718083Y-98250471D01*
X180717156Y-98254069D01*
X180605996Y-98763896D01*
X180605341Y-98767553D01*
X180532720Y-99284278D01*
X180532341Y-99287975D01*
X180498668Y-99808691D01*
X180498568Y-99812405D01*
X179102918Y-99812405D01*
X179102918Y-99621106D01*
X179101965Y-99611426D01*
X179084317Y-99522709D01*
X179076854Y-99504692D01*
X179073719Y-99500000D01*
X179076854Y-99495308D01*
X179084317Y-99477291D01*
X179101965Y-99388574D01*
X179102918Y-99378894D01*
X179102918Y-99121106D01*
X179101965Y-99111426D01*
X179084317Y-99022709D01*
X179076854Y-99004692D01*
X179073719Y-99000000D01*
X179076854Y-98995308D01*
X179084317Y-98977291D01*
X179101965Y-98888574D01*
X179102918Y-98878894D01*
X179102918Y-98621106D01*
X179101965Y-98611426D01*
X179084317Y-98522709D01*
X179076854Y-98504692D01*
X179073719Y-98500000D01*
X179076854Y-98495308D01*
X179084317Y-98477291D01*
X179101965Y-98388574D01*
X179102918Y-98378894D01*
X179102918Y-98121106D01*
X179101965Y-98111426D01*
X179084317Y-98022709D01*
X179076855Y-98004692D01*
X179009660Y-97904129D01*
X178995871Y-97890340D01*
X178895308Y-97823145D01*
X178877291Y-97815683D01*
X178788574Y-97798035D01*
X178778894Y-97797082D01*
X178415631Y-97797082D01*
X178418743Y-97794867D01*
X178432119Y-97780677D01*
X178482105Y-97700858D01*
X178486435Y-97692148D01*
X178679760Y-97183398D01*
X178682179Y-97174736D01*
X178697985Y-97088650D01*
X178697846Y-97069888D01*
X178678592Y-96973087D01*
X178671129Y-96955070D01*
X178616090Y-96872699D01*
X178602301Y-96858910D01*
X178519930Y-96803871D01*
X178501913Y-96796408D01*
X178409544Y-96778035D01*
X178399863Y-96777082D01*
X178000503Y-96777082D01*
X177991546Y-96777897D01*
X177982918Y-96779481D01*
X177982918Y-95616053D01*
X177981965Y-95606373D01*
X177961424Y-95503114D01*
X177953962Y-95485097D01*
X177875749Y-95368041D01*
X177861959Y-95354251D01*
X177744903Y-95276038D01*
X177726886Y-95268576D01*
X177623627Y-95248035D01*
X177613947Y-95247082D01*
X174446053Y-95247082D01*
X174436373Y-95248035D01*
X174333114Y-95268576D01*
X174315097Y-95276038D01*
X174198041Y-95354251D01*
X174184251Y-95368041D01*
X174106038Y-95485097D01*
X174098576Y-95503114D01*
X174078035Y-95606373D01*
X174077082Y-95616053D01*
X117956033Y-95616053D01*
X117799171Y-95420258D01*
X117796741Y-95417448D01*
X117440871Y-95035825D01*
X117438237Y-95033204D01*
X117054756Y-94679338D01*
X117051933Y-94676922D01*
X116642999Y-94352804D01*
X116640002Y-94350607D01*
X116207917Y-94058064D01*
X116204764Y-94056098D01*
X115751960Y-93796775D01*
X115748669Y-93795051D01*
X115277697Y-93570408D01*
X115274286Y-93568936D01*
X114787796Y-93380239D01*
X114784284Y-93379026D01*
X114285014Y-93227336D01*
X114281421Y-93226391D01*
X113772184Y-93112562D01*
X113768530Y-93111888D01*
X113252192Y-93036563D01*
X113248498Y-93036165D01*
X112727965Y-92999766D01*
X112724251Y-92999646D01*
X112202455Y-93002378D01*
X112198743Y-93002537D01*
X111678620Y-93044385D01*
X111674930Y-93044822D01*
X111159408Y-93125550D01*
X111155762Y-93126262D01*
X110647745Y-93245417D01*
X110644162Y-93246400D01*
X110146508Y-93403310D01*
X110143009Y-93404559D01*
X109658522Y-93598340D01*
X109655126Y-93599848D01*
X109186532Y-93829411D01*
X109183259Y-93831169D01*
X108733195Y-94095219D01*
X108730064Y-94097218D01*
X108301066Y-94394271D01*
X108298093Y-94396499D01*
X107892575Y-94724881D01*
X107889777Y-94727325D01*
X107510022Y-95085189D01*
X107507416Y-95087836D01*
X107155562Y-95473165D01*
X107153162Y-95476001D01*
X106831189Y-95886627D01*
X106829008Y-95889635D01*
X106538731Y-96323245D01*
X106536782Y-96326408D01*
X106279833Y-96780564D01*
X106278126Y-96783864D01*
X106055952Y-97256006D01*
X106054497Y-97259425D01*
X105868351Y-97746897D01*
X105867157Y-97750415D01*
X105718083Y-98250471D01*
X105717156Y-98254069D01*
X105605996Y-98763896D01*
X105605341Y-98767553D01*
X105532720Y-99284278D01*
X105532341Y-99287975D01*
X105498668Y-99808691D01*
X105498568Y-99812405D01*
X97606707Y-99812405D01*
X97622206Y-98628425D01*
X97676058Y-97257812D01*
X97765769Y-95889077D01*
X97891279Y-94523168D01*
X98052509Y-93160946D01*
X98249325Y-91803531D01*
X98481626Y-90451615D01*
X98508590Y-90316053D01*
X174077082Y-90316053D01*
X174077082Y-92383947D01*
X174078035Y-92393627D01*
X174098576Y-92496886D01*
X174106038Y-92514903D01*
X174184251Y-92631959D01*
X174198041Y-92645749D01*
X174315097Y-92723962D01*
X174333114Y-92731424D01*
X174436373Y-92751965D01*
X174446053Y-92752918D01*
X177613947Y-92752918D01*
X177623627Y-92751965D01*
X177726886Y-92731424D01*
X177744903Y-92723962D01*
X177861959Y-92645749D01*
X177875749Y-92631959D01*
X177953962Y-92514903D01*
X177961424Y-92496886D01*
X177981965Y-92393627D01*
X177982918Y-92383947D01*
X177982918Y-90316053D01*
X177981965Y-90306373D01*
X177961424Y-90203114D01*
X177961343Y-90202918D01*
X178116007Y-90202918D01*
X178174000Y-90144925D01*
X178225999Y-90144925D01*
X178283992Y-90202918D01*
X178778894Y-90202918D01*
X178788574Y-90201965D01*
X178877291Y-90184317D01*
X178895308Y-90176855D01*
X178995871Y-90109660D01*
X179009660Y-90095871D01*
X179076855Y-89995308D01*
X179084317Y-89977291D01*
X179109958Y-89848390D01*
X179050549Y-89776000D01*
X178283993Y-89775999D01*
X178226000Y-89833992D01*
X178225999Y-90144925D01*
X178174000Y-90144925D01*
X178174001Y-89833993D01*
X178116008Y-89776000D01*
X177349452Y-89775999D01*
X177290042Y-89848389D01*
X177309673Y-89947082D01*
X174446053Y-89947082D01*
X174436373Y-89948035D01*
X174333114Y-89968576D01*
X174315097Y-89976038D01*
X174198041Y-90054251D01*
X174184251Y-90068041D01*
X174106038Y-90185097D01*
X174098576Y-90203114D01*
X174078035Y-90306373D01*
X174077082Y-90316053D01*
X98508590Y-90316053D01*
X98749225Y-89106304D01*
X99051948Y-87768459D01*
X99389589Y-86438996D01*
X99761923Y-85118797D01*
X100168692Y-83808790D01*
X100234117Y-83616053D01*
X174077082Y-83616053D01*
X174077082Y-85683947D01*
X174078035Y-85693627D01*
X174098576Y-85796886D01*
X174106038Y-85814903D01*
X174184251Y-85931959D01*
X174198041Y-85945749D01*
X174315097Y-86023962D01*
X174333114Y-86031424D01*
X174436373Y-86051965D01*
X174446053Y-86052918D01*
X177309674Y-86052918D01*
X177298035Y-86111426D01*
X177297082Y-86121106D01*
X177297082Y-86378894D01*
X177298035Y-86388574D01*
X177315683Y-86477291D01*
X177323146Y-86495308D01*
X177326281Y-86500000D01*
X177323146Y-86504692D01*
X177315683Y-86522709D01*
X177298035Y-86611426D01*
X177297082Y-86621106D01*
X177297082Y-86878894D01*
X177298035Y-86888574D01*
X177315683Y-86977291D01*
X177323146Y-86995308D01*
X177326281Y-87000000D01*
X177323146Y-87004692D01*
X177315683Y-87022709D01*
X177298035Y-87111426D01*
X177297082Y-87121106D01*
X177297082Y-87378894D01*
X177298035Y-87388574D01*
X177315683Y-87477291D01*
X177323146Y-87495308D01*
X177326281Y-87500000D01*
X177323146Y-87504692D01*
X177315683Y-87522709D01*
X177298035Y-87611426D01*
X177297082Y-87621106D01*
X177297082Y-87878894D01*
X177298035Y-87888574D01*
X177315683Y-87977291D01*
X177323146Y-87995308D01*
X177326281Y-88000000D01*
X177323146Y-88004692D01*
X177315683Y-88022709D01*
X177298035Y-88111426D01*
X177297082Y-88121106D01*
X177297082Y-88378894D01*
X177298035Y-88388574D01*
X177315683Y-88477291D01*
X177323146Y-88495308D01*
X177326281Y-88500000D01*
X177323146Y-88504692D01*
X177315683Y-88522709D01*
X177298035Y-88611426D01*
X177297082Y-88621106D01*
X177297082Y-88878894D01*
X177298035Y-88888574D01*
X177315683Y-88977291D01*
X177323146Y-88995308D01*
X177326281Y-89000000D01*
X177323146Y-89004692D01*
X177315683Y-89022709D01*
X177298035Y-89111426D01*
X177297082Y-89121106D01*
X177297082Y-89378894D01*
X177298035Y-89388574D01*
X177315683Y-89477291D01*
X177323146Y-89495308D01*
X177326281Y-89499999D01*
X177323145Y-89504692D01*
X177315683Y-89522709D01*
X177290042Y-89651610D01*
X177349451Y-89724000D01*
X178116008Y-89724001D01*
X178116009Y-89724000D01*
X179050548Y-89724001D01*
X179109957Y-89651611D01*
X179084318Y-89522709D01*
X179076855Y-89504692D01*
X179073719Y-89499999D01*
X179076854Y-89495308D01*
X179084317Y-89477291D01*
X179101965Y-89388574D01*
X179102918Y-89378894D01*
X179102918Y-89121106D01*
X179101965Y-89111426D01*
X179084317Y-89022709D01*
X179076854Y-89004692D01*
X179073719Y-89000000D01*
X179076854Y-88995308D01*
X179084317Y-88977291D01*
X179101965Y-88888574D01*
X179102918Y-88878894D01*
X179102918Y-88621106D01*
X179101965Y-88611426D01*
X179084317Y-88522709D01*
X179076854Y-88504692D01*
X179073719Y-88500000D01*
X179076854Y-88495308D01*
X179084317Y-88477291D01*
X179101965Y-88388574D01*
X179102918Y-88378894D01*
X179102918Y-88121106D01*
X179101965Y-88111426D01*
X179084317Y-88022709D01*
X179076854Y-88004692D01*
X179073719Y-88000000D01*
X179076854Y-87995308D01*
X179084317Y-87977291D01*
X179101965Y-87888574D01*
X179102918Y-87878894D01*
X179102918Y-87621106D01*
X179101965Y-87611426D01*
X179084317Y-87522709D01*
X179076854Y-87504692D01*
X179073719Y-87500000D01*
X179076854Y-87495308D01*
X179084317Y-87477291D01*
X179101965Y-87388574D01*
X179102918Y-87378894D01*
X179102918Y-87121106D01*
X179101965Y-87111426D01*
X179084317Y-87022709D01*
X179076854Y-87004692D01*
X179073719Y-87000000D01*
X179076854Y-86995308D01*
X179084317Y-86977291D01*
X179101965Y-86888574D01*
X179102918Y-86878894D01*
X179102918Y-86621106D01*
X179101965Y-86611426D01*
X179084317Y-86522709D01*
X179076854Y-86504692D01*
X179073719Y-86500000D01*
X179076854Y-86495308D01*
X179084317Y-86477291D01*
X179101965Y-86388574D01*
X179102918Y-86378894D01*
X179102918Y-86121106D01*
X179101965Y-86111426D01*
X179084317Y-86022709D01*
X179076855Y-86004692D01*
X179009660Y-85904129D01*
X178995871Y-85890340D01*
X178895308Y-85823145D01*
X178877291Y-85815683D01*
X178788574Y-85798035D01*
X178778894Y-85797082D01*
X178415631Y-85797082D01*
X178418743Y-85794867D01*
X178432119Y-85780677D01*
X178482105Y-85700858D01*
X178486435Y-85692148D01*
X178679760Y-85183398D01*
X178682179Y-85174736D01*
X178697985Y-85088650D01*
X178697846Y-85069888D01*
X178678592Y-84973087D01*
X178671129Y-84955070D01*
X178616090Y-84872699D01*
X178602301Y-84858910D01*
X178519930Y-84803871D01*
X178501913Y-84796408D01*
X178409544Y-84778035D01*
X178399863Y-84777082D01*
X178000503Y-84777082D01*
X177991546Y-84777897D01*
X177982918Y-84779481D01*
X177982918Y-83616053D01*
X177981965Y-83606373D01*
X177961424Y-83503114D01*
X177953962Y-83485097D01*
X177875749Y-83368041D01*
X177861959Y-83354251D01*
X177744903Y-83276038D01*
X177726886Y-83268576D01*
X177623627Y-83248035D01*
X177613947Y-83247082D01*
X174446053Y-83247082D01*
X174436373Y-83248035D01*
X174333114Y-83268576D01*
X174315097Y-83276038D01*
X174198041Y-83354251D01*
X174184251Y-83368041D01*
X174106038Y-83485097D01*
X174098576Y-83503114D01*
X174078035Y-83606373D01*
X174077082Y-83616053D01*
X100234117Y-83616053D01*
X100609581Y-82509972D01*
X101084367Y-81223008D01*
X101592644Y-79949001D01*
X102134099Y-78688734D01*
X102708363Y-77443058D01*
X103315047Y-76212823D01*
X103953716Y-74998914D01*
X104623943Y-73802136D01*
X105325279Y-72623299D01*
X106057223Y-71463237D01*
X106819283Y-70322731D01*
X107610950Y-69202549D01*
X108431683Y-68103454D01*
X109223533Y-67098998D01*
X115352819Y-67099001D01*
X115441430Y-67293890D01*
X115443734Y-67298344D01*
X115446075Y-67302356D01*
X115488859Y-67385783D01*
X115490101Y-67388058D01*
X115691797Y-67735303D01*
X115694531Y-67739505D01*
X115697272Y-67743285D01*
X115748118Y-67822031D01*
X115749580Y-67824170D01*
X115984768Y-68149668D01*
X115987907Y-68153580D01*
X115991001Y-68157058D01*
X116049425Y-68230376D01*
X116051093Y-68232360D01*
X116317447Y-68532889D01*
X116320961Y-68536470D01*
X116324388Y-68539627D01*
X116389796Y-68606770D01*
X116391653Y-68608579D01*
X116686535Y-68881166D01*
X116690379Y-68884375D01*
X116694100Y-68887174D01*
X116765873Y-68947505D01*
X116767900Y-68949120D01*
X117088399Y-69191071D01*
X117092545Y-69193883D01*
X117096517Y-69196293D01*
X117173929Y-69249199D01*
X117176106Y-69250604D01*
X117519051Y-69459528D01*
X117523455Y-69461914D01*
X117527667Y-69463928D01*
X117609931Y-69508872D01*
X117612236Y-69510054D01*
X117974237Y-69683885D01*
X117978861Y-69685824D01*
X117983226Y-69687400D01*
X118069570Y-69723961D01*
X118071982Y-69724909D01*
X118449459Y-69861925D01*
X118454251Y-69863395D01*
X118458771Y-69864535D01*
X118548295Y-69892332D01*
X118550790Y-69893036D01*
X118940006Y-69991885D01*
X118944920Y-69992871D01*
X118949535Y-69993556D01*
X119041381Y-70012326D01*
X119043933Y-70012778D01*
X119441042Y-70072480D01*
X119446027Y-70072973D01*
X119450687Y-70073198D01*
X119543942Y-70082753D01*
X119546526Y-70082949D01*
X119947602Y-70102916D01*
X119952612Y-70102912D01*
X119962791Y-70102388D01*
X120039463Y-70103390D01*
X120042055Y-70103357D01*
X120359689Y-70090876D01*
X120364679Y-70090427D01*
X120374773Y-70089000D01*
X120451227Y-70083184D01*
X120453806Y-70082919D01*
X120852081Y-70031546D01*
X120857017Y-70030653D01*
X120861554Y-70029592D01*
X120953856Y-70013234D01*
X120956396Y-70012715D01*
X121347595Y-69922040D01*
X121352410Y-69920664D01*
X121356805Y-69919164D01*
X121447054Y-69893710D01*
X121449530Y-69892942D01*
X121829792Y-69763859D01*
X121834454Y-69762008D01*
X121838668Y-69760083D01*
X121925941Y-69725792D01*
X121928327Y-69724781D01*
X122293890Y-69558570D01*
X122298344Y-69556266D01*
X122302356Y-69553925D01*
X122385783Y-69511141D01*
X122388058Y-69509899D01*
X122735303Y-69308203D01*
X122739505Y-69305469D01*
X122743285Y-69302728D01*
X122822031Y-69251882D01*
X122824170Y-69250420D01*
X123149668Y-69015232D01*
X123153580Y-69012093D01*
X123157058Y-69008999D01*
X123230376Y-68950575D01*
X123232360Y-68948907D01*
X123532889Y-68682553D01*
X123536470Y-68679039D01*
X123539627Y-68675612D01*
X123606770Y-68610204D01*
X123608579Y-68608347D01*
X123881166Y-68313465D01*
X123884375Y-68309621D01*
X123887174Y-68305900D01*
X123947505Y-68234127D01*
X123949120Y-68232100D01*
X124191071Y-67911601D01*
X124193883Y-67907455D01*
X124196293Y-67903483D01*
X124249199Y-67826071D01*
X124250604Y-67823894D01*
X124459528Y-67480949D01*
X124461914Y-67476545D01*
X124463928Y-67472333D01*
X124508872Y-67390069D01*
X124510054Y-67387764D01*
X124683885Y-67025763D01*
X124685824Y-67021139D01*
X124687400Y-67016774D01*
X124723961Y-66930430D01*
X124724909Y-66928018D01*
X124861925Y-66550541D01*
X124863395Y-66545749D01*
X124864535Y-66541229D01*
X124892332Y-66451705D01*
X124893036Y-66449210D01*
X124991885Y-66059994D01*
X124992871Y-66055080D01*
X124993556Y-66050465D01*
X125012326Y-65958619D01*
X125012778Y-65956067D01*
X125072480Y-65558958D01*
X125072973Y-65553973D01*
X125073198Y-65549313D01*
X125082753Y-65456058D01*
X125082949Y-65453474D01*
X125102916Y-65052399D01*
X125102912Y-65047389D01*
X125102766Y-65044555D01*
X125102766Y-65028450D01*
X125104093Y-65002505D01*
X125104158Y-64999914D01*
X125104140Y-64985722D01*
X125103880Y-64980715D01*
X125102767Y-64969900D01*
X125102768Y-64935730D01*
X125102700Y-64933139D01*
X125081690Y-64532116D01*
X125081175Y-64527132D01*
X125080466Y-64522551D01*
X125071154Y-64429243D01*
X125070829Y-64426672D01*
X125010095Y-64029718D01*
X125009087Y-64024808D01*
X125007920Y-64020295D01*
X124989393Y-63928401D01*
X124988815Y-63925875D01*
X124888956Y-63536914D01*
X124887464Y-63532126D01*
X124885855Y-63527752D01*
X124858292Y-63438150D01*
X124857465Y-63435694D01*
X124719468Y-63058576D01*
X124717509Y-63053962D01*
X124715462Y-63049745D01*
X124679148Y-62963351D01*
X124678081Y-62960989D01*
X124503311Y-62599440D01*
X124500901Y-62595039D01*
X124498452Y-62591058D01*
X124453734Y-62508692D01*
X124452438Y-62506447D01*
X124242624Y-62164044D01*
X124239792Y-62159908D01*
X124236973Y-62156208D01*
X124184275Y-62078663D01*
X124182763Y-62076558D01*
X123939980Y-61756690D01*
X123936754Y-61752858D01*
X123933574Y-61749447D01*
X123873440Y-61677526D01*
X123871726Y-61675582D01*
X123598374Y-61381408D01*
X123594781Y-61377914D01*
X123591272Y-61374831D01*
X123524301Y-61309245D01*
X123522402Y-61307480D01*
X123221182Y-61041908D01*
X123217256Y-61038786D01*
X123213484Y-61036086D01*
X123140309Y-60977460D01*
X123138244Y-60975893D01*
X122812137Y-60741552D01*
X122807922Y-60738835D01*
X122803905Y-60736526D01*
X122725267Y-60685457D01*
X122723057Y-60684103D01*
X122375291Y-60483309D01*
X122370832Y-60481027D01*
X122366576Y-60479114D01*
X122283269Y-60436114D01*
X122280936Y-60434986D01*
X122099000Y-60352835D01*
X122099000Y-58099000D01*
X177901002Y-58099000D01*
X177901004Y-60352817D01*
%TA.AperFunction,Conductor*%
G36*
X177901004Y-60352817D02*
G01*
X177706110Y-60441430D01*
X177701656Y-60443734D01*
X177697644Y-60446075D01*
X177614217Y-60488859D01*
X177611942Y-60490101D01*
X177264698Y-60691798D01*
X177260498Y-60694530D01*
X177256728Y-60697263D01*
X177177969Y-60748118D01*
X177175830Y-60749580D01*
X176850331Y-60984768D01*
X176846419Y-60987908D01*
X176842941Y-60991002D01*
X176769624Y-61049427D01*
X176767640Y-61051094D01*
X176467111Y-61317447D01*
X176463530Y-61320960D01*
X176460369Y-61324392D01*
X176393229Y-61389798D01*
X176391421Y-61391654D01*
X176118833Y-61686536D01*
X176115623Y-61690382D01*
X176112812Y-61694118D01*
X176052496Y-61765874D01*
X176050881Y-61767900D01*
X175808927Y-62088401D01*
X175806110Y-62092554D01*
X175803688Y-62096547D01*
X175750802Y-62173930D01*
X175749396Y-62176107D01*
X175540471Y-62519054D01*
X175538081Y-62523464D01*
X175536070Y-62527673D01*
X175491129Y-62609928D01*
X175489946Y-62612235D01*
X175316115Y-62974237D01*
X175314176Y-62978861D01*
X175312600Y-62983226D01*
X175276039Y-63069570D01*
X175275091Y-63071982D01*
X175138074Y-63449459D01*
X175136604Y-63454254D01*
X175135465Y-63458774D01*
X175107668Y-63548296D01*
X175106964Y-63550791D01*
X175008115Y-63940006D01*
X175007129Y-63944920D01*
X175006444Y-63949535D01*
X174987674Y-64041381D01*
X174987222Y-64043933D01*
X174927520Y-64441042D01*
X174927026Y-64446028D01*
X174926802Y-64450694D01*
X174917247Y-64543942D01*
X174917051Y-64546526D01*
X174897084Y-64947602D01*
X174897088Y-64952612D01*
X174897612Y-64962791D01*
X174896610Y-65039463D01*
X174896643Y-65042055D01*
X174909124Y-65359689D01*
X174909573Y-65364679D01*
X174911000Y-65374773D01*
X174916816Y-65451227D01*
X174917081Y-65453806D01*
X174968454Y-65852081D01*
X174969347Y-65857017D01*
X174970408Y-65861554D01*
X174986766Y-65953856D01*
X174987285Y-65956396D01*
X175077960Y-66347595D01*
X175079336Y-66352410D01*
X175080836Y-66356805D01*
X175106290Y-66447054D01*
X175107058Y-66449530D01*
X175236141Y-66829792D01*
X175237992Y-66834454D01*
X175239917Y-66838668D01*
X175274208Y-66925941D01*
X175275219Y-66928327D01*
X175441430Y-67293890D01*
X175443734Y-67298344D01*
X175446075Y-67302356D01*
X175488859Y-67385783D01*
X175490101Y-67388058D01*
X175691797Y-67735303D01*
X175694531Y-67739505D01*
X175697272Y-67743285D01*
X175748118Y-67822031D01*
X175749580Y-67824170D01*
X175984768Y-68149668D01*
X175987907Y-68153580D01*
X175991001Y-68157058D01*
X176049425Y-68230376D01*
X176051093Y-68232360D01*
X176317447Y-68532889D01*
X176320961Y-68536470D01*
X176324388Y-68539627D01*
X176389796Y-68606770D01*
X176391653Y-68608579D01*
X176686535Y-68881166D01*
X176690379Y-68884375D01*
X176694100Y-68887174D01*
X176765873Y-68947505D01*
X176767900Y-68949120D01*
X177088399Y-69191071D01*
X177092545Y-69193883D01*
X177096517Y-69196293D01*
X177173929Y-69249199D01*
X177176106Y-69250604D01*
X177519051Y-69459528D01*
X177523455Y-69461914D01*
X177527667Y-69463928D01*
X177609931Y-69508872D01*
X177612236Y-69510054D01*
X177974237Y-69683885D01*
X177978861Y-69685824D01*
X177983226Y-69687400D01*
X178069570Y-69723961D01*
X178071982Y-69724909D01*
X178449459Y-69861925D01*
X178454251Y-69863395D01*
X178458771Y-69864535D01*
X178548295Y-69892332D01*
X178550790Y-69893036D01*
X178940006Y-69991885D01*
X178944920Y-69992871D01*
X178949535Y-69993556D01*
X179041381Y-70012326D01*
X179043933Y-70012778D01*
X179441042Y-70072480D01*
X179446027Y-70072973D01*
X179450687Y-70073198D01*
X179543942Y-70082753D01*
X179546526Y-70082949D01*
X179947601Y-70102916D01*
X179952611Y-70102912D01*
X179955445Y-70102766D01*
X179971548Y-70102766D01*
X179997495Y-70104093D01*
X180000086Y-70104158D01*
X180014277Y-70104140D01*
X180019281Y-70103880D01*
X180030108Y-70102767D01*
X180064271Y-70102767D01*
X180066862Y-70102699D01*
X180467884Y-70081690D01*
X180472869Y-70081175D01*
X180477450Y-70080466D01*
X180570757Y-70071154D01*
X180573328Y-70070829D01*
X180970282Y-70010095D01*
X180975192Y-70009087D01*
X180979705Y-70007920D01*
X181071600Y-69989393D01*
X181074126Y-69988815D01*
X181463086Y-69888956D01*
X181467874Y-69887464D01*
X181472248Y-69885855D01*
X181561850Y-69858292D01*
X181564306Y-69857465D01*
X181941422Y-69719468D01*
X181946032Y-69717512D01*
X181950245Y-69715467D01*
X182036649Y-69679148D01*
X182039011Y-69678081D01*
X182400561Y-69503310D01*
X182404962Y-69500900D01*
X182408923Y-69498463D01*
X182491309Y-69453734D01*
X182493553Y-69452438D01*
X182835956Y-69242624D01*
X182840092Y-69239792D01*
X182843792Y-69236973D01*
X182921337Y-69184275D01*
X182923442Y-69182763D01*
X183243310Y-68939980D01*
X183247142Y-68936754D01*
X183250553Y-68933574D01*
X183322474Y-68873440D01*
X183324418Y-68871726D01*
X183618592Y-68598374D01*
X183622085Y-68594782D01*
X183625160Y-68591283D01*
X183690755Y-68524301D01*
X183692519Y-68522402D01*
X183958091Y-68221182D01*
X183961214Y-68217256D01*
X183963914Y-68213484D01*
X184022540Y-68140309D01*
X184024107Y-68138244D01*
X184258447Y-67812138D01*
X184261162Y-67807927D01*
X184263490Y-67803878D01*
X184314543Y-67725267D01*
X184315897Y-67723057D01*
X184516690Y-67375292D01*
X184518972Y-67370834D01*
X184520881Y-67366588D01*
X184563886Y-67283269D01*
X184565014Y-67280935D01*
X184647164Y-67099001D01*
X190773324Y-67098998D01*
X191394064Y-67877645D01*
X192220698Y-68972158D01*
X193018462Y-70088026D01*
X193786716Y-71224356D01*
X194524983Y-72380438D01*
X195232722Y-73555432D01*
X195909444Y-74748520D01*
X196554707Y-75958920D01*
X197168105Y-77185878D01*
X197749128Y-78428374D01*
X198297454Y-79685712D01*
X198812663Y-80956938D01*
X199294437Y-82241261D01*
X199742392Y-83537658D01*
X200156312Y-84845509D01*
X200535801Y-86163560D01*
X200880693Y-87491228D01*
X201190689Y-88827374D01*
X201465617Y-90171238D01*
X201705263Y-91521789D01*
X201909480Y-92878197D01*
X202078118Y-94239470D01*
X202211069Y-95604725D01*
X202308232Y-96972926D01*
X202369546Y-98343233D01*
X202395076Y-99720374D01*
X202395822Y-99994370D01*
X202377793Y-101371572D01*
X202323941Y-102742187D01*
X202234230Y-104110925D01*
X202108720Y-105476835D01*
X201947491Y-106839049D01*
X201750673Y-108196474D01*
X201518376Y-109548371D01*
X201250773Y-110893702D01*
X200948049Y-112231548D01*
X200610414Y-113560993D01*
X200238073Y-114881212D01*
X199831312Y-116191198D01*
X199390419Y-117490025D01*
X198915639Y-118776971D01*
X198407366Y-120050973D01*
X197865901Y-121311262D01*
X197291635Y-122556944D01*
X196684952Y-123787177D01*
X196046269Y-125001113D01*
X195376063Y-126197852D01*
X194674732Y-127376683D01*
X193942776Y-128536762D01*
X193180710Y-129677277D01*
X192389036Y-130797469D01*
X191568331Y-131896527D01*
X190776467Y-132901000D01*
X184647181Y-132901000D01*
X184558570Y-132706110D01*
X184556266Y-132701656D01*
X184553925Y-132697644D01*
X184511141Y-132614217D01*
X184509899Y-132611942D01*
X184308202Y-132264698D01*
X184305470Y-132260498D01*
X184302737Y-132256728D01*
X184251882Y-132177969D01*
X184250420Y-132175830D01*
X184015232Y-131850331D01*
X184012092Y-131846419D01*
X184008998Y-131842941D01*
X183950573Y-131769624D01*
X183948906Y-131767640D01*
X183682553Y-131467111D01*
X183679040Y-131463530D01*
X183675608Y-131460369D01*
X183610202Y-131393229D01*
X183608346Y-131391421D01*
X183313464Y-131118833D01*
X183309618Y-131115623D01*
X183305882Y-131112812D01*
X183234126Y-131052496D01*
X183232100Y-131050881D01*
X182911599Y-130808927D01*
X182907446Y-130806110D01*
X182903453Y-130803688D01*
X182826070Y-130750802D01*
X182823893Y-130749396D01*
X182480946Y-130540471D01*
X182476536Y-130538081D01*
X182472327Y-130536070D01*
X182390072Y-130491129D01*
X182387765Y-130489946D01*
X182025763Y-130316115D01*
X182021139Y-130314176D01*
X182016774Y-130312600D01*
X181930430Y-130276039D01*
X181928018Y-130275091D01*
X181550541Y-130138074D01*
X181545746Y-130136604D01*
X181541226Y-130135465D01*
X181451704Y-130107668D01*
X181449209Y-130106964D01*
X181059994Y-130008115D01*
X181055080Y-130007129D01*
X181050465Y-130006444D01*
X180958619Y-129987674D01*
X180956067Y-129987222D01*
X180558958Y-129927520D01*
X180553972Y-129927026D01*
X180549306Y-129926802D01*
X180456058Y-129917247D01*
X180453474Y-129917051D01*
X180052398Y-129897084D01*
X180047386Y-129897088D01*
X179971472Y-129901000D01*
X153599000Y-129901000D01*
X153599000Y-129571157D01*
X153603431Y-129537042D01*
X153603829Y-129529445D01*
X153601133Y-129419168D01*
X153601002Y-129416579D01*
X153588938Y-129259803D01*
X153588301Y-129254832D01*
X153582456Y-129222351D01*
X153580780Y-129188074D01*
X153579827Y-129180528D01*
X153557645Y-129072470D01*
X153557058Y-129069945D01*
X153505154Y-128870680D01*
X153503646Y-128865900D01*
X153487444Y-128822333D01*
X153475559Y-128776044D01*
X153473108Y-128768843D01*
X153429651Y-128667452D01*
X153428568Y-128665098D01*
X153337655Y-128480339D01*
X153335217Y-128475960D01*
X153310586Y-128436543D01*
X153289640Y-128393594D01*
X153285790Y-128387032D01*
X153222834Y-128296451D01*
X153221300Y-128294362D01*
X153095094Y-128131657D01*
X153091825Y-128127857D01*
X153059767Y-128094194D01*
X153030609Y-128056331D01*
X153025519Y-128050677D01*
X152949564Y-127978347D01*
X152948996Y-127977708D01*
X152941681Y-127970977D01*
X152940284Y-127969929D01*
X152787367Y-127838864D01*
X152783401Y-127835799D01*
X152745230Y-127809270D01*
X152709058Y-127778047D01*
X152702936Y-127773533D01*
X152609386Y-127715076D01*
X152607153Y-127713761D01*
X152427055Y-127613932D01*
X152422554Y-127611727D01*
X152379826Y-127593414D01*
X152338117Y-127570103D01*
X152331212Y-127566913D01*
X152305279Y-127557268D01*
X152305741Y-127554420D01*
X152225403Y-127527641D01*
X152224552Y-127527366D01*
X152028875Y-127466045D01*
X152024023Y-127464790D01*
X151978491Y-127455443D01*
X151932940Y-127440994D01*
X151925535Y-127439257D01*
X151816522Y-127422381D01*
X151813951Y-127422052D01*
X151609091Y-127401243D01*
X151604085Y-127400989D01*
X151393371Y-127400988D01*
X151393254Y-127401000D01*
X136571157Y-127401000D01*
X136537042Y-127396569D01*
X136529445Y-127396171D01*
X136419168Y-127398867D01*
X136416579Y-127398998D01*
X136259803Y-127411062D01*
X136254832Y-127411699D01*
X136222351Y-127417544D01*
X136188074Y-127419220D01*
X136180528Y-127420173D01*
X136072470Y-127442355D01*
X136069945Y-127442942D01*
X135870680Y-127494846D01*
X135865900Y-127496354D01*
X135822333Y-127512556D01*
X135776044Y-127524441D01*
X135768843Y-127526892D01*
X135667452Y-127570349D01*
X135665098Y-127571432D01*
X135480339Y-127662345D01*
X135475960Y-127664783D01*
X135436543Y-127689414D01*
X135393594Y-127710360D01*
X135387032Y-127714210D01*
X135296451Y-127777166D01*
X135294362Y-127778700D01*
X135131657Y-127904906D01*
X135127857Y-127908175D01*
X135094194Y-127940233D01*
X135056331Y-127969391D01*
X135050677Y-127974481D01*
X134978350Y-128050433D01*
X134976678Y-128051919D01*
X134973500Y-128055571D01*
X134973261Y-128055829D01*
X134972319Y-128056928D01*
X134968343Y-128061497D01*
X134968133Y-128061811D01*
X134838864Y-128212633D01*
X134835799Y-128216599D01*
X134809270Y-128254770D01*
X134778047Y-128290942D01*
X134773533Y-128297064D01*
X134715076Y-128390614D01*
X134713761Y-128392847D01*
X134613932Y-128572945D01*
X134611727Y-128577446D01*
X134593414Y-128620174D01*
X134570103Y-128661883D01*
X134566913Y-128668788D01*
X134527956Y-128773539D01*
X134527234Y-128775870D01*
X134466045Y-128971125D01*
X134464790Y-128975977D01*
X134455443Y-129021509D01*
X134440994Y-129067060D01*
X134439257Y-129074465D01*
X134422381Y-129183478D01*
X134422052Y-129186049D01*
X134401243Y-129390909D01*
X134400989Y-129395915D01*
X134400988Y-129606616D01*
X134401001Y-129606743D01*
X134401001Y-129901000D01*
X120102090Y-129901000D01*
X120060406Y-129898868D01*
X120053624Y-129897818D01*
X120046040Y-129897234D01*
X120028450Y-129897234D01*
X120002505Y-129895907D01*
X119999914Y-129895842D01*
X119985722Y-129895860D01*
X119980715Y-129896120D01*
X119969900Y-129897233D01*
X119935730Y-129897232D01*
X119933139Y-129897300D01*
X119532116Y-129918310D01*
X119527132Y-129918825D01*
X119522551Y-129919534D01*
X119429243Y-129928846D01*
X119426672Y-129929171D01*
X119029718Y-129989905D01*
X119024808Y-129990913D01*
X119020295Y-129992080D01*
X118928401Y-130010607D01*
X118925875Y-130011185D01*
X118536914Y-130111044D01*
X118532126Y-130112536D01*
X118527752Y-130114145D01*
X118438150Y-130141708D01*
X118435694Y-130142535D01*
X118058576Y-130280532D01*
X118053962Y-130282491D01*
X118049745Y-130284538D01*
X117963351Y-130320852D01*
X117960989Y-130321919D01*
X117599440Y-130496689D01*
X117595039Y-130499099D01*
X117591058Y-130501548D01*
X117508692Y-130546266D01*
X117506447Y-130547562D01*
X117164044Y-130757376D01*
X117159908Y-130760208D01*
X117156208Y-130763027D01*
X117078663Y-130815725D01*
X117076558Y-130817237D01*
X116756690Y-131060020D01*
X116752858Y-131063246D01*
X116749447Y-131066426D01*
X116677526Y-131126560D01*
X116675582Y-131128274D01*
X116381408Y-131401626D01*
X116377914Y-131405219D01*
X116374831Y-131408728D01*
X116309245Y-131475699D01*
X116307480Y-131477598D01*
X116041908Y-131778818D01*
X116038786Y-131782744D01*
X116036086Y-131786516D01*
X115977460Y-131859691D01*
X115975893Y-131861756D01*
X115741552Y-132187863D01*
X115738835Y-132192078D01*
X115736526Y-132196095D01*
X115685457Y-132274733D01*
X115684103Y-132276943D01*
X115483309Y-132624709D01*
X115481027Y-132629168D01*
X115479114Y-132633424D01*
X115436114Y-132716731D01*
X115434986Y-132719064D01*
X115352835Y-132901000D01*
X109226672Y-132901000D01*
X108605971Y-132122404D01*
X107779301Y-131027843D01*
X106981537Y-129911975D01*
X106213277Y-128775636D01*
X105475016Y-127619563D01*
X104767287Y-126444585D01*
X104090555Y-125251480D01*
X103445283Y-124041065D01*
X102831893Y-122814122D01*
X102250864Y-121571612D01*
X101702545Y-120314289D01*
X101187335Y-119043062D01*
X100705565Y-117758750D01*
X100257603Y-116462331D01*
X99843689Y-115154501D01*
X99602286Y-114316053D01*
X174077082Y-114316053D01*
X174077082Y-116383947D01*
X174078035Y-116393627D01*
X174098576Y-116496886D01*
X174106038Y-116514903D01*
X174184251Y-116631959D01*
X174198041Y-116645749D01*
X174315097Y-116723962D01*
X174333114Y-116731424D01*
X174436373Y-116751965D01*
X174446053Y-116752918D01*
X177613947Y-116752918D01*
X177623627Y-116751965D01*
X177726886Y-116731424D01*
X177744903Y-116723962D01*
X177861959Y-116645749D01*
X177875749Y-116631959D01*
X177953962Y-116514903D01*
X177961424Y-116496886D01*
X177981965Y-116393627D01*
X177982918Y-116383947D01*
X177982918Y-114316053D01*
X177981965Y-114306373D01*
X177961424Y-114203114D01*
X177961343Y-114202918D01*
X178116007Y-114202918D01*
X178174000Y-114144925D01*
X178225999Y-114144925D01*
X178283992Y-114202918D01*
X178778894Y-114202918D01*
X178788574Y-114201965D01*
X178877291Y-114184317D01*
X178895308Y-114176855D01*
X178995871Y-114109660D01*
X179009660Y-114095871D01*
X179076855Y-113995308D01*
X179084317Y-113977291D01*
X179109958Y-113848390D01*
X179050549Y-113776000D01*
X178283993Y-113775999D01*
X178226000Y-113833992D01*
X178225999Y-114144925D01*
X178174000Y-114144925D01*
X178174001Y-113833993D01*
X178116008Y-113776000D01*
X177349452Y-113775999D01*
X177290042Y-113848389D01*
X177309673Y-113947082D01*
X174446053Y-113947082D01*
X174436373Y-113948035D01*
X174333114Y-113968576D01*
X174315097Y-113976038D01*
X174198041Y-114054251D01*
X174184251Y-114068041D01*
X174106038Y-114185097D01*
X174098576Y-114203114D01*
X174078035Y-114306373D01*
X174077082Y-114316053D01*
X99602286Y-114316053D01*
X99464194Y-113836431D01*
X99119315Y-112508808D01*
X98809307Y-111172618D01*
X98534382Y-109828763D01*
X98294737Y-108478216D01*
X98164932Y-107616053D01*
X174077082Y-107616053D01*
X174077082Y-109683947D01*
X174078035Y-109693627D01*
X174098576Y-109796886D01*
X174106038Y-109814903D01*
X174184251Y-109931959D01*
X174198041Y-109945749D01*
X174315097Y-110023962D01*
X174333114Y-110031424D01*
X174436373Y-110051965D01*
X174446053Y-110052918D01*
X177309674Y-110052918D01*
X177298035Y-110111426D01*
X177297082Y-110121106D01*
X177297082Y-110378894D01*
X177298035Y-110388574D01*
X177315683Y-110477291D01*
X177323146Y-110495308D01*
X177326281Y-110500000D01*
X177323146Y-110504692D01*
X177315683Y-110522709D01*
X177298035Y-110611426D01*
X177297082Y-110621106D01*
X177297082Y-110878894D01*
X177298035Y-110888574D01*
X177315683Y-110977291D01*
X177323146Y-110995308D01*
X177326281Y-111000000D01*
X177323146Y-111004692D01*
X177315683Y-111022709D01*
X177298035Y-111111426D01*
X177297082Y-111121106D01*
X177297082Y-111378894D01*
X177298035Y-111388574D01*
X177315683Y-111477291D01*
X177323146Y-111495308D01*
X177326281Y-111500000D01*
X177323146Y-111504692D01*
X177315683Y-111522709D01*
X177298035Y-111611426D01*
X177297082Y-111621106D01*
X177297082Y-111878894D01*
X177298035Y-111888574D01*
X177315683Y-111977291D01*
X177323146Y-111995308D01*
X177326281Y-112000000D01*
X177323146Y-112004692D01*
X177315683Y-112022709D01*
X177298035Y-112111426D01*
X177297082Y-112121106D01*
X177297082Y-112378894D01*
X177298035Y-112388574D01*
X177315683Y-112477291D01*
X177323146Y-112495308D01*
X177326281Y-112500000D01*
X177323146Y-112504692D01*
X177315683Y-112522709D01*
X177298035Y-112611426D01*
X177297082Y-112621106D01*
X177297082Y-112878894D01*
X177298035Y-112888574D01*
X177315683Y-112977291D01*
X177323146Y-112995308D01*
X177326281Y-113000000D01*
X177323146Y-113004692D01*
X177315683Y-113022709D01*
X177298035Y-113111426D01*
X177297082Y-113121106D01*
X177297082Y-113378894D01*
X177298035Y-113388574D01*
X177315683Y-113477291D01*
X177323146Y-113495308D01*
X177326281Y-113499999D01*
X177323145Y-113504692D01*
X177315683Y-113522709D01*
X177290042Y-113651610D01*
X177349451Y-113724000D01*
X178116008Y-113724001D01*
X178116009Y-113724000D01*
X179050548Y-113724001D01*
X179109957Y-113651611D01*
X179084318Y-113522709D01*
X179076855Y-113504692D01*
X179073719Y-113499999D01*
X179076854Y-113495308D01*
X179084317Y-113477291D01*
X179101965Y-113388574D01*
X179102918Y-113378894D01*
X179102918Y-113121106D01*
X179101965Y-113111426D01*
X179084317Y-113022709D01*
X179076854Y-113004692D01*
X179073719Y-113000000D01*
X179076854Y-112995308D01*
X179084317Y-112977291D01*
X179101965Y-112888574D01*
X179102918Y-112878894D01*
X179102918Y-112621106D01*
X179101965Y-112611426D01*
X179084317Y-112522709D01*
X179076854Y-112504692D01*
X179073719Y-112500000D01*
X179076854Y-112495308D01*
X179084317Y-112477291D01*
X179101965Y-112388574D01*
X179102918Y-112378894D01*
X179102918Y-112121106D01*
X179101965Y-112111426D01*
X179084317Y-112022709D01*
X179076854Y-112004692D01*
X179073719Y-112000000D01*
X179076854Y-111995308D01*
X179084317Y-111977291D01*
X179101965Y-111888574D01*
X179102918Y-111878894D01*
X179102918Y-111621106D01*
X179101965Y-111611426D01*
X179084317Y-111522709D01*
X179076854Y-111504692D01*
X179073719Y-111500000D01*
X179076854Y-111495308D01*
X179084317Y-111477291D01*
X179101965Y-111388574D01*
X179102918Y-111378894D01*
X179102918Y-111121106D01*
X179101965Y-111111426D01*
X179084317Y-111022709D01*
X179076854Y-111004692D01*
X179073719Y-111000000D01*
X179076854Y-110995308D01*
X179084317Y-110977291D01*
X179101965Y-110888574D01*
X179102918Y-110878894D01*
X179102918Y-110621106D01*
X179101965Y-110611426D01*
X179084317Y-110522709D01*
X179076854Y-110504692D01*
X179073719Y-110500000D01*
X179076854Y-110495308D01*
X179084317Y-110477291D01*
X179101965Y-110388574D01*
X179102918Y-110378894D01*
X179102918Y-110121106D01*
X179101965Y-110111426D01*
X179084317Y-110022709D01*
X179076855Y-110004692D01*
X179009660Y-109904129D01*
X178995871Y-109890340D01*
X178895308Y-109823145D01*
X178877291Y-109815683D01*
X178788574Y-109798035D01*
X178778894Y-109797082D01*
X178415631Y-109797082D01*
X178418743Y-109794867D01*
X178432119Y-109780677D01*
X178482105Y-109700858D01*
X178486435Y-109692148D01*
X178679760Y-109183398D01*
X178682179Y-109174736D01*
X178697985Y-109088650D01*
X178697846Y-109069888D01*
X178678592Y-108973087D01*
X178671129Y-108955070D01*
X178616090Y-108872699D01*
X178602301Y-108858910D01*
X178519930Y-108803871D01*
X178501913Y-108796408D01*
X178409544Y-108778035D01*
X178399863Y-108777082D01*
X178000503Y-108777082D01*
X177991546Y-108777897D01*
X177982918Y-108779481D01*
X177982918Y-107616053D01*
X177981965Y-107606373D01*
X177961424Y-107503114D01*
X177953962Y-107485097D01*
X177875749Y-107368041D01*
X177861959Y-107354251D01*
X177744903Y-107276038D01*
X177726886Y-107268576D01*
X177623627Y-107248035D01*
X177613947Y-107247082D01*
X174446053Y-107247082D01*
X174436373Y-107248035D01*
X174333114Y-107268576D01*
X174315097Y-107276038D01*
X174198041Y-107354251D01*
X174184251Y-107368041D01*
X174106038Y-107485097D01*
X174098576Y-107503114D01*
X174078035Y-107606373D01*
X174077082Y-107616053D01*
X98164932Y-107616053D01*
X98090518Y-107121803D01*
X97921879Y-105760525D01*
X97788929Y-104395278D01*
X97691766Y-103027074D01*
X97630452Y-101656766D01*
X97604922Y-100279626D01*
X97604177Y-100005692D01*
X97606707Y-99812405D01*
X105498568Y-99812405D01*
X105501485Y-100090920D01*
X105504032Y-100334180D01*
X105504210Y-100337891D01*
X105548780Y-100857789D01*
X105549237Y-100861476D01*
X105632664Y-101376568D01*
X105633395Y-101380211D01*
X105755207Y-101887597D01*
X105756209Y-101891175D01*
X105915723Y-102388000D01*
X105916991Y-102391492D01*
X106113306Y-102874958D01*
X106114832Y-102878346D01*
X106346845Y-103345732D01*
X106348620Y-103348995D01*
X106615023Y-103797670D01*
X106617038Y-103800791D01*
X106916334Y-104228228D01*
X106918577Y-104231189D01*
X107249077Y-104634982D01*
X107251537Y-104637767D01*
X107611383Y-105015644D01*
X107614044Y-105018236D01*
X108001211Y-105368067D01*
X108004059Y-105370453D01*
X108416365Y-105690270D01*
X108419384Y-105692435D01*
X108854509Y-105980439D01*
X108857682Y-105982372D01*
X109313177Y-106236939D01*
X109316485Y-106238628D01*
X109789784Y-106458327D01*
X109793211Y-106459763D01*
X110281651Y-106643356D01*
X110285175Y-106644531D01*
X110786005Y-106790984D01*
X110789608Y-106791892D01*
X111300009Y-106900382D01*
X111303669Y-106901017D01*
X111820769Y-106970932D01*
X111824467Y-106971292D01*
X112345352Y-107002238D01*
X112349067Y-107002319D01*
X112870807Y-106994123D01*
X112874517Y-106993925D01*
X113394174Y-106946632D01*
X113397858Y-106946157D01*
X113912506Y-106860035D01*
X113916145Y-106859284D01*
X114422887Y-106734817D01*
X114426459Y-106733796D01*
X114922442Y-106571684D01*
X114925928Y-106570398D01*
X115408360Y-106371553D01*
X115411739Y-106370009D01*
X115877904Y-106135553D01*
X115881158Y-106133760D01*
X116328431Y-105865012D01*
X116331542Y-105862980D01*
X116757406Y-105561451D01*
X116760356Y-105559192D01*
X117162412Y-105226582D01*
X117165184Y-105224108D01*
X117541171Y-104862287D01*
X117543750Y-104859613D01*
X117891549Y-104470621D01*
X117893920Y-104467760D01*
X118211574Y-104053784D01*
X118213724Y-104050754D01*
X118499444Y-103614127D01*
X118501360Y-103610944D01*
X118753539Y-103154124D01*
X118755211Y-103150806D01*
X118972429Y-102676363D01*
X118973848Y-102672929D01*
X119105859Y-102316053D01*
X174077082Y-102316053D01*
X174077082Y-104383947D01*
X174078035Y-104393627D01*
X174098576Y-104496886D01*
X174106038Y-104514903D01*
X174184251Y-104631959D01*
X174198041Y-104645749D01*
X174315097Y-104723962D01*
X174333114Y-104731424D01*
X174436373Y-104751965D01*
X174446053Y-104752918D01*
X177613947Y-104752918D01*
X177623627Y-104751965D01*
X177726886Y-104731424D01*
X177744903Y-104723962D01*
X177861959Y-104645749D01*
X177875749Y-104631959D01*
X177953962Y-104514903D01*
X177961424Y-104496886D01*
X177981965Y-104393627D01*
X177982918Y-104383947D01*
X177982918Y-102316053D01*
X177981965Y-102306373D01*
X177961424Y-102203114D01*
X177961343Y-102202918D01*
X178116007Y-102202918D01*
X178174000Y-102144925D01*
X178225999Y-102144925D01*
X178283992Y-102202918D01*
X178778894Y-102202918D01*
X178788574Y-102201965D01*
X178877291Y-102184317D01*
X178895308Y-102176855D01*
X178995871Y-102109660D01*
X179009660Y-102095871D01*
X179076855Y-101995308D01*
X179084317Y-101977291D01*
X179109958Y-101848390D01*
X179050549Y-101776000D01*
X178283993Y-101775999D01*
X178226000Y-101833992D01*
X178225999Y-102144925D01*
X178174000Y-102144925D01*
X178174001Y-101833993D01*
X178116008Y-101776000D01*
X177349452Y-101775999D01*
X177290042Y-101848389D01*
X177309673Y-101947082D01*
X174446053Y-101947082D01*
X174436373Y-101948035D01*
X174333114Y-101968576D01*
X174315097Y-101976038D01*
X174198041Y-102054251D01*
X174184251Y-102068041D01*
X174106038Y-102185097D01*
X174098576Y-102203114D01*
X174078035Y-102306373D01*
X174077082Y-102316053D01*
X119105859Y-102316053D01*
X119154880Y-102183534D01*
X119156037Y-102180004D01*
X119299866Y-101678414D01*
X119300755Y-101674807D01*
X119406571Y-101163844D01*
X119407187Y-101160180D01*
X119474479Y-100642058D01*
X119474873Y-100637019D01*
X119499116Y-99741107D01*
X119498995Y-99736054D01*
X119459821Y-99215050D01*
X119459404Y-99211358D01*
X119381375Y-98695421D01*
X119380682Y-98691771D01*
X119264190Y-98183136D01*
X119263225Y-98179549D01*
X119108923Y-97681080D01*
X119107692Y-97677575D01*
X118916449Y-97192079D01*
X118914959Y-97188676D01*
X118687854Y-96718886D01*
X118686113Y-96715604D01*
X118424422Y-96264164D01*
X118422440Y-96261022D01*
X118127638Y-95830474D01*
X118125425Y-95827490D01*
X117956033Y-95616053D01*
X174077082Y-95616053D01*
X174077082Y-97683947D01*
X174078035Y-97693627D01*
X174098576Y-97796886D01*
X174106038Y-97814903D01*
X174184251Y-97931959D01*
X174198041Y-97945749D01*
X174315097Y-98023962D01*
X174333114Y-98031424D01*
X174436373Y-98051965D01*
X174446053Y-98052918D01*
X177309674Y-98052918D01*
X177298035Y-98111426D01*
X177297082Y-98121106D01*
X177297082Y-98378894D01*
X177298035Y-98388574D01*
X177315683Y-98477291D01*
X177323146Y-98495308D01*
X177326281Y-98500000D01*
X177323146Y-98504692D01*
X177315683Y-98522709D01*
X177298035Y-98611426D01*
X177297082Y-98621106D01*
X177297082Y-98878894D01*
X177298035Y-98888574D01*
X177315683Y-98977291D01*
X177323146Y-98995308D01*
X177326281Y-99000000D01*
X177323146Y-99004692D01*
X177315683Y-99022709D01*
X177298035Y-99111426D01*
X177297082Y-99121106D01*
X177297082Y-99378894D01*
X177298035Y-99388574D01*
X177315683Y-99477291D01*
X177323146Y-99495308D01*
X177326281Y-99500000D01*
X177323146Y-99504692D01*
X177315683Y-99522709D01*
X177298035Y-99611426D01*
X177297082Y-99621106D01*
X177297082Y-99878894D01*
X177298035Y-99888574D01*
X177315683Y-99977291D01*
X177323146Y-99995308D01*
X177326281Y-100000000D01*
X177323146Y-100004692D01*
X177315683Y-100022709D01*
X177298035Y-100111426D01*
X177297082Y-100121106D01*
X177297082Y-100378894D01*
X177298035Y-100388574D01*
X177315683Y-100477291D01*
X177323146Y-100495308D01*
X177326281Y-100500000D01*
X177323146Y-100504692D01*
X177315683Y-100522709D01*
X177298035Y-100611426D01*
X177297082Y-100621106D01*
X177297082Y-100878894D01*
X177298035Y-100888574D01*
X177315683Y-100977291D01*
X177323146Y-100995308D01*
X177326281Y-101000000D01*
X177323146Y-101004692D01*
X177315683Y-101022709D01*
X177298035Y-101111426D01*
X177297082Y-101121106D01*
X177297082Y-101378894D01*
X177298035Y-101388574D01*
X177315683Y-101477291D01*
X177323146Y-101495308D01*
X177326281Y-101499999D01*
X177323145Y-101504692D01*
X177315683Y-101522709D01*
X177290042Y-101651610D01*
X177349451Y-101724000D01*
X178116008Y-101724001D01*
X178116009Y-101724000D01*
X179050548Y-101724001D01*
X179109957Y-101651611D01*
X179084318Y-101522709D01*
X179076855Y-101504692D01*
X179073719Y-101499999D01*
X179076854Y-101495308D01*
X179084317Y-101477291D01*
X179101965Y-101388574D01*
X179102918Y-101378894D01*
X179102918Y-101121106D01*
X179101965Y-101111426D01*
X179084317Y-101022709D01*
X179076854Y-101004692D01*
X179073719Y-101000000D01*
X179076854Y-100995308D01*
X179084317Y-100977291D01*
X179101965Y-100888574D01*
X179102918Y-100878894D01*
X179102918Y-100621106D01*
X179101965Y-100611426D01*
X179084317Y-100522709D01*
X179076854Y-100504692D01*
X179073719Y-100500000D01*
X179076854Y-100495308D01*
X179084317Y-100477291D01*
X179101965Y-100388574D01*
X179102918Y-100378894D01*
X179102918Y-100121106D01*
X179101965Y-100111426D01*
X179084317Y-100022709D01*
X179076854Y-100004692D01*
X179073719Y-100000000D01*
X179076854Y-99995308D01*
X179084317Y-99977291D01*
X179101965Y-99888574D01*
X179102918Y-99878894D01*
X179102918Y-99812405D01*
X180498568Y-99812405D01*
X180501485Y-100090920D01*
X180504032Y-100334180D01*
X180504210Y-100337891D01*
X180548780Y-100857789D01*
X180549237Y-100861476D01*
X180632664Y-101376568D01*
X180633395Y-101380211D01*
X180755207Y-101887597D01*
X180756209Y-101891175D01*
X180915723Y-102388000D01*
X180916991Y-102391492D01*
X181113306Y-102874958D01*
X181114832Y-102878346D01*
X181346845Y-103345732D01*
X181348620Y-103348995D01*
X181615023Y-103797670D01*
X181617038Y-103800791D01*
X181916334Y-104228228D01*
X181918577Y-104231189D01*
X182249077Y-104634982D01*
X182251537Y-104637767D01*
X182611383Y-105015644D01*
X182614044Y-105018236D01*
X183001211Y-105368067D01*
X183004059Y-105370453D01*
X183416365Y-105690270D01*
X183419384Y-105692435D01*
X183854509Y-105980439D01*
X183857682Y-105982372D01*
X184313177Y-106236939D01*
X184316485Y-106238628D01*
X184789784Y-106458327D01*
X184793211Y-106459763D01*
X185281651Y-106643356D01*
X185285175Y-106644531D01*
X185786005Y-106790984D01*
X185789608Y-106791892D01*
X186300009Y-106900382D01*
X186303669Y-106901017D01*
X186820769Y-106970932D01*
X186824467Y-106971292D01*
X187345352Y-107002238D01*
X187349067Y-107002319D01*
X187870807Y-106994123D01*
X187874517Y-106993925D01*
X188394174Y-106946632D01*
X188397858Y-106946157D01*
X188912506Y-106860035D01*
X188916145Y-106859284D01*
X189422887Y-106734817D01*
X189426459Y-106733796D01*
X189922442Y-106571684D01*
X189925928Y-106570398D01*
X190408360Y-106371553D01*
X190411739Y-106370009D01*
X190877904Y-106135553D01*
X190881158Y-106133760D01*
X191328431Y-105865012D01*
X191331542Y-105862980D01*
X191757406Y-105561451D01*
X191760356Y-105559192D01*
X192162412Y-105226582D01*
X192165184Y-105224108D01*
X192541171Y-104862287D01*
X192543750Y-104859613D01*
X192891549Y-104470621D01*
X192893920Y-104467760D01*
X193211574Y-104053784D01*
X193213724Y-104050754D01*
X193499444Y-103614127D01*
X193501360Y-103610944D01*
X193753539Y-103154124D01*
X193755211Y-103150806D01*
X193972429Y-102676363D01*
X193973848Y-102672929D01*
X194154880Y-102183534D01*
X194156037Y-102180004D01*
X194299866Y-101678414D01*
X194300755Y-101674807D01*
X194406571Y-101163844D01*
X194407187Y-101160180D01*
X194474479Y-100642058D01*
X194474873Y-100637019D01*
X194499116Y-99741107D01*
X194498995Y-99736054D01*
X194459821Y-99215050D01*
X194459404Y-99211358D01*
X194381375Y-98695421D01*
X194380682Y-98691771D01*
X194264190Y-98183136D01*
X194263225Y-98179549D01*
X194108923Y-97681080D01*
X194107692Y-97677575D01*
X193916449Y-97192079D01*
X193914959Y-97188676D01*
X193687854Y-96718886D01*
X193686113Y-96715604D01*
X193424422Y-96264164D01*
X193422440Y-96261022D01*
X193127638Y-95830474D01*
X193125425Y-95827490D01*
X192799171Y-95420258D01*
X192796741Y-95417448D01*
X192440871Y-95035825D01*
X192438237Y-95033204D01*
X192054756Y-94679338D01*
X192051933Y-94676922D01*
X191642999Y-94352804D01*
X191640002Y-94350607D01*
X191207917Y-94058064D01*
X191204764Y-94056098D01*
X190751960Y-93796775D01*
X190748669Y-93795051D01*
X190277697Y-93570408D01*
X190274286Y-93568936D01*
X189787796Y-93380239D01*
X189784284Y-93379026D01*
X189285014Y-93227336D01*
X189281421Y-93226391D01*
X188772184Y-93112562D01*
X188768530Y-93111888D01*
X188252192Y-93036563D01*
X188248498Y-93036165D01*
X187727965Y-92999766D01*
X187724251Y-92999646D01*
X187202455Y-93002378D01*
X187198743Y-93002537D01*
X186678620Y-93044385D01*
X186674930Y-93044822D01*
X186159408Y-93125550D01*
X186155762Y-93126262D01*
X185647745Y-93245417D01*
X185644162Y-93246400D01*
X185146508Y-93403310D01*
X185143009Y-93404559D01*
X184658522Y-93598340D01*
X184655126Y-93599848D01*
X184186532Y-93829411D01*
X184183259Y-93831169D01*
X183733195Y-94095219D01*
X183730064Y-94097218D01*
X183301066Y-94394271D01*
X183298093Y-94396499D01*
X182892575Y-94724881D01*
X182889777Y-94727325D01*
X182510022Y-95085189D01*
X182507416Y-95087836D01*
X182155562Y-95473165D01*
X182153162Y-95476001D01*
X181831189Y-95886627D01*
X181829008Y-95889635D01*
X181538731Y-96323245D01*
X181536782Y-96326408D01*
X181279833Y-96780564D01*
X181278126Y-96783864D01*
X181055952Y-97256006D01*
X181054497Y-97259425D01*
X180868351Y-97746897D01*
X180867157Y-97750415D01*
X180718083Y-98250471D01*
X180717156Y-98254069D01*
X180605996Y-98763896D01*
X180605341Y-98767553D01*
X180532720Y-99284278D01*
X180532341Y-99287975D01*
X180498668Y-99808691D01*
X180498568Y-99812405D01*
X179102918Y-99812405D01*
X179102918Y-99621106D01*
X179101965Y-99611426D01*
X179084317Y-99522709D01*
X179076854Y-99504692D01*
X179073719Y-99500000D01*
X179076854Y-99495308D01*
X179084317Y-99477291D01*
X179101965Y-99388574D01*
X179102918Y-99378894D01*
X179102918Y-99121106D01*
X179101965Y-99111426D01*
X179084317Y-99022709D01*
X179076854Y-99004692D01*
X179073719Y-99000000D01*
X179076854Y-98995308D01*
X179084317Y-98977291D01*
X179101965Y-98888574D01*
X179102918Y-98878894D01*
X179102918Y-98621106D01*
X179101965Y-98611426D01*
X179084317Y-98522709D01*
X179076854Y-98504692D01*
X179073719Y-98500000D01*
X179076854Y-98495308D01*
X179084317Y-98477291D01*
X179101965Y-98388574D01*
X179102918Y-98378894D01*
X179102918Y-98121106D01*
X179101965Y-98111426D01*
X179084317Y-98022709D01*
X179076855Y-98004692D01*
X179009660Y-97904129D01*
X178995871Y-97890340D01*
X178895308Y-97823145D01*
X178877291Y-97815683D01*
X178788574Y-97798035D01*
X178778894Y-97797082D01*
X178415631Y-97797082D01*
X178418743Y-97794867D01*
X178432119Y-97780677D01*
X178482105Y-97700858D01*
X178486435Y-97692148D01*
X178679760Y-97183398D01*
X178682179Y-97174736D01*
X178697985Y-97088650D01*
X178697846Y-97069888D01*
X178678592Y-96973087D01*
X178671129Y-96955070D01*
X178616090Y-96872699D01*
X178602301Y-96858910D01*
X178519930Y-96803871D01*
X178501913Y-96796408D01*
X178409544Y-96778035D01*
X178399863Y-96777082D01*
X178000503Y-96777082D01*
X177991546Y-96777897D01*
X177982918Y-96779481D01*
X177982918Y-95616053D01*
X177981965Y-95606373D01*
X177961424Y-95503114D01*
X177953962Y-95485097D01*
X177875749Y-95368041D01*
X177861959Y-95354251D01*
X177744903Y-95276038D01*
X177726886Y-95268576D01*
X177623627Y-95248035D01*
X177613947Y-95247082D01*
X174446053Y-95247082D01*
X174436373Y-95248035D01*
X174333114Y-95268576D01*
X174315097Y-95276038D01*
X174198041Y-95354251D01*
X174184251Y-95368041D01*
X174106038Y-95485097D01*
X174098576Y-95503114D01*
X174078035Y-95606373D01*
X174077082Y-95616053D01*
X117956033Y-95616053D01*
X117799171Y-95420258D01*
X117796741Y-95417448D01*
X117440871Y-95035825D01*
X117438237Y-95033204D01*
X117054756Y-94679338D01*
X117051933Y-94676922D01*
X116642999Y-94352804D01*
X116640002Y-94350607D01*
X116207917Y-94058064D01*
X116204764Y-94056098D01*
X115751960Y-93796775D01*
X115748669Y-93795051D01*
X115277697Y-93570408D01*
X115274286Y-93568936D01*
X114787796Y-93380239D01*
X114784284Y-93379026D01*
X114285014Y-93227336D01*
X114281421Y-93226391D01*
X113772184Y-93112562D01*
X113768530Y-93111888D01*
X113252192Y-93036563D01*
X113248498Y-93036165D01*
X112727965Y-92999766D01*
X112724251Y-92999646D01*
X112202455Y-93002378D01*
X112198743Y-93002537D01*
X111678620Y-93044385D01*
X111674930Y-93044822D01*
X111159408Y-93125550D01*
X111155762Y-93126262D01*
X110647745Y-93245417D01*
X110644162Y-93246400D01*
X110146508Y-93403310D01*
X110143009Y-93404559D01*
X109658522Y-93598340D01*
X109655126Y-93599848D01*
X109186532Y-93829411D01*
X109183259Y-93831169D01*
X108733195Y-94095219D01*
X108730064Y-94097218D01*
X108301066Y-94394271D01*
X108298093Y-94396499D01*
X107892575Y-94724881D01*
X107889777Y-94727325D01*
X107510022Y-95085189D01*
X107507416Y-95087836D01*
X107155562Y-95473165D01*
X107153162Y-95476001D01*
X106831189Y-95886627D01*
X106829008Y-95889635D01*
X106538731Y-96323245D01*
X106536782Y-96326408D01*
X106279833Y-96780564D01*
X106278126Y-96783864D01*
X106055952Y-97256006D01*
X106054497Y-97259425D01*
X105868351Y-97746897D01*
X105867157Y-97750415D01*
X105718083Y-98250471D01*
X105717156Y-98254069D01*
X105605996Y-98763896D01*
X105605341Y-98767553D01*
X105532720Y-99284278D01*
X105532341Y-99287975D01*
X105498668Y-99808691D01*
X105498568Y-99812405D01*
X97606707Y-99812405D01*
X97622206Y-98628425D01*
X97676058Y-97257812D01*
X97765769Y-95889077D01*
X97891279Y-94523168D01*
X98052509Y-93160946D01*
X98249325Y-91803531D01*
X98481626Y-90451615D01*
X98508590Y-90316053D01*
X174077082Y-90316053D01*
X174077082Y-92383947D01*
X174078035Y-92393627D01*
X174098576Y-92496886D01*
X174106038Y-92514903D01*
X174184251Y-92631959D01*
X174198041Y-92645749D01*
X174315097Y-92723962D01*
X174333114Y-92731424D01*
X174436373Y-92751965D01*
X174446053Y-92752918D01*
X177613947Y-92752918D01*
X177623627Y-92751965D01*
X177726886Y-92731424D01*
X177744903Y-92723962D01*
X177861959Y-92645749D01*
X177875749Y-92631959D01*
X177953962Y-92514903D01*
X177961424Y-92496886D01*
X177981965Y-92393627D01*
X177982918Y-92383947D01*
X177982918Y-90316053D01*
X177981965Y-90306373D01*
X177961424Y-90203114D01*
X177961343Y-90202918D01*
X178116007Y-90202918D01*
X178174000Y-90144925D01*
X178225999Y-90144925D01*
X178283992Y-90202918D01*
X178778894Y-90202918D01*
X178788574Y-90201965D01*
X178877291Y-90184317D01*
X178895308Y-90176855D01*
X178995871Y-90109660D01*
X179009660Y-90095871D01*
X179076855Y-89995308D01*
X179084317Y-89977291D01*
X179109958Y-89848390D01*
X179050549Y-89776000D01*
X178283993Y-89775999D01*
X178226000Y-89833992D01*
X178225999Y-90144925D01*
X178174000Y-90144925D01*
X178174001Y-89833993D01*
X178116008Y-89776000D01*
X177349452Y-89775999D01*
X177290042Y-89848389D01*
X177309673Y-89947082D01*
X174446053Y-89947082D01*
X174436373Y-89948035D01*
X174333114Y-89968576D01*
X174315097Y-89976038D01*
X174198041Y-90054251D01*
X174184251Y-90068041D01*
X174106038Y-90185097D01*
X174098576Y-90203114D01*
X174078035Y-90306373D01*
X174077082Y-90316053D01*
X98508590Y-90316053D01*
X98749225Y-89106304D01*
X99051948Y-87768459D01*
X99389589Y-86438996D01*
X99761923Y-85118797D01*
X100168692Y-83808790D01*
X100234117Y-83616053D01*
X174077082Y-83616053D01*
X174077082Y-85683947D01*
X174078035Y-85693627D01*
X174098576Y-85796886D01*
X174106038Y-85814903D01*
X174184251Y-85931959D01*
X174198041Y-85945749D01*
X174315097Y-86023962D01*
X174333114Y-86031424D01*
X174436373Y-86051965D01*
X174446053Y-86052918D01*
X177309674Y-86052918D01*
X177298035Y-86111426D01*
X177297082Y-86121106D01*
X177297082Y-86378894D01*
X177298035Y-86388574D01*
X177315683Y-86477291D01*
X177323146Y-86495308D01*
X177326281Y-86500000D01*
X177323146Y-86504692D01*
X177315683Y-86522709D01*
X177298035Y-86611426D01*
X177297082Y-86621106D01*
X177297082Y-86878894D01*
X177298035Y-86888574D01*
X177315683Y-86977291D01*
X177323146Y-86995308D01*
X177326281Y-87000000D01*
X177323146Y-87004692D01*
X177315683Y-87022709D01*
X177298035Y-87111426D01*
X177297082Y-87121106D01*
X177297082Y-87378894D01*
X177298035Y-87388574D01*
X177315683Y-87477291D01*
X177323146Y-87495308D01*
X177326281Y-87500000D01*
X177323146Y-87504692D01*
X177315683Y-87522709D01*
X177298035Y-87611426D01*
X177297082Y-87621106D01*
X177297082Y-87878894D01*
X177298035Y-87888574D01*
X177315683Y-87977291D01*
X177323146Y-87995308D01*
X177326281Y-88000000D01*
X177323146Y-88004692D01*
X177315683Y-88022709D01*
X177298035Y-88111426D01*
X177297082Y-88121106D01*
X177297082Y-88378894D01*
X177298035Y-88388574D01*
X177315683Y-88477291D01*
X177323146Y-88495308D01*
X177326281Y-88500000D01*
X177323146Y-88504692D01*
X177315683Y-88522709D01*
X177298035Y-88611426D01*
X177297082Y-88621106D01*
X177297082Y-88878894D01*
X177298035Y-88888574D01*
X177315683Y-88977291D01*
X177323146Y-88995308D01*
X177326281Y-89000000D01*
X177323146Y-89004692D01*
X177315683Y-89022709D01*
X177298035Y-89111426D01*
X177297082Y-89121106D01*
X177297082Y-89378894D01*
X177298035Y-89388574D01*
X177315683Y-89477291D01*
X177323146Y-89495308D01*
X177326281Y-89499999D01*
X177323145Y-89504692D01*
X177315683Y-89522709D01*
X177290042Y-89651610D01*
X177349451Y-89724000D01*
X178116008Y-89724001D01*
X178116009Y-89724000D01*
X179050548Y-89724001D01*
X179109957Y-89651611D01*
X179084318Y-89522709D01*
X179076855Y-89504692D01*
X179073719Y-89499999D01*
X179076854Y-89495308D01*
X179084317Y-89477291D01*
X179101965Y-89388574D01*
X179102918Y-89378894D01*
X179102918Y-89121106D01*
X179101965Y-89111426D01*
X179084317Y-89022709D01*
X179076854Y-89004692D01*
X179073719Y-89000000D01*
X179076854Y-88995308D01*
X179084317Y-88977291D01*
X179101965Y-88888574D01*
X179102918Y-88878894D01*
X179102918Y-88621106D01*
X179101965Y-88611426D01*
X179084317Y-88522709D01*
X179076854Y-88504692D01*
X179073719Y-88500000D01*
X179076854Y-88495308D01*
X179084317Y-88477291D01*
X179101965Y-88388574D01*
X179102918Y-88378894D01*
X179102918Y-88121106D01*
X179101965Y-88111426D01*
X179084317Y-88022709D01*
X179076854Y-88004692D01*
X179073719Y-88000000D01*
X179076854Y-87995308D01*
X179084317Y-87977291D01*
X179101965Y-87888574D01*
X179102918Y-87878894D01*
X179102918Y-87621106D01*
X179101965Y-87611426D01*
X179084317Y-87522709D01*
X179076854Y-87504692D01*
X179073719Y-87500000D01*
X179076854Y-87495308D01*
X179084317Y-87477291D01*
X179101965Y-87388574D01*
X179102918Y-87378894D01*
X179102918Y-87121106D01*
X179101965Y-87111426D01*
X179084317Y-87022709D01*
X179076854Y-87004692D01*
X179073719Y-87000000D01*
X179076854Y-86995308D01*
X179084317Y-86977291D01*
X179101965Y-86888574D01*
X179102918Y-86878894D01*
X179102918Y-86621106D01*
X179101965Y-86611426D01*
X179084317Y-86522709D01*
X179076854Y-86504692D01*
X179073719Y-86500000D01*
X179076854Y-86495308D01*
X179084317Y-86477291D01*
X179101965Y-86388574D01*
X179102918Y-86378894D01*
X179102918Y-86121106D01*
X179101965Y-86111426D01*
X179084317Y-86022709D01*
X179076855Y-86004692D01*
X179009660Y-85904129D01*
X178995871Y-85890340D01*
X178895308Y-85823145D01*
X178877291Y-85815683D01*
X178788574Y-85798035D01*
X178778894Y-85797082D01*
X178415631Y-85797082D01*
X178418743Y-85794867D01*
X178432119Y-85780677D01*
X178482105Y-85700858D01*
X178486435Y-85692148D01*
X178679760Y-85183398D01*
X178682179Y-85174736D01*
X178697985Y-85088650D01*
X178697846Y-85069888D01*
X178678592Y-84973087D01*
X178671129Y-84955070D01*
X178616090Y-84872699D01*
X178602301Y-84858910D01*
X178519930Y-84803871D01*
X178501913Y-84796408D01*
X178409544Y-84778035D01*
X178399863Y-84777082D01*
X178000503Y-84777082D01*
X177991546Y-84777897D01*
X177982918Y-84779481D01*
X177982918Y-83616053D01*
X177981965Y-83606373D01*
X177961424Y-83503114D01*
X177953962Y-83485097D01*
X177875749Y-83368041D01*
X177861959Y-83354251D01*
X177744903Y-83276038D01*
X177726886Y-83268576D01*
X177623627Y-83248035D01*
X177613947Y-83247082D01*
X174446053Y-83247082D01*
X174436373Y-83248035D01*
X174333114Y-83268576D01*
X174315097Y-83276038D01*
X174198041Y-83354251D01*
X174184251Y-83368041D01*
X174106038Y-83485097D01*
X174098576Y-83503114D01*
X174078035Y-83606373D01*
X174077082Y-83616053D01*
X100234117Y-83616053D01*
X100609581Y-82509972D01*
X101084367Y-81223008D01*
X101592644Y-79949001D01*
X102134099Y-78688734D01*
X102708363Y-77443058D01*
X103315047Y-76212823D01*
X103953716Y-74998914D01*
X104623943Y-73802136D01*
X105325279Y-72623299D01*
X106057223Y-71463237D01*
X106819283Y-70322731D01*
X107610950Y-69202549D01*
X108431683Y-68103454D01*
X109223533Y-67098998D01*
X115352819Y-67099001D01*
X115441430Y-67293890D01*
X115443734Y-67298344D01*
X115446075Y-67302356D01*
X115488859Y-67385783D01*
X115490101Y-67388058D01*
X115691797Y-67735303D01*
X115694531Y-67739505D01*
X115697272Y-67743285D01*
X115748118Y-67822031D01*
X115749580Y-67824170D01*
X115984768Y-68149668D01*
X115987907Y-68153580D01*
X115991001Y-68157058D01*
X116049425Y-68230376D01*
X116051093Y-68232360D01*
X116317447Y-68532889D01*
X116320961Y-68536470D01*
X116324388Y-68539627D01*
X116389796Y-68606770D01*
X116391653Y-68608579D01*
X116686535Y-68881166D01*
X116690379Y-68884375D01*
X116694100Y-68887174D01*
X116765873Y-68947505D01*
X116767900Y-68949120D01*
X117088399Y-69191071D01*
X117092545Y-69193883D01*
X117096517Y-69196293D01*
X117173929Y-69249199D01*
X117176106Y-69250604D01*
X117519051Y-69459528D01*
X117523455Y-69461914D01*
X117527667Y-69463928D01*
X117609931Y-69508872D01*
X117612236Y-69510054D01*
X117974237Y-69683885D01*
X117978861Y-69685824D01*
X117983226Y-69687400D01*
X118069570Y-69723961D01*
X118071982Y-69724909D01*
X118449459Y-69861925D01*
X118454251Y-69863395D01*
X118458771Y-69864535D01*
X118548295Y-69892332D01*
X118550790Y-69893036D01*
X118940006Y-69991885D01*
X118944920Y-69992871D01*
X118949535Y-69993556D01*
X119041381Y-70012326D01*
X119043933Y-70012778D01*
X119441042Y-70072480D01*
X119446027Y-70072973D01*
X119450687Y-70073198D01*
X119543942Y-70082753D01*
X119546526Y-70082949D01*
X119947602Y-70102916D01*
X119952612Y-70102912D01*
X119962791Y-70102388D01*
X120039463Y-70103390D01*
X120042055Y-70103357D01*
X120359689Y-70090876D01*
X120364679Y-70090427D01*
X120374773Y-70089000D01*
X120451227Y-70083184D01*
X120453806Y-70082919D01*
X120852081Y-70031546D01*
X120857017Y-70030653D01*
X120861554Y-70029592D01*
X120953856Y-70013234D01*
X120956396Y-70012715D01*
X121347595Y-69922040D01*
X121352410Y-69920664D01*
X121356805Y-69919164D01*
X121447054Y-69893710D01*
X121449530Y-69892942D01*
X121829792Y-69763859D01*
X121834454Y-69762008D01*
X121838668Y-69760083D01*
X121925941Y-69725792D01*
X121928327Y-69724781D01*
X122293890Y-69558570D01*
X122298344Y-69556266D01*
X122302356Y-69553925D01*
X122385783Y-69511141D01*
X122388058Y-69509899D01*
X122735303Y-69308203D01*
X122739505Y-69305469D01*
X122743285Y-69302728D01*
X122822031Y-69251882D01*
X122824170Y-69250420D01*
X123149668Y-69015232D01*
X123153580Y-69012093D01*
X123157058Y-69008999D01*
X123230376Y-68950575D01*
X123232360Y-68948907D01*
X123532889Y-68682553D01*
X123536470Y-68679039D01*
X123539627Y-68675612D01*
X123606770Y-68610204D01*
X123608579Y-68608347D01*
X123881166Y-68313465D01*
X123884375Y-68309621D01*
X123887174Y-68305900D01*
X123947505Y-68234127D01*
X123949120Y-68232100D01*
X124191071Y-67911601D01*
X124193883Y-67907455D01*
X124196293Y-67903483D01*
X124249199Y-67826071D01*
X124250604Y-67823894D01*
X124459528Y-67480949D01*
X124461914Y-67476545D01*
X124463928Y-67472333D01*
X124508872Y-67390069D01*
X124510054Y-67387764D01*
X124683885Y-67025763D01*
X124685824Y-67021139D01*
X124687400Y-67016774D01*
X124723961Y-66930430D01*
X124724909Y-66928018D01*
X124861925Y-66550541D01*
X124863395Y-66545749D01*
X124864535Y-66541229D01*
X124892332Y-66451705D01*
X124893036Y-66449210D01*
X124991885Y-66059994D01*
X124992871Y-66055080D01*
X124993556Y-66050465D01*
X125012326Y-65958619D01*
X125012778Y-65956067D01*
X125072480Y-65558958D01*
X125072973Y-65553973D01*
X125073198Y-65549313D01*
X125082753Y-65456058D01*
X125082949Y-65453474D01*
X125102916Y-65052399D01*
X125102912Y-65047389D01*
X125102766Y-65044555D01*
X125102766Y-65028450D01*
X125104093Y-65002505D01*
X125104158Y-64999914D01*
X125104140Y-64985722D01*
X125103880Y-64980715D01*
X125102767Y-64969900D01*
X125102768Y-64935730D01*
X125102700Y-64933139D01*
X125081690Y-64532116D01*
X125081175Y-64527132D01*
X125080466Y-64522551D01*
X125071154Y-64429243D01*
X125070829Y-64426672D01*
X125010095Y-64029718D01*
X125009087Y-64024808D01*
X125007920Y-64020295D01*
X124989393Y-63928401D01*
X124988815Y-63925875D01*
X124888956Y-63536914D01*
X124887464Y-63532126D01*
X124885855Y-63527752D01*
X124858292Y-63438150D01*
X124857465Y-63435694D01*
X124719468Y-63058576D01*
X124717509Y-63053962D01*
X124715462Y-63049745D01*
X124679148Y-62963351D01*
X124678081Y-62960989D01*
X124503311Y-62599440D01*
X124500901Y-62595039D01*
X124498452Y-62591058D01*
X124453734Y-62508692D01*
X124452438Y-62506447D01*
X124242624Y-62164044D01*
X124239792Y-62159908D01*
X124236973Y-62156208D01*
X124184275Y-62078663D01*
X124182763Y-62076558D01*
X123939980Y-61756690D01*
X123936754Y-61752858D01*
X123933574Y-61749447D01*
X123873440Y-61677526D01*
X123871726Y-61675582D01*
X123598374Y-61381408D01*
X123594781Y-61377914D01*
X123591272Y-61374831D01*
X123524301Y-61309245D01*
X123522402Y-61307480D01*
X123221182Y-61041908D01*
X123217256Y-61038786D01*
X123213484Y-61036086D01*
X123140309Y-60977460D01*
X123138244Y-60975893D01*
X122812137Y-60741552D01*
X122807922Y-60738835D01*
X122803905Y-60736526D01*
X122725267Y-60685457D01*
X122723057Y-60684103D01*
X122375291Y-60483309D01*
X122370832Y-60481027D01*
X122366576Y-60479114D01*
X122283269Y-60436114D01*
X122280936Y-60434986D01*
X122099000Y-60352835D01*
X122099000Y-58099000D01*
X177901002Y-58099000D01*
X177901004Y-60352817D01*
G37*
%TD.AperFunction*%
%TD*%
M02*
