%FSLAX45Y45*%
G04 Gerber Fmt 4.5, Leading zero omitted, Abs format (unit mm)*
G04 Created by KiCad (PCBNEW (5.99.0-2407-g46ade4960)) date 2020-08-08 20:05:32*
%MOMM*%
%LPD*%
G01*
G04 APERTURE LIST*
%TA.AperFunction,Profile*%
%ADD10C,0.100000*%
%TD*%
%ADD11C,0.200000*%
G04 APERTURE END LIST*
D10*
X19372995Y-6917889D02*
G75*
G02*
X20350000Y-10000000I-4372995J-3082111D01*
G01*
X15250000Y-14300000D02*
X17600000Y-14300000D01*
X12000000Y-13100000D02*
X10650000Y-13100000D01*
X19372995Y-13082111D02*
G75*
G03*
X20350000Y-10000000I-4372995J3082111D01*
G01*
X15250000Y-12950000D02*
G75*
G03*
X15150000Y-12850000I-100000J0D01*
G01*
X15250000Y-12950000D02*
X15250000Y-14300000D01*
X17600000Y-13500000D02*
X17600000Y-14300000D01*
X19372995Y-6917889D02*
X19350000Y-6900000D01*
X19350000Y-10000000D02*
G75*
G03*
X19350000Y-10000000I-600000J0D01*
G01*
X12400000Y-13500000D02*
G75*
G03*
X12000000Y-13100000I-400000J0D01*
G01*
X12400000Y-5700000D02*
X17600000Y-5700000D01*
X13550000Y-14300000D02*
X13550000Y-12950000D01*
X12400000Y-6500000D02*
X12400000Y-5700000D01*
X13650000Y-12850000D02*
X15150000Y-12850000D01*
X18000000Y-13100000D02*
X19350000Y-13100000D01*
X18000000Y-6900000D02*
X19350000Y-6900000D01*
X10627005Y-13082111D02*
G75*
G02*
X9650000Y-10000000I4372995J3082111D01*
G01*
X10627005Y-6917889D02*
X10650000Y-6900000D01*
X12400000Y-6500000D02*
G75*
G02*
X12000000Y-6900000I-400000J0D01*
G01*
X19372995Y-13082111D02*
X19350000Y-13100000D01*
X11850000Y-10000000D02*
G75*
G03*
X11850000Y-10000000I-600000J0D01*
G01*
X12400000Y-13500000D02*
X12400000Y-14300000D01*
X17600000Y-6500000D02*
X17600000Y-5700000D01*
X10627005Y-6917889D02*
G75*
G03*
X9650000Y-10000000I4372995J-3082111D01*
G01*
X12000000Y-6900000D02*
X10650000Y-6900000D01*
X13550000Y-14300000D02*
X12400000Y-14300000D01*
X13650000Y-12850000D02*
G75*
G03*
X13550000Y-12950000I0J-100000D01*
G01*
X17600000Y-13500000D02*
G75*
G02*
X18000000Y-13100000I400000J0D01*
G01*
X10627005Y-13082111D02*
X10650000Y-13100000D01*
X17600000Y-6500000D02*
G75*
G03*
X18000000Y-6900000I400000J0D01*
G01*
D11*
X9902619Y-14615476D02*
X9902619Y-14415476D01*
X9950238Y-14415476D01*
X9978809Y-14425000D01*
X9997857Y-14444048D01*
X10007381Y-14463095D01*
X10016905Y-14501190D01*
X10016905Y-14529762D01*
X10007381Y-14567857D01*
X9997857Y-14586905D01*
X9978809Y-14605952D01*
X9950238Y-14615476D01*
X9902619Y-14615476D01*
X10102619Y-14615476D02*
X10102619Y-14482143D01*
X10102619Y-14520238D02*
X10112143Y-14501190D01*
X10121667Y-14491667D01*
X10140714Y-14482143D01*
X10159762Y-14482143D01*
X10226428Y-14615476D02*
X10226428Y-14482143D01*
X10226428Y-14415476D02*
X10216905Y-14425000D01*
X10226428Y-14434524D01*
X10235952Y-14425000D01*
X10226428Y-14415476D01*
X10226428Y-14434524D01*
X10350238Y-14615476D02*
X10331190Y-14605952D01*
X10321667Y-14586905D01*
X10321667Y-14415476D01*
X10455000Y-14615476D02*
X10435952Y-14605952D01*
X10426428Y-14586905D01*
X10426428Y-14415476D01*
X10683571Y-14615476D02*
X10683571Y-14415476D01*
X10750238Y-14558333D01*
X10816905Y-14415476D01*
X10816905Y-14615476D01*
X10997857Y-14615476D02*
X10997857Y-14510714D01*
X10988333Y-14491667D01*
X10969286Y-14482143D01*
X10931190Y-14482143D01*
X10912143Y-14491667D01*
X10997857Y-14605952D02*
X10978809Y-14615476D01*
X10931190Y-14615476D01*
X10912143Y-14605952D01*
X10902619Y-14586905D01*
X10902619Y-14567857D01*
X10912143Y-14548810D01*
X10931190Y-14539286D01*
X10978809Y-14539286D01*
X10997857Y-14529762D01*
X11093095Y-14482143D02*
X11093095Y-14682143D01*
X11093095Y-14491667D02*
X11112143Y-14482143D01*
X11150238Y-14482143D01*
X11169286Y-14491667D01*
X11178809Y-14501190D01*
X11188333Y-14520238D01*
X11188333Y-14577381D01*
X11178809Y-14596429D01*
X11169286Y-14605952D01*
X11150238Y-14615476D01*
X11112143Y-14615476D01*
X11093095Y-14605952D01*
X11274047Y-14596429D02*
X11283571Y-14605952D01*
X11274047Y-14615476D01*
X11264524Y-14605952D01*
X11274047Y-14596429D01*
X11274047Y-14615476D01*
X11274047Y-14491667D02*
X11283571Y-14501190D01*
X11274047Y-14510714D01*
X11264524Y-14501190D01*
X11274047Y-14491667D01*
X11274047Y-14510714D01*
M02*
