  0
SECTION
  2
HEADER
  9
$ANGBASE
  50
0.0
  9
$ANGDIR
  70
1
  9
$MEASUREMENT
  70
0
  0
ENDSEC
  0
SECTION
  2
TABLES
  0
TABLE
  2
LTYPE
  70
4
  0
LTYPE
  5
40F
  2
CONTINUOUS
  70
0
  3
Solid line
  72
65
  73
0
  40
0.0
  0
LTYPE
  5
410
  2
DASHDOT
 70
0
  3
Dash Dot ____ _ ____ _
 72
65
 73
4
 40
2.0
 49
1.25
 49
-0.25
 49
0.25
 49
-0.25
  0
LTYPE
  5
411
  2
DASHED
 70
0
  3
Dashed __ __ __ __ __
 72
65
 73
2
 40
0.75
 49
0.5
 49
-0.25
  0
LTYPE
  5
43B
  2
DOTTED
 70
0
  3
Dotted .  .  .  .
 72
65
 73
2
 40
0.2
 49
0.0
 49
-0.2
  0
ENDTAB
  0
TABLE
  2
STYLE
  70
4
  0
STYLE
  2
KICAD
  70
0
  40
0
  41
1
  42
1
  50
0
  71
0
  3
isocp.shx
  0
STYLE
  2
KICADB
  70
0
  40
0
  41
1
  42
1
  50
0
  71
0
  3
isocp.shx
  0
STYLE
  2
KICADI
  70
0
  40
0
  41
1
  42
1
  50
15
  71
0
  3
isocp.shx
  0
STYLE
  2
KICADBI
  70
0
  40
0
  41
1
  42
1
  50
15
  71
0
  3
isocp.shx
  0
ENDTAB
  0
TABLE
  2
LAYER
  70
1
  0
LAYER
  2
BLACK
  70
0
  62
7
  6
CONTINUOUS
  0
ENDTAB
  0
ENDSEC
  0
SECTION
  2
ENTITIES
0
LINE
8
BLACK
6
CONTINUOUS
10
7.04724
20
-2.40551
11
7.04386
21
-2.40749
0
ARC
8
BLACK
10
7.08661
20
-2.55906
40
0.15748
50
105.751
51
180
0
LINE
8
BLACK
6
CONTINUOUS
10
7.04724
20
-2.40551
11
7.04724
21
-2.24409
0
ARC
8
BLACK
10
7.08661
20
-2.55906
40
0.15748
50
-180
51
-90
0
ARC
8
BLACK
10
4.72441
20
-5.31496
40
0.15748
50
90
51
164.249
0
LINE
8
BLACK
6
CONTINUOUS
10
4.57087
20
-5.27559
11
4.57284
21
-5.27221
0
LINE
8
BLACK
6
CONTINUOUS
10
4.76378
20
-2.40551
11
4.76716
21
-2.40749
0
ARC
8
BLACK
10
4.72441
20
-2.55906
40
0.15748
50
-0
51
74.2488
0
ARC
8
BLACK
10
4.72441
20
-2.55906
40
0.15748
50
-90
51
-0
0
LINE
8
BLACK
6
CONTINUOUS
10
6.00394
20
-5.15748
11
7.08661
21
-5.15748
0
LINE
8
BLACK
6
CONTINUOUS
10
7.24016
20
-5.27559
11
7.23818
21
-5.27221
0
LINE
8
BLACK
6
CONTINUOUS
10
7.24016
20
-5.27559
11
7.5315
21
-5.27559
0
LINE
8
BLACK
6
CONTINUOUS
10
7.5315
20
-5.27559
11
7.53517
21
-5.27144
0
ARC
8
BLACK
10
5.90551
20
-3.93701
40
2.1063
50
-39.312
51
-0
0
ARC
8
BLACK
10
7.08661
20
-5.31496
40
0.15748
50
15.7512
51
90
0
LINE
8
BLACK
6
CONTINUOUS
10
7.24016
20
-2.59843
11
7.23818
21
-2.6018
0
LINE
8
BLACK
6
CONTINUOUS
10
7.24016
20
-2.59843
11
7.5315
21
-2.59843
0
LINE
8
BLACK
6
CONTINUOUS
10
7.5315
20
-2.59843
11
7.53517
21
-2.60258
0
ARC
8
BLACK
10
5.90551
20
-3.93701
40
2.1063
50
-1.07095e-06
51
39.312
0
ARC
8
BLACK
10
7.08661
20
-2.55906
40
0.15748
50
-90
51
-15.7512
0
ARC
8
BLACK
10
4.72441
20
-2.55906
40
0.15748
50
-164.249
51
-90
0
ARC
8
BLACK
10
5.90551
20
-3.93701
40
2.1063
50
140.688
51
180
0
LINE
8
BLACK
6
CONTINUOUS
10
4.27953
20
-2.59843
11
4.27585
21
-2.60258
0
LINE
8
BLACK
6
CONTINUOUS
10
4.57087
20
-2.59843
11
4.27953
21
-2.59843
0
LINE
8
BLACK
6
CONTINUOUS
10
4.57087
20
-2.59843
11
4.57284
21
-2.6018
0
LINE
8
BLACK
6
CONTINUOUS
10
4.27953
20
-5.27559
11
4.27585
21
-5.27144
0
LINE
8
BLACK
6
CONTINUOUS
10
4.57087
20
-5.27559
11
4.27953
21
-5.27559
0
LINE
8
BLACK
6
CONTINUOUS
10
5.33465
20
-5.15748
11
4.72441
21
-5.15748
0
ARC
8
BLACK
10
5.96457
20
-5.09843
40
0.0393701
50
-0
51
90
0
LINE
8
BLACK
6
CONTINUOUS
10
6.00394
20
-5.09843
11
6.00394
21
-5.15748
0
CIRCLE
8
BLACK
10
7.38189
20
-3.93701
40
0.23622
0
LINE
8
BLACK
6
CONTINUOUS
10
4.76378
20
-2.24409
11
7.04724
21
-2.24409
0
LINE
8
BLACK
6
CONTINUOUS
10
5.33465
20
-5.15748
11
5.33465
21
-5.09843
0
LINE
8
BLACK
6
CONTINUOUS
10
4.76378
20
-2.40551
11
4.76378
21
-2.24409
0
LINE
8
BLACK
6
CONTINUOUS
10
5.37402
20
-5.05906
11
5.96457
21
-5.05906
0
ARC
8
BLACK
10
5.90551
20
-3.93701
40
2.1063
50
180
51
219.312
0
CIRCLE
8
BLACK
10
4.42913
20
-3.93701
40
0.23622
0
ARC
8
BLACK
10
5.37402
20
-5.09843
40
0.0393701
50
90
51
180
  0
ENDSEC
  0
EOF
